%TF.GenerationSoftware,KiCad,Pcbnew,7.0.10*%
%TF.CreationDate,2024-02-07T01:31:51+03:00*%
%TF.ProjectId,PowerSupply,506f7765-7253-4757-9070-6c792e6b6963,1*%
%TF.SameCoordinates,Original*%
%TF.FileFunction,Copper,L2,Bot*%
%TF.FilePolarity,Positive*%
%FSLAX46Y46*%
G04 Gerber Fmt 4.6, Leading zero omitted, Abs format (unit mm)*
G04 Created by KiCad (PCBNEW 7.0.10) date 2024-02-07 01:31:51*
%MOMM*%
%LPD*%
G01*
G04 APERTURE LIST*
G04 Aperture macros list*
%AMRoundRect*
0 Rectangle with rounded corners*
0 $1 Rounding radius*
0 $2 $3 $4 $5 $6 $7 $8 $9 X,Y pos of 4 corners*
0 Add a 4 corners polygon primitive as box body*
4,1,4,$2,$3,$4,$5,$6,$7,$8,$9,$2,$3,0*
0 Add four circle primitives for the rounded corners*
1,1,$1+$1,$2,$3*
1,1,$1+$1,$4,$5*
1,1,$1+$1,$6,$7*
1,1,$1+$1,$8,$9*
0 Add four rect primitives between the rounded corners*
20,1,$1+$1,$2,$3,$4,$5,0*
20,1,$1+$1,$4,$5,$6,$7,0*
20,1,$1+$1,$6,$7,$8,$9,0*
20,1,$1+$1,$8,$9,$2,$3,0*%
G04 Aperture macros list end*
%TA.AperFunction,ComponentPad*%
%ADD10C,1.600000*%
%TD*%
%TA.AperFunction,ComponentPad*%
%ADD11R,1.700000X1.700000*%
%TD*%
%TA.AperFunction,ComponentPad*%
%ADD12O,1.700000X1.700000*%
%TD*%
%TA.AperFunction,ComponentPad*%
%ADD13R,1.905000X2.000000*%
%TD*%
%TA.AperFunction,ComponentPad*%
%ADD14O,1.905000X2.000000*%
%TD*%
%TA.AperFunction,ComponentPad*%
%ADD15C,1.400000*%
%TD*%
%TA.AperFunction,ComponentPad*%
%ADD16O,1.400000X1.400000*%
%TD*%
%TA.AperFunction,ComponentPad*%
%ADD17R,3.500000X3.500000*%
%TD*%
%TA.AperFunction,ComponentPad*%
%ADD18RoundRect,0.750000X-1.000000X0.750000X-1.000000X-0.750000X1.000000X-0.750000X1.000000X0.750000X0*%
%TD*%
%TA.AperFunction,ComponentPad*%
%ADD19RoundRect,0.875000X-0.875000X0.875000X-0.875000X-0.875000X0.875000X-0.875000X0.875000X0.875000X0*%
%TD*%
%TA.AperFunction,ComponentPad*%
%ADD20R,1.800000X1.800000*%
%TD*%
%TA.AperFunction,ComponentPad*%
%ADD21C,1.800000*%
%TD*%
%TA.AperFunction,ComponentPad*%
%ADD22R,1.400000X1.400000*%
%TD*%
%TA.AperFunction,Conductor*%
%ADD23C,0.250000*%
%TD*%
G04 APERTURE END LIST*
D10*
%TO.P,C1,1*%
%TO.N,/12V*%
X130175000Y-116883500D03*
%TO.P,C1,2*%
%TO.N,GND*%
X130175000Y-114383500D03*
%TD*%
D11*
%TO.P,J3,1,Pin_1*%
%TO.N,GND*%
X148971000Y-134932500D03*
D12*
%TO.P,J3,2,Pin_2*%
%TO.N,/3.3V*%
X148971000Y-137472500D03*
%TD*%
D13*
%TO.P,U1,1,VI*%
%TO.N,/12V*%
X131953000Y-128516500D03*
D14*
%TO.P,U1,2,GND*%
%TO.N,GND*%
X134493000Y-128516500D03*
%TO.P,U1,3,VO*%
%TO.N,/5V*%
X137033000Y-128516500D03*
%TD*%
D13*
%TO.P,U2,1,ADJ*%
%TO.N,Net-(U2-ADJ)*%
X143383000Y-128516500D03*
D14*
%TO.P,U2,2,VO*%
%TO.N,/3.3V*%
X145923000Y-128516500D03*
%TO.P,U2,3,VI*%
%TO.N,/12V*%
X148463000Y-128516500D03*
%TD*%
D15*
%TO.P,R1,1*%
%TO.N,Net-(U2-ADJ)*%
X135763000Y-138239500D03*
D16*
%TO.P,R1,2*%
%TO.N,/3.3V*%
X143383000Y-138239500D03*
%TD*%
D10*
%TO.P,C2,1*%
%TO.N,/3.3V*%
X148209000Y-121201500D03*
%TO.P,C2,2*%
%TO.N,GND*%
X148209000Y-118701500D03*
%TD*%
D17*
%TO.P,J1,1*%
%TO.N,Net-(SW1A-B)*%
X146177000Y-114775500D03*
D18*
%TO.P,J1,2*%
%TO.N,GND*%
X146177000Y-108775500D03*
D19*
%TO.P,J1,3*%
X141477000Y-111775500D03*
%TD*%
D11*
%TO.P,J2,1,Pin_1*%
%TO.N,GND*%
X131191000Y-134932500D03*
D12*
%TO.P,J2,2,Pin_2*%
%TO.N,/5V*%
X131191000Y-137472500D03*
%TD*%
D20*
%TO.P,D1,1,K*%
%TO.N,GND*%
X137038000Y-115633500D03*
D21*
%TO.P,D1,2,A*%
%TO.N,Net-(D1-A)*%
X134498000Y-115633500D03*
%TD*%
D15*
%TO.P,R3,1*%
%TO.N,GND*%
X135763000Y-133413500D03*
D16*
%TO.P,R3,2*%
%TO.N,Net-(U2-ADJ)*%
X143383000Y-133413500D03*
%TD*%
D10*
%TO.P,C3,1*%
%TO.N,/5V*%
X144145000Y-121201500D03*
%TO.P,C3,2*%
%TO.N,GND*%
X144145000Y-118701500D03*
%TD*%
D15*
%TO.P,R2,1*%
%TO.N,Net-(D1-A)*%
X138049000Y-109029500D03*
D16*
%TO.P,R2,2*%
%TO.N,/12V*%
X138049000Y-101409500D03*
%TD*%
D22*
%TO.P,SW1,1,A*%
%TO.N,/12V*%
X133477000Y-102933500D03*
D15*
%TO.P,SW1,2,B*%
%TO.N,Net-(SW1A-B)*%
X133477000Y-105433500D03*
%TO.P,SW1,3,C*%
%TO.N,unconnected-(SW1A-C-Pad3)*%
X133477000Y-107933500D03*
%TO.P,SW1,4*%
%TO.N,N/C*%
X130177000Y-102933500D03*
%TO.P,SW1,5*%
X130177000Y-105433500D03*
%TO.P,SW1,6*%
X130177000Y-107933500D03*
%TD*%
D23*
%TO.N,/12V*%
X133914000Y-126555500D02*
X146502000Y-126555500D01*
X131953000Y-128516500D02*
X133914000Y-126555500D01*
X146502000Y-126555500D02*
X148463000Y-128516500D01*
%TO.N,GND*%
X143177000Y-111775500D02*
X141477000Y-111775500D01*
%TO.N,/5V*%
X137033000Y-128516500D02*
X137033000Y-128846500D01*
%TD*%
%TA.AperFunction,Conductor*%
%TO.N,GND*%
G36*
X151835039Y-99587685D02*
G01*
X151880794Y-99640489D01*
X151892000Y-99692000D01*
X151892000Y-140084000D01*
X151872315Y-140151039D01*
X151819511Y-140196794D01*
X151768000Y-140208000D01*
X128902000Y-140208000D01*
X128834961Y-140188315D01*
X128789206Y-140135511D01*
X128778000Y-140084000D01*
X128778000Y-137472500D01*
X129835341Y-137472500D01*
X129855936Y-137707903D01*
X129855938Y-137707913D01*
X129917094Y-137936155D01*
X129917096Y-137936159D01*
X129917097Y-137936163D01*
X129955241Y-138017962D01*
X130016965Y-138150330D01*
X130016967Y-138150334D01*
X130125281Y-138305021D01*
X130152505Y-138343901D01*
X130319599Y-138510995D01*
X130416384Y-138578765D01*
X130513165Y-138646532D01*
X130513167Y-138646533D01*
X130513170Y-138646535D01*
X130727337Y-138746403D01*
X130955592Y-138807563D01*
X131143918Y-138824039D01*
X131190999Y-138828159D01*
X131191000Y-138828159D01*
X131191001Y-138828159D01*
X131230234Y-138824726D01*
X131426408Y-138807563D01*
X131654663Y-138746403D01*
X131868830Y-138646535D01*
X132062401Y-138510995D01*
X132229495Y-138343901D01*
X132302597Y-138239500D01*
X134557357Y-138239500D01*
X134577884Y-138461035D01*
X134577885Y-138461037D01*
X134638769Y-138675023D01*
X134638775Y-138675038D01*
X134737938Y-138874183D01*
X134737943Y-138874191D01*
X134872020Y-139051738D01*
X135036437Y-139201623D01*
X135036439Y-139201625D01*
X135225595Y-139318745D01*
X135225596Y-139318745D01*
X135225599Y-139318747D01*
X135433060Y-139399118D01*
X135651757Y-139440000D01*
X135651759Y-139440000D01*
X135874241Y-139440000D01*
X135874243Y-139440000D01*
X136092940Y-139399118D01*
X136300401Y-139318747D01*
X136489562Y-139201624D01*
X136653981Y-139051736D01*
X136788058Y-138874189D01*
X136887229Y-138675028D01*
X136948115Y-138461036D01*
X136968643Y-138239500D01*
X142177357Y-138239500D01*
X142197884Y-138461035D01*
X142197885Y-138461037D01*
X142258769Y-138675023D01*
X142258775Y-138675038D01*
X142357938Y-138874183D01*
X142357943Y-138874191D01*
X142492020Y-139051738D01*
X142656437Y-139201623D01*
X142656439Y-139201625D01*
X142845595Y-139318745D01*
X142845596Y-139318745D01*
X142845599Y-139318747D01*
X143053060Y-139399118D01*
X143271757Y-139440000D01*
X143271759Y-139440000D01*
X143494241Y-139440000D01*
X143494243Y-139440000D01*
X143712940Y-139399118D01*
X143920401Y-139318747D01*
X144109562Y-139201624D01*
X144273981Y-139051736D01*
X144408058Y-138874189D01*
X144507229Y-138675028D01*
X144568115Y-138461036D01*
X144588643Y-138239500D01*
X144568115Y-138017964D01*
X144507229Y-137803972D01*
X144507224Y-137803961D01*
X144408061Y-137604816D01*
X144408056Y-137604808D01*
X144308142Y-137472500D01*
X147615341Y-137472500D01*
X147635936Y-137707903D01*
X147635938Y-137707913D01*
X147697094Y-137936155D01*
X147697096Y-137936159D01*
X147697097Y-137936163D01*
X147735241Y-138017962D01*
X147796965Y-138150330D01*
X147796967Y-138150334D01*
X147905281Y-138305021D01*
X147932505Y-138343901D01*
X148099599Y-138510995D01*
X148196384Y-138578765D01*
X148293165Y-138646532D01*
X148293167Y-138646533D01*
X148293170Y-138646535D01*
X148507337Y-138746403D01*
X148735592Y-138807563D01*
X148923918Y-138824039D01*
X148970999Y-138828159D01*
X148971000Y-138828159D01*
X148971001Y-138828159D01*
X149010234Y-138824726D01*
X149206408Y-138807563D01*
X149434663Y-138746403D01*
X149648830Y-138646535D01*
X149842401Y-138510995D01*
X150009495Y-138343901D01*
X150145035Y-138150330D01*
X150244903Y-137936163D01*
X150306063Y-137707908D01*
X150326659Y-137472500D01*
X150306063Y-137237092D01*
X150244903Y-137008837D01*
X150145035Y-136794671D01*
X150009495Y-136601099D01*
X150009494Y-136601097D01*
X149842402Y-136434006D01*
X149842395Y-136434001D01*
X149648834Y-136298467D01*
X149648830Y-136298465D01*
X149648828Y-136298464D01*
X149434663Y-136198597D01*
X149434659Y-136198596D01*
X149434655Y-136198594D01*
X149206413Y-136137438D01*
X149206403Y-136137436D01*
X148971001Y-136116841D01*
X148970999Y-136116841D01*
X148735596Y-136137436D01*
X148735586Y-136137438D01*
X148507344Y-136198594D01*
X148507335Y-136198598D01*
X148293171Y-136298464D01*
X148293169Y-136298465D01*
X148099597Y-136434005D01*
X147932505Y-136601097D01*
X147796965Y-136794669D01*
X147796964Y-136794671D01*
X147697098Y-137008835D01*
X147697094Y-137008844D01*
X147635938Y-137237086D01*
X147635936Y-137237096D01*
X147615341Y-137472499D01*
X147615341Y-137472500D01*
X144308142Y-137472500D01*
X144273979Y-137427261D01*
X144109562Y-137277376D01*
X144109560Y-137277374D01*
X143920404Y-137160254D01*
X143920398Y-137160252D01*
X143712940Y-137079882D01*
X143494243Y-137039000D01*
X143271757Y-137039000D01*
X143053060Y-137079882D01*
X142921864Y-137130707D01*
X142845601Y-137160252D01*
X142845595Y-137160254D01*
X142656439Y-137277374D01*
X142656437Y-137277376D01*
X142492020Y-137427261D01*
X142357943Y-137604808D01*
X142357938Y-137604816D01*
X142258775Y-137803961D01*
X142258769Y-137803976D01*
X142197885Y-138017962D01*
X142197884Y-138017964D01*
X142177357Y-138239499D01*
X142177357Y-138239500D01*
X136968643Y-138239500D01*
X136948115Y-138017964D01*
X136887229Y-137803972D01*
X136887224Y-137803961D01*
X136788061Y-137604816D01*
X136788056Y-137604808D01*
X136653979Y-137427261D01*
X136489562Y-137277376D01*
X136489560Y-137277374D01*
X136300404Y-137160254D01*
X136300398Y-137160252D01*
X136092940Y-137079882D01*
X135874243Y-137039000D01*
X135651757Y-137039000D01*
X135433060Y-137079882D01*
X135301864Y-137130707D01*
X135225601Y-137160252D01*
X135225595Y-137160254D01*
X135036439Y-137277374D01*
X135036437Y-137277376D01*
X134872020Y-137427261D01*
X134737943Y-137604808D01*
X134737938Y-137604816D01*
X134638775Y-137803961D01*
X134638769Y-137803976D01*
X134577885Y-138017962D01*
X134577884Y-138017964D01*
X134557357Y-138239499D01*
X134557357Y-138239500D01*
X132302597Y-138239500D01*
X132365035Y-138150330D01*
X132464903Y-137936163D01*
X132526063Y-137707908D01*
X132546659Y-137472500D01*
X132526063Y-137237092D01*
X132464903Y-137008837D01*
X132365035Y-136794671D01*
X132229495Y-136601099D01*
X132229494Y-136601097D01*
X132062402Y-136434006D01*
X132062395Y-136434001D01*
X131868834Y-136298467D01*
X131868830Y-136298465D01*
X131868828Y-136298464D01*
X131654663Y-136198597D01*
X131654659Y-136198596D01*
X131654655Y-136198594D01*
X131426413Y-136137438D01*
X131426403Y-136137436D01*
X131191001Y-136116841D01*
X131190999Y-136116841D01*
X130955596Y-136137436D01*
X130955586Y-136137438D01*
X130727344Y-136198594D01*
X130727335Y-136198598D01*
X130513171Y-136298464D01*
X130513169Y-136298465D01*
X130319597Y-136434005D01*
X130152505Y-136601097D01*
X130016965Y-136794669D01*
X130016964Y-136794671D01*
X129917098Y-137008835D01*
X129917094Y-137008844D01*
X129855938Y-137237086D01*
X129855936Y-137237096D01*
X129835341Y-137472499D01*
X129835341Y-137472500D01*
X128778000Y-137472500D01*
X128778000Y-133413500D01*
X142177357Y-133413500D01*
X142197884Y-133635035D01*
X142197885Y-133635037D01*
X142258769Y-133849023D01*
X142258775Y-133849038D01*
X142357938Y-134048183D01*
X142357943Y-134048191D01*
X142492020Y-134225738D01*
X142656437Y-134375623D01*
X142656439Y-134375625D01*
X142845595Y-134492745D01*
X142845596Y-134492745D01*
X142845599Y-134492747D01*
X143053060Y-134573118D01*
X143271757Y-134614000D01*
X143271759Y-134614000D01*
X143494241Y-134614000D01*
X143494243Y-134614000D01*
X143712940Y-134573118D01*
X143920401Y-134492747D01*
X144109562Y-134375624D01*
X144273981Y-134225736D01*
X144408058Y-134048189D01*
X144507229Y-133849028D01*
X144568115Y-133635036D01*
X144588643Y-133413500D01*
X144568115Y-133191964D01*
X144507229Y-132977972D01*
X144507224Y-132977961D01*
X144408061Y-132778816D01*
X144408056Y-132778808D01*
X144273979Y-132601261D01*
X144109562Y-132451376D01*
X144109560Y-132451374D01*
X143920404Y-132334254D01*
X143920398Y-132334252D01*
X143712940Y-132253882D01*
X143494243Y-132213000D01*
X143271757Y-132213000D01*
X143053060Y-132253882D01*
X142921864Y-132304707D01*
X142845601Y-132334252D01*
X142845595Y-132334254D01*
X142656439Y-132451374D01*
X142656437Y-132451376D01*
X142492020Y-132601261D01*
X142357943Y-132778808D01*
X142357938Y-132778816D01*
X142258775Y-132977961D01*
X142258769Y-132977976D01*
X142197885Y-133191962D01*
X142197884Y-133191964D01*
X142177357Y-133413499D01*
X142177357Y-133413500D01*
X128778000Y-133413500D01*
X128778000Y-129564370D01*
X130500000Y-129564370D01*
X130500001Y-129564376D01*
X130506408Y-129623983D01*
X130556702Y-129758828D01*
X130556706Y-129758835D01*
X130642952Y-129874044D01*
X130642955Y-129874047D01*
X130758164Y-129960293D01*
X130758171Y-129960297D01*
X130893017Y-130010591D01*
X130893016Y-130010591D01*
X130899944Y-130011335D01*
X130952627Y-130017000D01*
X132953372Y-130016999D01*
X133012983Y-130010591D01*
X133147831Y-129960296D01*
X133263046Y-129874046D01*
X133349296Y-129758831D01*
X133399591Y-129623983D01*
X133406000Y-129564373D01*
X133405999Y-127999451D01*
X133425684Y-127932413D01*
X133442318Y-127911771D01*
X134136771Y-127217319D01*
X134198094Y-127183834D01*
X134224452Y-127181000D01*
X135961663Y-127181000D01*
X136028702Y-127200685D01*
X136074457Y-127253489D01*
X136084401Y-127322647D01*
X136055376Y-127386203D01*
X136045638Y-127396237D01*
X136045535Y-127396331D01*
X135882449Y-127573490D01*
X135750743Y-127775081D01*
X135654017Y-127995594D01*
X135594904Y-128229027D01*
X135580000Y-128408889D01*
X135580000Y-128624110D01*
X135594904Y-128803972D01*
X135594904Y-128803975D01*
X135594905Y-128803976D01*
X135654017Y-129037405D01*
X135750745Y-129257922D01*
X135882449Y-129459510D01*
X136045537Y-129636671D01*
X136235561Y-129784572D01*
X136447336Y-129899179D01*
X136565598Y-129939778D01*
X136675083Y-129977365D01*
X136675085Y-129977365D01*
X136675087Y-129977366D01*
X136912601Y-130017000D01*
X136912602Y-130017000D01*
X137153398Y-130017000D01*
X137153399Y-130017000D01*
X137390913Y-129977366D01*
X137618664Y-129899179D01*
X137830439Y-129784572D01*
X138020463Y-129636671D01*
X138183551Y-129459510D01*
X138315255Y-129257922D01*
X138411983Y-129037405D01*
X138471095Y-128803976D01*
X138486000Y-128624100D01*
X138486000Y-128408900D01*
X138471095Y-128229024D01*
X138411983Y-127995595D01*
X138315255Y-127775078D01*
X138183551Y-127573490D01*
X138020463Y-127396329D01*
X138020455Y-127396323D01*
X138020362Y-127396237D01*
X138020332Y-127396188D01*
X138016989Y-127392556D01*
X138017736Y-127391868D01*
X137984366Y-127336353D01*
X137986460Y-127266515D01*
X138025979Y-127208895D01*
X138090376Y-127181788D01*
X138104337Y-127181000D01*
X141842860Y-127181000D01*
X141909899Y-127200685D01*
X141955654Y-127253489D01*
X141965598Y-127322647D01*
X141959042Y-127348332D01*
X141936409Y-127409014D01*
X141936408Y-127409016D01*
X141930001Y-127468616D01*
X141930000Y-127468635D01*
X141930000Y-129564370D01*
X141930001Y-129564376D01*
X141936408Y-129623983D01*
X141986702Y-129758828D01*
X141986706Y-129758835D01*
X142072952Y-129874044D01*
X142072955Y-129874047D01*
X142188164Y-129960293D01*
X142188171Y-129960297D01*
X142323017Y-130010591D01*
X142323016Y-130010591D01*
X142329944Y-130011335D01*
X142382627Y-130017000D01*
X144383372Y-130016999D01*
X144442983Y-130010591D01*
X144577831Y-129960296D01*
X144693046Y-129874046D01*
X144779296Y-129758831D01*
X144790725Y-129728187D01*
X144832594Y-129672255D01*
X144898058Y-129647836D01*
X144966331Y-129662686D01*
X144983069Y-129673667D01*
X145125552Y-129784566D01*
X145125558Y-129784570D01*
X145125561Y-129784572D01*
X145337336Y-129899179D01*
X145455598Y-129939778D01*
X145565083Y-129977365D01*
X145565085Y-129977365D01*
X145565087Y-129977366D01*
X145802601Y-130017000D01*
X145802602Y-130017000D01*
X146043398Y-130017000D01*
X146043399Y-130017000D01*
X146280913Y-129977366D01*
X146508664Y-129899179D01*
X146720439Y-129784572D01*
X146910463Y-129636671D01*
X147073551Y-129459510D01*
X147089190Y-129435571D01*
X147142336Y-129390214D01*
X147211567Y-129380790D01*
X147274904Y-129410291D01*
X147296808Y-129435570D01*
X147312449Y-129459510D01*
X147475537Y-129636671D01*
X147665561Y-129784572D01*
X147877336Y-129899179D01*
X147995598Y-129939778D01*
X148105083Y-129977365D01*
X148105085Y-129977365D01*
X148105087Y-129977366D01*
X148342601Y-130017000D01*
X148342602Y-130017000D01*
X148583398Y-130017000D01*
X148583399Y-130017000D01*
X148820913Y-129977366D01*
X149048664Y-129899179D01*
X149260439Y-129784572D01*
X149450463Y-129636671D01*
X149613551Y-129459510D01*
X149745255Y-129257922D01*
X149841983Y-129037405D01*
X149901095Y-128803976D01*
X149916000Y-128624100D01*
X149916000Y-128408900D01*
X149901095Y-128229024D01*
X149841983Y-127995595D01*
X149745255Y-127775078D01*
X149613551Y-127573490D01*
X149450463Y-127396329D01*
X149293505Y-127274164D01*
X149260441Y-127248429D01*
X149048665Y-127133821D01*
X149048656Y-127133818D01*
X148820916Y-127055634D01*
X148621800Y-127022408D01*
X148583399Y-127016000D01*
X148342601Y-127016000D01*
X148223844Y-127035817D01*
X148105086Y-127055634D01*
X148015738Y-127086306D01*
X147945939Y-127089455D01*
X147887796Y-127056705D01*
X147002803Y-126171712D01*
X146992980Y-126159450D01*
X146992759Y-126159634D01*
X146987786Y-126153622D01*
X146938776Y-126107599D01*
X146935977Y-126104886D01*
X146916477Y-126085385D01*
X146916471Y-126085380D01*
X146913286Y-126082909D01*
X146904434Y-126075348D01*
X146872582Y-126045438D01*
X146872580Y-126045436D01*
X146872577Y-126045435D01*
X146855029Y-126035788D01*
X146838763Y-126025104D01*
X146822932Y-126012824D01*
X146782849Y-125995478D01*
X146772363Y-125990341D01*
X146734094Y-125969303D01*
X146734092Y-125969302D01*
X146714693Y-125964322D01*
X146696281Y-125958018D01*
X146677898Y-125950062D01*
X146677892Y-125950060D01*
X146634760Y-125943229D01*
X146623322Y-125940861D01*
X146581020Y-125930000D01*
X146581019Y-125930000D01*
X146560984Y-125930000D01*
X146541586Y-125928473D01*
X146534162Y-125927297D01*
X146521805Y-125925340D01*
X146521804Y-125925340D01*
X146478325Y-125929450D01*
X146466656Y-125930000D01*
X133996743Y-125930000D01*
X133981122Y-125928275D01*
X133981096Y-125928561D01*
X133973334Y-125927827D01*
X133973333Y-125927827D01*
X133921688Y-125929450D01*
X133906127Y-125929939D01*
X133902232Y-125930000D01*
X133874647Y-125930000D01*
X133870661Y-125930503D01*
X133859033Y-125931418D01*
X133815373Y-125932790D01*
X133796129Y-125938381D01*
X133777079Y-125942325D01*
X133757211Y-125944834D01*
X133757210Y-125944834D01*
X133716599Y-125960913D01*
X133705554Y-125964694D01*
X133663614Y-125976879D01*
X133663610Y-125976881D01*
X133646366Y-125987079D01*
X133628905Y-125995633D01*
X133610274Y-126003010D01*
X133610262Y-126003017D01*
X133574933Y-126028685D01*
X133565173Y-126035096D01*
X133527580Y-126057329D01*
X133513414Y-126071495D01*
X133498624Y-126084127D01*
X133482414Y-126095904D01*
X133482411Y-126095907D01*
X133454573Y-126129558D01*
X133446711Y-126138197D01*
X132605227Y-126979681D01*
X132543904Y-127013166D01*
X132517546Y-127016000D01*
X130952629Y-127016000D01*
X130952623Y-127016001D01*
X130893016Y-127022408D01*
X130758171Y-127072702D01*
X130758164Y-127072706D01*
X130642955Y-127158952D01*
X130642952Y-127158955D01*
X130556706Y-127274164D01*
X130556702Y-127274171D01*
X130506408Y-127409017D01*
X130500001Y-127468616D01*
X130500000Y-127468635D01*
X130500000Y-129564370D01*
X128778000Y-129564370D01*
X128778000Y-121201501D01*
X142839532Y-121201501D01*
X142859364Y-121428186D01*
X142859366Y-121428197D01*
X142918258Y-121647988D01*
X142918261Y-121647997D01*
X143014431Y-121854232D01*
X143014432Y-121854234D01*
X143144954Y-122040641D01*
X143305858Y-122201545D01*
X143305861Y-122201547D01*
X143492266Y-122332068D01*
X143698504Y-122428239D01*
X143918308Y-122487135D01*
X144080230Y-122501301D01*
X144144998Y-122506968D01*
X144145000Y-122506968D01*
X144145002Y-122506968D01*
X144201673Y-122502009D01*
X144371692Y-122487135D01*
X144591496Y-122428239D01*
X144797734Y-122332068D01*
X144984139Y-122201547D01*
X145145047Y-122040639D01*
X145275568Y-121854234D01*
X145371739Y-121647996D01*
X145430635Y-121428192D01*
X145450468Y-121201501D01*
X146903532Y-121201501D01*
X146923364Y-121428186D01*
X146923366Y-121428197D01*
X146982258Y-121647988D01*
X146982261Y-121647997D01*
X147078431Y-121854232D01*
X147078432Y-121854234D01*
X147208954Y-122040641D01*
X147369858Y-122201545D01*
X147369861Y-122201547D01*
X147556266Y-122332068D01*
X147762504Y-122428239D01*
X147982308Y-122487135D01*
X148144230Y-122501301D01*
X148208998Y-122506968D01*
X148209000Y-122506968D01*
X148209002Y-122506968D01*
X148265673Y-122502009D01*
X148435692Y-122487135D01*
X148655496Y-122428239D01*
X148861734Y-122332068D01*
X149048139Y-122201547D01*
X149209047Y-122040639D01*
X149339568Y-121854234D01*
X149435739Y-121647996D01*
X149494635Y-121428192D01*
X149514468Y-121201500D01*
X149494635Y-120974808D01*
X149435739Y-120755004D01*
X149339568Y-120548766D01*
X149209047Y-120362361D01*
X149209045Y-120362358D01*
X149048141Y-120201454D01*
X148861734Y-120070932D01*
X148861732Y-120070931D01*
X148655497Y-119974761D01*
X148655488Y-119974758D01*
X148435697Y-119915866D01*
X148435693Y-119915865D01*
X148435692Y-119915865D01*
X148435691Y-119915864D01*
X148435686Y-119915864D01*
X148209002Y-119896032D01*
X148208998Y-119896032D01*
X147982313Y-119915864D01*
X147982302Y-119915866D01*
X147762511Y-119974758D01*
X147762502Y-119974761D01*
X147556267Y-120070931D01*
X147556265Y-120070932D01*
X147369858Y-120201454D01*
X147208954Y-120362358D01*
X147078432Y-120548765D01*
X147078431Y-120548767D01*
X146982261Y-120755002D01*
X146982258Y-120755011D01*
X146923366Y-120974802D01*
X146923364Y-120974813D01*
X146903532Y-121201498D01*
X146903532Y-121201501D01*
X145450468Y-121201501D01*
X145450468Y-121201500D01*
X145430635Y-120974808D01*
X145371739Y-120755004D01*
X145275568Y-120548766D01*
X145145047Y-120362361D01*
X145145045Y-120362358D01*
X144984141Y-120201454D01*
X144797734Y-120070932D01*
X144797732Y-120070931D01*
X144591497Y-119974761D01*
X144591488Y-119974758D01*
X144371697Y-119915866D01*
X144371693Y-119915865D01*
X144371692Y-119915865D01*
X144371691Y-119915864D01*
X144371686Y-119915864D01*
X144145002Y-119896032D01*
X144144998Y-119896032D01*
X143918313Y-119915864D01*
X143918302Y-119915866D01*
X143698511Y-119974758D01*
X143698502Y-119974761D01*
X143492267Y-120070931D01*
X143492265Y-120070932D01*
X143305858Y-120201454D01*
X143144954Y-120362358D01*
X143014432Y-120548765D01*
X143014431Y-120548767D01*
X142918261Y-120755002D01*
X142918258Y-120755011D01*
X142859366Y-120974802D01*
X142859364Y-120974813D01*
X142839532Y-121201498D01*
X142839532Y-121201501D01*
X128778000Y-121201501D01*
X128778000Y-117524196D01*
X128797685Y-117457157D01*
X128850489Y-117411402D01*
X128919647Y-117401458D01*
X128983203Y-117430483D01*
X129014382Y-117471791D01*
X129044431Y-117536232D01*
X129044432Y-117536234D01*
X129174954Y-117722641D01*
X129335858Y-117883545D01*
X129335861Y-117883547D01*
X129522266Y-118014068D01*
X129728504Y-118110239D01*
X129948308Y-118169135D01*
X130110230Y-118183301D01*
X130174998Y-118188968D01*
X130175000Y-118188968D01*
X130175002Y-118188968D01*
X130231673Y-118184009D01*
X130401692Y-118169135D01*
X130621496Y-118110239D01*
X130827734Y-118014068D01*
X131014139Y-117883547D01*
X131175047Y-117722639D01*
X131305568Y-117536234D01*
X131401739Y-117329996D01*
X131460635Y-117110192D01*
X131480468Y-116883500D01*
X131480428Y-116883047D01*
X131474034Y-116809964D01*
X131460635Y-116656808D01*
X131401739Y-116437004D01*
X131305568Y-116230766D01*
X131175047Y-116044361D01*
X131175045Y-116044358D01*
X131014141Y-115883454D01*
X130827734Y-115752932D01*
X130827732Y-115752931D01*
X130621497Y-115656761D01*
X130621488Y-115656758D01*
X130534709Y-115633506D01*
X133092700Y-115633506D01*
X133111864Y-115864797D01*
X133111866Y-115864808D01*
X133168842Y-116089800D01*
X133262075Y-116302348D01*
X133389016Y-116496647D01*
X133389019Y-116496651D01*
X133389021Y-116496653D01*
X133546216Y-116667413D01*
X133546219Y-116667415D01*
X133546222Y-116667418D01*
X133729365Y-116809964D01*
X133729371Y-116809968D01*
X133729374Y-116809970D01*
X133933497Y-116920436D01*
X134047487Y-116959568D01*
X134153015Y-116995797D01*
X134153017Y-116995797D01*
X134153019Y-116995798D01*
X134381951Y-117034000D01*
X134381952Y-117034000D01*
X134614048Y-117034000D01*
X134614049Y-117034000D01*
X134842981Y-116995798D01*
X135062503Y-116920436D01*
X135266626Y-116809970D01*
X135449784Y-116667413D01*
X135536356Y-116573370D01*
X143926500Y-116573370D01*
X143926501Y-116573376D01*
X143932908Y-116632983D01*
X143983202Y-116767828D01*
X143983206Y-116767835D01*
X144069452Y-116883044D01*
X144069455Y-116883047D01*
X144184664Y-116969293D01*
X144184671Y-116969297D01*
X144319517Y-117019591D01*
X144319516Y-117019591D01*
X144326444Y-117020335D01*
X144379127Y-117026000D01*
X147974872Y-117025999D01*
X148034483Y-117019591D01*
X148169331Y-116969296D01*
X148284546Y-116883046D01*
X148370796Y-116767831D01*
X148421091Y-116632983D01*
X148427500Y-116573373D01*
X148427499Y-112977628D01*
X148421091Y-112918017D01*
X148370796Y-112783169D01*
X148370795Y-112783168D01*
X148370793Y-112783164D01*
X148284547Y-112667955D01*
X148284544Y-112667952D01*
X148169335Y-112581706D01*
X148169328Y-112581702D01*
X148034482Y-112531408D01*
X148034483Y-112531408D01*
X147974883Y-112525001D01*
X147974881Y-112525000D01*
X147974873Y-112525000D01*
X147974864Y-112525000D01*
X144379129Y-112525000D01*
X144379123Y-112525001D01*
X144319516Y-112531408D01*
X144184671Y-112581702D01*
X144184664Y-112581706D01*
X144069455Y-112667952D01*
X144069452Y-112667955D01*
X143983206Y-112783164D01*
X143983202Y-112783171D01*
X143932908Y-112918017D01*
X143926501Y-112977616D01*
X143926501Y-112977623D01*
X143926500Y-112977635D01*
X143926500Y-116573370D01*
X135536356Y-116573370D01*
X135606979Y-116496653D01*
X135733924Y-116302349D01*
X135827157Y-116089800D01*
X135884134Y-115864805D01*
X135903300Y-115633500D01*
X135903300Y-115633493D01*
X135884135Y-115402202D01*
X135884133Y-115402191D01*
X135827157Y-115177199D01*
X135733924Y-114964651D01*
X135606983Y-114770352D01*
X135606980Y-114770349D01*
X135606979Y-114770347D01*
X135449784Y-114599587D01*
X135449779Y-114599583D01*
X135449777Y-114599581D01*
X135266634Y-114457035D01*
X135266628Y-114457031D01*
X135062504Y-114346564D01*
X135062495Y-114346561D01*
X134842984Y-114271202D01*
X134671282Y-114242550D01*
X134614049Y-114233000D01*
X134381951Y-114233000D01*
X134336164Y-114240640D01*
X134153015Y-114271202D01*
X133933504Y-114346561D01*
X133933495Y-114346564D01*
X133729371Y-114457031D01*
X133729365Y-114457035D01*
X133546222Y-114599581D01*
X133546219Y-114599584D01*
X133389016Y-114770352D01*
X133262075Y-114964651D01*
X133168842Y-115177199D01*
X133111866Y-115402191D01*
X133111864Y-115402202D01*
X133092700Y-115633493D01*
X133092700Y-115633506D01*
X130534709Y-115633506D01*
X130401697Y-115597866D01*
X130401693Y-115597865D01*
X130401692Y-115597865D01*
X130401691Y-115597864D01*
X130401686Y-115597864D01*
X130175002Y-115578032D01*
X130174998Y-115578032D01*
X129948313Y-115597864D01*
X129948302Y-115597866D01*
X129728511Y-115656758D01*
X129728502Y-115656761D01*
X129522267Y-115752931D01*
X129522265Y-115752932D01*
X129335858Y-115883454D01*
X129174954Y-116044358D01*
X129044432Y-116230765D01*
X129044431Y-116230767D01*
X129014382Y-116295208D01*
X128968209Y-116347647D01*
X128901016Y-116366799D01*
X128834134Y-116346583D01*
X128788800Y-116293417D01*
X128778000Y-116242803D01*
X128778000Y-108292233D01*
X128797685Y-108225194D01*
X128850489Y-108179439D01*
X128919647Y-108169495D01*
X128983203Y-108198520D01*
X129020977Y-108257298D01*
X129021266Y-108258299D01*
X129052769Y-108369023D01*
X129052775Y-108369038D01*
X129151938Y-108568183D01*
X129151943Y-108568191D01*
X129286020Y-108745738D01*
X129450437Y-108895623D01*
X129450439Y-108895625D01*
X129639595Y-109012745D01*
X129639596Y-109012745D01*
X129639599Y-109012747D01*
X129847060Y-109093118D01*
X130065757Y-109134000D01*
X130065759Y-109134000D01*
X130288241Y-109134000D01*
X130288243Y-109134000D01*
X130506940Y-109093118D01*
X130714401Y-109012747D01*
X130903562Y-108895624D01*
X131067981Y-108745736D01*
X131202058Y-108568189D01*
X131301229Y-108369028D01*
X131362115Y-108155036D01*
X131382643Y-107933500D01*
X132271357Y-107933500D01*
X132291884Y-108155035D01*
X132291885Y-108155037D01*
X132352769Y-108369023D01*
X132352775Y-108369038D01*
X132451938Y-108568183D01*
X132451943Y-108568191D01*
X132586020Y-108745738D01*
X132750437Y-108895623D01*
X132750439Y-108895625D01*
X132939595Y-109012745D01*
X132939596Y-109012745D01*
X132939599Y-109012747D01*
X133147060Y-109093118D01*
X133365757Y-109134000D01*
X133365759Y-109134000D01*
X133588241Y-109134000D01*
X133588243Y-109134000D01*
X133806940Y-109093118D01*
X133971157Y-109029500D01*
X136843357Y-109029500D01*
X136863884Y-109251035D01*
X136863885Y-109251037D01*
X136924769Y-109465023D01*
X136924775Y-109465038D01*
X137023938Y-109664183D01*
X137023943Y-109664191D01*
X137158020Y-109841738D01*
X137322437Y-109991623D01*
X137322439Y-109991625D01*
X137511595Y-110108745D01*
X137511596Y-110108745D01*
X137511599Y-110108747D01*
X137719060Y-110189118D01*
X137937757Y-110230000D01*
X137937759Y-110230000D01*
X138160241Y-110230000D01*
X138160243Y-110230000D01*
X138378940Y-110189118D01*
X138586401Y-110108747D01*
X138775562Y-109991624D01*
X138939981Y-109841736D01*
X139074058Y-109664189D01*
X139173229Y-109465028D01*
X139234115Y-109251036D01*
X139254643Y-109029500D01*
X139253090Y-109012745D01*
X139234115Y-108807964D01*
X139234114Y-108807962D01*
X139216409Y-108745736D01*
X139173229Y-108593972D01*
X139160388Y-108568183D01*
X139074061Y-108394816D01*
X139074056Y-108394808D01*
X138939979Y-108217261D01*
X138775562Y-108067376D01*
X138775560Y-108067374D01*
X138586404Y-107950254D01*
X138586398Y-107950252D01*
X138378940Y-107869882D01*
X138160243Y-107829000D01*
X137937757Y-107829000D01*
X137719060Y-107869882D01*
X137587864Y-107920707D01*
X137511601Y-107950252D01*
X137511595Y-107950254D01*
X137322439Y-108067374D01*
X137322437Y-108067376D01*
X137158020Y-108217261D01*
X137023943Y-108394808D01*
X137023938Y-108394816D01*
X136924775Y-108593961D01*
X136924769Y-108593976D01*
X136863885Y-108807962D01*
X136863884Y-108807964D01*
X136843357Y-109029499D01*
X136843357Y-109029500D01*
X133971157Y-109029500D01*
X134014401Y-109012747D01*
X134203562Y-108895624D01*
X134367981Y-108745736D01*
X134502058Y-108568189D01*
X134601229Y-108369028D01*
X134662115Y-108155036D01*
X134682643Y-107933500D01*
X134662115Y-107711964D01*
X134601229Y-107497972D01*
X134601224Y-107497961D01*
X134502061Y-107298816D01*
X134502056Y-107298808D01*
X134367979Y-107121261D01*
X134203562Y-106971376D01*
X134203560Y-106971374D01*
X134014404Y-106854254D01*
X134014395Y-106854250D01*
X133942560Y-106826421D01*
X133872101Y-106799125D01*
X133816701Y-106756554D01*
X133793110Y-106690788D01*
X133808821Y-106622707D01*
X133858844Y-106573928D01*
X133872093Y-106567877D01*
X134014401Y-106512747D01*
X134203562Y-106395624D01*
X134367981Y-106245736D01*
X134502058Y-106068189D01*
X134601229Y-105869028D01*
X134662115Y-105655036D01*
X134682643Y-105433500D01*
X134662115Y-105211964D01*
X134601229Y-104997972D01*
X134601224Y-104997961D01*
X134502061Y-104798816D01*
X134502056Y-104798808D01*
X134367979Y-104621261D01*
X134203562Y-104471376D01*
X134203560Y-104471374D01*
X134029216Y-104363426D01*
X133982580Y-104311398D01*
X133971476Y-104242417D01*
X133999429Y-104178382D01*
X134057564Y-104139626D01*
X134094492Y-104133999D01*
X134224872Y-104133999D01*
X134284483Y-104127591D01*
X134419331Y-104077296D01*
X134534546Y-103991046D01*
X134620796Y-103875831D01*
X134671091Y-103740983D01*
X134677500Y-103681373D01*
X134677499Y-102185628D01*
X134671091Y-102126017D01*
X134669318Y-102121264D01*
X134620797Y-101991171D01*
X134620793Y-101991164D01*
X134534547Y-101875955D01*
X134534544Y-101875952D01*
X134419335Y-101789706D01*
X134419328Y-101789702D01*
X134284482Y-101739408D01*
X134284483Y-101739408D01*
X134224883Y-101733001D01*
X134224881Y-101733000D01*
X134224873Y-101733000D01*
X134224864Y-101733000D01*
X132729129Y-101733000D01*
X132729123Y-101733001D01*
X132669516Y-101739408D01*
X132534671Y-101789702D01*
X132534664Y-101789706D01*
X132419455Y-101875952D01*
X132419452Y-101875955D01*
X132333206Y-101991164D01*
X132333202Y-101991171D01*
X132282908Y-102126017D01*
X132276501Y-102185616D01*
X132276501Y-102185623D01*
X132276500Y-102185635D01*
X132276500Y-103681370D01*
X132276501Y-103681376D01*
X132282908Y-103740983D01*
X132333202Y-103875828D01*
X132333206Y-103875835D01*
X132419452Y-103991044D01*
X132419455Y-103991047D01*
X132534664Y-104077293D01*
X132534671Y-104077297D01*
X132669517Y-104127591D01*
X132669516Y-104127591D01*
X132676444Y-104128335D01*
X132729127Y-104134000D01*
X132859507Y-104133999D01*
X132926544Y-104153683D01*
X132972299Y-104206487D01*
X132982243Y-104275645D01*
X132953219Y-104339201D01*
X132924783Y-104363426D01*
X132750436Y-104471377D01*
X132586020Y-104621261D01*
X132451943Y-104798808D01*
X132451938Y-104798816D01*
X132352775Y-104997961D01*
X132352769Y-104997976D01*
X132291885Y-105211962D01*
X132291884Y-105211964D01*
X132271357Y-105433499D01*
X132271357Y-105433500D01*
X132291884Y-105655035D01*
X132291885Y-105655037D01*
X132352769Y-105869023D01*
X132352775Y-105869038D01*
X132451938Y-106068183D01*
X132451943Y-106068191D01*
X132586020Y-106245738D01*
X132750437Y-106395623D01*
X132750439Y-106395625D01*
X132939595Y-106512745D01*
X132939596Y-106512745D01*
X132939599Y-106512747D01*
X133081898Y-106567874D01*
X133137298Y-106610446D01*
X133160889Y-106676213D01*
X133145178Y-106744293D01*
X133095154Y-106793072D01*
X133081906Y-106799122D01*
X132975693Y-106840269D01*
X132939601Y-106854252D01*
X132939595Y-106854254D01*
X132750439Y-106971374D01*
X132750437Y-106971376D01*
X132586020Y-107121261D01*
X132451943Y-107298808D01*
X132451938Y-107298816D01*
X132352775Y-107497961D01*
X132352769Y-107497976D01*
X132291885Y-107711962D01*
X132291884Y-107711964D01*
X132271357Y-107933499D01*
X132271357Y-107933500D01*
X131382643Y-107933500D01*
X131362115Y-107711964D01*
X131301229Y-107497972D01*
X131301224Y-107497961D01*
X131202061Y-107298816D01*
X131202056Y-107298808D01*
X131067979Y-107121261D01*
X130903562Y-106971376D01*
X130903560Y-106971374D01*
X130714404Y-106854254D01*
X130714395Y-106854250D01*
X130642560Y-106826421D01*
X130572101Y-106799125D01*
X130516701Y-106756554D01*
X130493110Y-106690788D01*
X130508821Y-106622707D01*
X130558844Y-106573928D01*
X130572093Y-106567877D01*
X130714401Y-106512747D01*
X130903562Y-106395624D01*
X131067981Y-106245736D01*
X131202058Y-106068189D01*
X131301229Y-105869028D01*
X131362115Y-105655036D01*
X131382643Y-105433500D01*
X131362115Y-105211964D01*
X131301229Y-104997972D01*
X131301224Y-104997961D01*
X131202061Y-104798816D01*
X131202056Y-104798808D01*
X131067979Y-104621261D01*
X130903562Y-104471376D01*
X130903560Y-104471374D01*
X130714404Y-104354254D01*
X130714395Y-104354250D01*
X130642560Y-104326421D01*
X130572101Y-104299125D01*
X130516701Y-104256554D01*
X130493110Y-104190788D01*
X130508821Y-104122707D01*
X130558844Y-104073928D01*
X130572093Y-104067877D01*
X130714401Y-104012747D01*
X130903562Y-103895624D01*
X131067981Y-103745736D01*
X131202058Y-103568189D01*
X131301229Y-103369028D01*
X131362115Y-103155036D01*
X131382643Y-102933500D01*
X131362115Y-102711964D01*
X131301229Y-102497972D01*
X131301224Y-102497961D01*
X131202061Y-102298816D01*
X131202056Y-102298808D01*
X131067979Y-102121261D01*
X130903562Y-101971376D01*
X130903560Y-101971374D01*
X130714404Y-101854254D01*
X130714398Y-101854252D01*
X130690614Y-101845038D01*
X130506940Y-101773882D01*
X130288243Y-101733000D01*
X130065757Y-101733000D01*
X129847060Y-101773882D01*
X129806219Y-101789704D01*
X129639601Y-101854252D01*
X129639595Y-101854254D01*
X129450439Y-101971374D01*
X129450437Y-101971376D01*
X129286020Y-102121261D01*
X129151943Y-102298808D01*
X129151938Y-102298816D01*
X129052775Y-102497961D01*
X129052769Y-102497976D01*
X129021266Y-102608700D01*
X128983987Y-102667794D01*
X128920677Y-102697351D01*
X128851438Y-102687989D01*
X128798251Y-102642679D01*
X128778004Y-102575807D01*
X128778000Y-102574766D01*
X128778000Y-101409500D01*
X136843357Y-101409500D01*
X136863884Y-101631035D01*
X136863885Y-101631037D01*
X136924769Y-101845023D01*
X136924775Y-101845038D01*
X137023938Y-102044183D01*
X137023943Y-102044191D01*
X137158020Y-102221738D01*
X137322437Y-102371623D01*
X137322439Y-102371625D01*
X137511595Y-102488745D01*
X137511596Y-102488745D01*
X137511599Y-102488747D01*
X137719060Y-102569118D01*
X137937757Y-102610000D01*
X137937759Y-102610000D01*
X138160241Y-102610000D01*
X138160243Y-102610000D01*
X138378940Y-102569118D01*
X138586401Y-102488747D01*
X138775562Y-102371624D01*
X138939981Y-102221736D01*
X139074058Y-102044189D01*
X139173229Y-101845028D01*
X139234115Y-101631036D01*
X139254643Y-101409500D01*
X139234115Y-101187964D01*
X139173229Y-100973972D01*
X139173224Y-100973961D01*
X139074061Y-100774816D01*
X139074056Y-100774808D01*
X138939979Y-100597261D01*
X138775562Y-100447376D01*
X138775560Y-100447374D01*
X138586404Y-100330254D01*
X138586398Y-100330252D01*
X138378940Y-100249882D01*
X138160243Y-100209000D01*
X137937757Y-100209000D01*
X137719060Y-100249882D01*
X137587864Y-100300707D01*
X137511601Y-100330252D01*
X137511595Y-100330254D01*
X137322439Y-100447374D01*
X137322437Y-100447376D01*
X137158020Y-100597261D01*
X137023943Y-100774808D01*
X137023938Y-100774816D01*
X136924775Y-100973961D01*
X136924769Y-100973976D01*
X136863885Y-101187962D01*
X136863884Y-101187964D01*
X136843357Y-101409499D01*
X136843357Y-101409500D01*
X128778000Y-101409500D01*
X128778000Y-99692000D01*
X128797685Y-99624961D01*
X128850489Y-99579206D01*
X128902000Y-99568000D01*
X151768000Y-99568000D01*
X151835039Y-99587685D01*
G37*
%TD.AperFunction*%
%TD*%
%TA.AperFunction,NonConductor*%
G36*
X128983203Y-103198520D02*
G01*
X129020977Y-103257298D01*
X129021266Y-103258299D01*
X129052769Y-103369023D01*
X129052775Y-103369038D01*
X129151938Y-103568183D01*
X129151943Y-103568191D01*
X129286020Y-103745738D01*
X129450437Y-103895623D01*
X129450439Y-103895625D01*
X129639595Y-104012745D01*
X129639596Y-104012745D01*
X129639599Y-104012747D01*
X129781898Y-104067874D01*
X129837298Y-104110446D01*
X129860889Y-104176213D01*
X129845178Y-104244293D01*
X129795154Y-104293072D01*
X129781906Y-104299122D01*
X129678453Y-104339201D01*
X129639601Y-104354252D01*
X129639595Y-104354254D01*
X129450439Y-104471374D01*
X129450437Y-104471376D01*
X129286020Y-104621261D01*
X129151943Y-104798808D01*
X129151938Y-104798816D01*
X129052775Y-104997961D01*
X129052769Y-104997976D01*
X129021266Y-105108700D01*
X128983987Y-105167794D01*
X128920677Y-105197351D01*
X128851438Y-105187989D01*
X128798251Y-105142679D01*
X128778004Y-105075807D01*
X128778000Y-105074766D01*
X128778000Y-103292233D01*
X128797685Y-103225194D01*
X128850489Y-103179439D01*
X128919647Y-103169495D01*
X128983203Y-103198520D01*
G37*
%TD.AperFunction*%
%TA.AperFunction,NonConductor*%
G36*
X128983203Y-105698520D02*
G01*
X129020977Y-105757298D01*
X129021266Y-105758299D01*
X129052769Y-105869023D01*
X129052775Y-105869038D01*
X129151938Y-106068183D01*
X129151943Y-106068191D01*
X129286020Y-106245738D01*
X129450437Y-106395623D01*
X129450439Y-106395625D01*
X129639595Y-106512745D01*
X129639596Y-106512745D01*
X129639599Y-106512747D01*
X129781898Y-106567874D01*
X129837298Y-106610446D01*
X129860889Y-106676213D01*
X129845178Y-106744293D01*
X129795154Y-106793072D01*
X129781906Y-106799122D01*
X129675693Y-106840269D01*
X129639601Y-106854252D01*
X129639595Y-106854254D01*
X129450439Y-106971374D01*
X129450437Y-106971376D01*
X129286020Y-107121261D01*
X129151943Y-107298808D01*
X129151938Y-107298816D01*
X129052775Y-107497961D01*
X129052769Y-107497976D01*
X129021266Y-107608700D01*
X128983987Y-107667794D01*
X128920677Y-107697351D01*
X128851438Y-107687989D01*
X128798251Y-107642679D01*
X128778004Y-107575807D01*
X128778000Y-107574766D01*
X128778000Y-105792233D01*
X128797685Y-105725194D01*
X128850489Y-105679439D01*
X128919647Y-105669495D01*
X128983203Y-105698520D01*
G37*
%TD.AperFunction*%
M02*
