%TF.GenerationSoftware,KiCad,Pcbnew,7.0.10*%
%TF.CreationDate,2024-02-07T01:31:51+03:00*%
%TF.ProjectId,PowerSupply,506f7765-7253-4757-9070-6c792e6b6963,1*%
%TF.SameCoordinates,Original*%
%TF.FileFunction,Copper,L1,Top*%
%TF.FilePolarity,Positive*%
%FSLAX46Y46*%
G04 Gerber Fmt 4.6, Leading zero omitted, Abs format (unit mm)*
G04 Created by KiCad (PCBNEW 7.0.10) date 2024-02-07 01:31:51*
%MOMM*%
%LPD*%
G01*
G04 APERTURE LIST*
G04 Aperture macros list*
%AMRoundRect*
0 Rectangle with rounded corners*
0 $1 Rounding radius*
0 $2 $3 $4 $5 $6 $7 $8 $9 X,Y pos of 4 corners*
0 Add a 4 corners polygon primitive as box body*
4,1,4,$2,$3,$4,$5,$6,$7,$8,$9,$2,$3,0*
0 Add four circle primitives for the rounded corners*
1,1,$1+$1,$2,$3*
1,1,$1+$1,$4,$5*
1,1,$1+$1,$6,$7*
1,1,$1+$1,$8,$9*
0 Add four rect primitives between the rounded corners*
20,1,$1+$1,$2,$3,$4,$5,0*
20,1,$1+$1,$4,$5,$6,$7,0*
20,1,$1+$1,$6,$7,$8,$9,0*
20,1,$1+$1,$8,$9,$2,$3,0*%
G04 Aperture macros list end*
%TA.AperFunction,ComponentPad*%
%ADD10C,1.600000*%
%TD*%
%TA.AperFunction,ComponentPad*%
%ADD11R,1.700000X1.700000*%
%TD*%
%TA.AperFunction,ComponentPad*%
%ADD12O,1.700000X1.700000*%
%TD*%
%TA.AperFunction,ComponentPad*%
%ADD13R,1.905000X2.000000*%
%TD*%
%TA.AperFunction,ComponentPad*%
%ADD14O,1.905000X2.000000*%
%TD*%
%TA.AperFunction,ComponentPad*%
%ADD15C,1.400000*%
%TD*%
%TA.AperFunction,ComponentPad*%
%ADD16O,1.400000X1.400000*%
%TD*%
%TA.AperFunction,ComponentPad*%
%ADD17R,3.500000X3.500000*%
%TD*%
%TA.AperFunction,ComponentPad*%
%ADD18RoundRect,0.750000X-1.000000X0.750000X-1.000000X-0.750000X1.000000X-0.750000X1.000000X0.750000X0*%
%TD*%
%TA.AperFunction,ComponentPad*%
%ADD19RoundRect,0.875000X-0.875000X0.875000X-0.875000X-0.875000X0.875000X-0.875000X0.875000X0.875000X0*%
%TD*%
%TA.AperFunction,ComponentPad*%
%ADD20R,1.800000X1.800000*%
%TD*%
%TA.AperFunction,ComponentPad*%
%ADD21C,1.800000*%
%TD*%
%TA.AperFunction,ComponentPad*%
%ADD22R,1.400000X1.400000*%
%TD*%
%TA.AperFunction,Conductor*%
%ADD23C,0.250000*%
%TD*%
G04 APERTURE END LIST*
D10*
%TO.P,C1,1*%
%TO.N,/12V*%
X130175000Y-116883500D03*
%TO.P,C1,2*%
%TO.N,GND*%
X130175000Y-114383500D03*
%TD*%
D11*
%TO.P,J3,1,Pin_1*%
%TO.N,GND*%
X148971000Y-134932500D03*
D12*
%TO.P,J3,2,Pin_2*%
%TO.N,/3.3V*%
X148971000Y-137472500D03*
%TD*%
D13*
%TO.P,U1,1,VI*%
%TO.N,/12V*%
X131953000Y-128516500D03*
D14*
%TO.P,U1,2,GND*%
%TO.N,GND*%
X134493000Y-128516500D03*
%TO.P,U1,3,VO*%
%TO.N,/5V*%
X137033000Y-128516500D03*
%TD*%
D13*
%TO.P,U2,1,ADJ*%
%TO.N,Net-(U2-ADJ)*%
X143383000Y-128516500D03*
D14*
%TO.P,U2,2,VO*%
%TO.N,/3.3V*%
X145923000Y-128516500D03*
%TO.P,U2,3,VI*%
%TO.N,/12V*%
X148463000Y-128516500D03*
%TD*%
D15*
%TO.P,R1,1*%
%TO.N,Net-(U2-ADJ)*%
X135763000Y-138239500D03*
D16*
%TO.P,R1,2*%
%TO.N,/3.3V*%
X143383000Y-138239500D03*
%TD*%
D10*
%TO.P,C2,1*%
%TO.N,/3.3V*%
X148209000Y-121201500D03*
%TO.P,C2,2*%
%TO.N,GND*%
X148209000Y-118701500D03*
%TD*%
D17*
%TO.P,J1,1*%
%TO.N,Net-(SW1A-B)*%
X146177000Y-114775500D03*
D18*
%TO.P,J1,2*%
%TO.N,GND*%
X146177000Y-108775500D03*
D19*
%TO.P,J1,3*%
X141477000Y-111775500D03*
%TD*%
D11*
%TO.P,J2,1,Pin_1*%
%TO.N,GND*%
X131191000Y-134932500D03*
D12*
%TO.P,J2,2,Pin_2*%
%TO.N,/5V*%
X131191000Y-137472500D03*
%TD*%
D20*
%TO.P,D1,1,K*%
%TO.N,GND*%
X137038000Y-115633500D03*
D21*
%TO.P,D1,2,A*%
%TO.N,Net-(D1-A)*%
X134498000Y-115633500D03*
%TD*%
D15*
%TO.P,R3,1*%
%TO.N,GND*%
X135763000Y-133413500D03*
D16*
%TO.P,R3,2*%
%TO.N,Net-(U2-ADJ)*%
X143383000Y-133413500D03*
%TD*%
D10*
%TO.P,C3,1*%
%TO.N,/5V*%
X144145000Y-121201500D03*
%TO.P,C3,2*%
%TO.N,GND*%
X144145000Y-118701500D03*
%TD*%
D15*
%TO.P,R2,1*%
%TO.N,Net-(D1-A)*%
X138049000Y-109029500D03*
D16*
%TO.P,R2,2*%
%TO.N,/12V*%
X138049000Y-101409500D03*
%TD*%
D22*
%TO.P,SW1,1,A*%
%TO.N,/12V*%
X133477000Y-102933500D03*
D15*
%TO.P,SW1,2,B*%
%TO.N,Net-(SW1A-B)*%
X133477000Y-105433500D03*
%TO.P,SW1,3,C*%
%TO.N,unconnected-(SW1A-C-Pad3)*%
X133477000Y-107933500D03*
%TO.P,SW1,4*%
%TO.N,N/C*%
X130177000Y-102933500D03*
%TO.P,SW1,5*%
X130177000Y-105433500D03*
%TO.P,SW1,6*%
X130177000Y-107933500D03*
%TD*%
D23*
%TO.N,/12V*%
X135001000Y-101409500D02*
X133477000Y-102933500D01*
X131933000Y-116883500D02*
X131953000Y-116903500D01*
X131953000Y-104457500D02*
X131953000Y-116903500D01*
X138049000Y-101409500D02*
X135001000Y-101409500D01*
X133477000Y-102933500D02*
X131953000Y-104457500D01*
X131953000Y-116903500D02*
X131953000Y-128516500D01*
X130175000Y-116883500D02*
X131933000Y-116883500D01*
%TO.N,GND*%
X141477000Y-111775500D02*
X140896000Y-111775500D01*
X131191000Y-134932500D02*
X131704000Y-134932500D01*
%TO.N,/3.3V*%
X148971000Y-137472500D02*
X145923000Y-137472500D01*
X148209000Y-121201500D02*
X148209000Y-126230500D01*
X148209000Y-126230500D02*
X145923000Y-128516500D01*
X145923000Y-128516500D02*
X145923000Y-137472500D01*
X144150000Y-137472500D02*
X143383000Y-138239500D01*
X145923000Y-137472500D02*
X144150000Y-137472500D01*
%TO.N,/5V*%
X144145000Y-121201500D02*
X137033000Y-128313500D01*
X131191000Y-137472500D02*
X133477000Y-135186500D01*
X137033000Y-128313500D02*
X137033000Y-128516500D01*
X133477000Y-132461000D02*
X137033000Y-128905000D01*
X137033000Y-128905000D02*
X137033000Y-128516500D01*
X133477000Y-135186500D02*
X133477000Y-132461000D01*
X130937000Y-137482500D02*
X131694000Y-137482500D01*
%TO.N,Net-(D1-A)*%
X134498000Y-112580500D02*
X134498000Y-115633500D01*
X138049000Y-109029500D02*
X134498000Y-112580500D01*
%TO.N,Net-(SW1A-B)*%
X138835000Y-105433500D02*
X133477000Y-105433500D01*
X146177000Y-112775500D02*
X138835000Y-105433500D01*
X146177000Y-114775500D02*
X146177000Y-112775500D01*
%TO.N,Net-(U2-ADJ)*%
X135763000Y-135699500D02*
X135763000Y-138747500D01*
X143383000Y-133413500D02*
X143383000Y-135699500D01*
X143383000Y-135699500D02*
X135763000Y-135699500D01*
X143383000Y-128516500D02*
X143383000Y-133413500D01*
%TD*%
M02*
