%TF.GenerationSoftware,KiCad,Pcbnew,7.0.10*%
%TF.CreationDate,2024-02-03T20:27:23+03:00*%
%TF.ProjectId,PowerSupply,506f7765-7253-4757-9070-6c792e6b6963,1*%
%TF.SameCoordinates,Original*%
%TF.FileFunction,Copper,L2,Bot*%
%TF.FilePolarity,Positive*%
%FSLAX46Y46*%
G04 Gerber Fmt 4.6, Leading zero omitted, Abs format (unit mm)*
G04 Created by KiCad (PCBNEW 7.0.10) date 2024-02-03 20:27:23*
%MOMM*%
%LPD*%
G01*
G04 APERTURE LIST*
G04 Aperture macros list*
%AMRoundRect*
0 Rectangle with rounded corners*
0 $1 Rounding radius*
0 $2 $3 $4 $5 $6 $7 $8 $9 X,Y pos of 4 corners*
0 Add a 4 corners polygon primitive as box body*
4,1,4,$2,$3,$4,$5,$6,$7,$8,$9,$2,$3,0*
0 Add four circle primitives for the rounded corners*
1,1,$1+$1,$2,$3*
1,1,$1+$1,$4,$5*
1,1,$1+$1,$6,$7*
1,1,$1+$1,$8,$9*
0 Add four rect primitives between the rounded corners*
20,1,$1+$1,$2,$3,$4,$5,0*
20,1,$1+$1,$4,$5,$6,$7,0*
20,1,$1+$1,$6,$7,$8,$9,0*
20,1,$1+$1,$8,$9,$2,$3,0*%
G04 Aperture macros list end*
%TA.AperFunction,ComponentPad*%
%ADD10R,1.700000X1.700000*%
%TD*%
%TA.AperFunction,ComponentPad*%
%ADD11O,1.700000X1.700000*%
%TD*%
%TA.AperFunction,ComponentPad*%
%ADD12O,1.905000X2.000000*%
%TD*%
%TA.AperFunction,ComponentPad*%
%ADD13R,1.905000X2.000000*%
%TD*%
%TA.AperFunction,ComponentPad*%
%ADD14C,1.400000*%
%TD*%
%TA.AperFunction,ComponentPad*%
%ADD15R,1.400000X1.400000*%
%TD*%
%TA.AperFunction,ComponentPad*%
%ADD16O,1.400000X1.400000*%
%TD*%
%TA.AperFunction,ComponentPad*%
%ADD17RoundRect,0.875000X-0.875000X0.875000X-0.875000X-0.875000X0.875000X-0.875000X0.875000X0.875000X0*%
%TD*%
%TA.AperFunction,ComponentPad*%
%ADD18RoundRect,0.750000X-1.000000X0.750000X-1.000000X-0.750000X1.000000X-0.750000X1.000000X0.750000X0*%
%TD*%
%TA.AperFunction,ComponentPad*%
%ADD19R,3.500000X3.500000*%
%TD*%
%TA.AperFunction,ComponentPad*%
%ADD20R,1.800000X1.800000*%
%TD*%
%TA.AperFunction,ComponentPad*%
%ADD21C,1.800000*%
%TD*%
%TA.AperFunction,ComponentPad*%
%ADD22C,1.600000*%
%TD*%
%TA.AperFunction,Conductor*%
%ADD23C,0.250000*%
%TD*%
G04 APERTURE END LIST*
D10*
%TO.P,J3,1,Pin_1*%
%TO.N,GND*%
X170434000Y-139187000D03*
D11*
%TO.P,J3,2,Pin_2*%
%TO.N,/3.3V*%
X170434000Y-141727000D03*
%TD*%
%TO.P,J2,2,Pin_2*%
%TO.N,/5V*%
X152654000Y-141727000D03*
D10*
%TO.P,J2,1,Pin_1*%
%TO.N,GND*%
X152654000Y-139187000D03*
%TD*%
D12*
%TO.P,U2,3,VI*%
%TO.N,/12V*%
X169926000Y-132771000D03*
%TO.P,U2,2,VO*%
%TO.N,/3.3V*%
X167386000Y-132771000D03*
D13*
%TO.P,U2,1,ADJ*%
%TO.N,Net-(U2-ADJ)*%
X164846000Y-132771000D03*
%TD*%
D12*
%TO.P,U1,3,VO*%
%TO.N,/5V*%
X158496000Y-132771000D03*
%TO.P,U1,2,GND*%
%TO.N,GND*%
X155956000Y-132771000D03*
D13*
%TO.P,U1,1,VI*%
%TO.N,/12V*%
X153416000Y-132771000D03*
%TD*%
D14*
%TO.P,SW1,6*%
%TO.N,N/C*%
X151640000Y-112188000D03*
%TO.P,SW1,5*%
X151640000Y-109688000D03*
%TO.P,SW1,4*%
X151640000Y-107188000D03*
%TO.P,SW1,3,C*%
%TO.N,unconnected-(SW1A-C-Pad3)*%
X154940000Y-112188000D03*
%TO.P,SW1,2,B*%
%TO.N,Net-(SW1A-B)*%
X154940000Y-109688000D03*
D15*
%TO.P,SW1,1,A*%
%TO.N,/12V*%
X154940000Y-107188000D03*
%TD*%
D14*
%TO.P,R3,1*%
%TO.N,GND*%
X157226000Y-137668000D03*
D16*
%TO.P,R3,2*%
%TO.N,Net-(U2-ADJ)*%
X164846000Y-137668000D03*
%TD*%
D14*
%TO.P,R2,1*%
%TO.N,Net-(D1-A)*%
X159512000Y-113284000D03*
D16*
%TO.P,R2,2*%
%TO.N,/12V*%
X159512000Y-105664000D03*
%TD*%
D14*
%TO.P,R1,1*%
%TO.N,Net-(U2-ADJ)*%
X157226000Y-142494000D03*
D16*
%TO.P,R1,2*%
%TO.N,/3.3V*%
X164846000Y-142494000D03*
%TD*%
D17*
%TO.P,J1,3*%
%TO.N,GND*%
X162940000Y-116030000D03*
D18*
%TO.P,J1,2*%
X167640000Y-113030000D03*
D19*
%TO.P,J1,1*%
%TO.N,Net-(SW1A-B)*%
X167640000Y-119030000D03*
%TD*%
D20*
%TO.P,D1,1,K*%
%TO.N,GND*%
X158501000Y-119888000D03*
D21*
%TO.P,D1,2,A*%
%TO.N,Net-(D1-A)*%
X155961000Y-119888000D03*
%TD*%
D22*
%TO.P,C3,2*%
%TO.N,GND*%
X165608000Y-122956000D03*
%TO.P,C3,1*%
%TO.N,/5V*%
X165608000Y-125456000D03*
%TD*%
%TO.P,C2,1*%
%TO.N,/3.3V*%
X169672000Y-125456000D03*
%TO.P,C2,2*%
%TO.N,GND*%
X169672000Y-122956000D03*
%TD*%
%TO.P,C1,1*%
%TO.N,/12V*%
X151638000Y-121138000D03*
%TO.P,C1,2*%
%TO.N,GND*%
X151638000Y-118638000D03*
%TD*%
D23*
%TO.N,/5V*%
X154940000Y-139441000D02*
X152654000Y-141727000D01*
X154940000Y-136327000D02*
X154940000Y-139441000D01*
X158496000Y-132771000D02*
X154940000Y-136327000D01*
%TO.N,GND*%
X158745000Y-139187000D02*
X157226000Y-137668000D01*
X170434000Y-139187000D02*
X158745000Y-139187000D01*
%TO.N,/5V*%
X158496000Y-132771000D02*
X158496000Y-133101000D01*
%TO.N,GND*%
X157251000Y-118638000D02*
X158501000Y-119888000D01*
X151638000Y-118638000D02*
X157251000Y-118638000D01*
%TO.N,/12V*%
X167965000Y-130810000D02*
X169926000Y-132771000D01*
X155377000Y-130810000D02*
X167965000Y-130810000D01*
X153416000Y-132771000D02*
X155377000Y-130810000D01*
%TO.N,GND*%
X164640000Y-116030000D02*
X162940000Y-116030000D01*
X167640000Y-113030000D02*
X164640000Y-116030000D01*
%TD*%
M02*
