M48
; DRILL file {KiCad 7.0.10} date Wed Feb  7 01:31:55 2024
; FORMAT={-:-/ absolute / inch / decimal}
; #@! TF.CreationDate,2024-02-07T01:31:55+03:00
; #@! TF.GenerationSoftware,Kicad,Pcbnew,7.0.10
; #@! TF.FileFunction,Plated,1,2,PTH
FMAT,2
INCH
; #@! TA.AperFunction,Plated,PTH,ComponentDrill
T1C0.0276
; #@! TA.AperFunction,Plated,PTH,ComponentDrill
T2C0.0315
; #@! TA.AperFunction,Plated,PTH,ComponentDrill
T3C0.0354
; #@! TA.AperFunction,Plated,PTH,ComponentDrill
T4C0.0394
; #@! TA.AperFunction,Plated,PTH,ComponentDrill
T5C0.0433
%
G90
G05
T1
X5.345Y-5.2525
X5.345Y-5.4425
X5.435Y-3.9925
X5.435Y-4.2925
X5.645Y-5.2525
X5.645Y-5.4425
T2
X5.125Y-4.5033
X5.125Y-4.6017
X5.675Y-4.6733
X5.675Y-4.7717
X5.835Y-4.6733
X5.835Y-4.7717
T3
X5.1251Y-4.0525
X5.1251Y-4.1509
X5.1251Y-4.2494
X5.255Y-4.0525
X5.255Y-4.1509
X5.255Y-4.2494
X5.2952Y-4.5525
X5.3952Y-4.5525
T4
X5.165Y-5.3123
X5.165Y-5.4123
X5.865Y-5.3123
X5.865Y-5.4123
T5
X5.195Y-5.0597
X5.295Y-5.0597
X5.395Y-5.0597
X5.645Y-5.0597
X5.745Y-5.0597
X5.845Y-5.0597
T4
G00X5.57Y-4.3612
M15
G01X5.57Y-4.44
M16
G05
G00X5.7944Y-4.2825
M15
G01X5.7156Y-4.2825
M16
G05
G00X5.7944Y-4.5187
M15
G01X5.7156Y-4.5187
M16
G05
M30
