M48
; DRILL file {KiCad 7.0.10} date Tue Feb 27 03:30:23 2024
; FORMAT={-:-/ absolute / inch / decimal}
; #@! TF.CreationDate,2024-02-27T03:30:23+03:00
; #@! TF.GenerationSoftware,Kicad,Pcbnew,7.0.10
; #@! TF.FileFunction,Plated,1,4,PTH
FMAT,2
INCH
; #@! TA.AperFunction,Plated,PTH,ViaDrill
T1C0.0157
; #@! TA.AperFunction,Plated,PTH,ComponentDrill
T2C0.0394
%
G90
G05
T1
X5.6261Y-3.6247
X5.6937Y-3.765
X5.6941Y-3.7191
X5.7173Y-3.5775
X5.8207Y-3.4154
X5.876Y-3.3246
X5.9825Y-3.2928
X6.0006Y-3.4455
X6.0281Y-3.8059
X6.0544Y-3.4951
X6.0887Y-3.3157
X6.1018Y-3.5177
X6.1064Y-3.4067
X6.2767Y-3.3472
X6.2983Y-3.4095
X6.301Y-3.3157
X6.3016Y-2.9914
X6.3589Y-3.4658
X6.3642Y-3.1536
X6.4029Y-3.4696
X6.7029Y-3.1726
X6.7035Y-3.3902
T2
X5.31Y-4.11
X5.32Y-2.8444
X5.32Y-2.9444
X5.32Y-3.37
X5.32Y-3.47
X5.32Y-3.57
X5.32Y-3.67
X5.41Y-4.11
X5.51Y-4.11
X5.61Y-4.11
X5.71Y-4.11
X5.81Y-4.11
X5.91Y-4.11
X6.01Y-4.11
X6.11Y-4.11
X6.49Y-4.11
X6.58Y-2.8506
X6.58Y-2.9506
X6.59Y-4.11
X6.68Y-2.8506
X6.68Y-2.9506
X6.69Y-4.11
X6.78Y-2.8506
X6.78Y-2.9506
X6.79Y-4.11
M30
