%TF.GenerationSoftware,KiCad,Pcbnew,7.0.10*%
%TF.CreationDate,2024-02-27T03:30:27+03:00*%
%TF.ProjectId,Arduino_Datalogger,41726475-696e-46f5-9f44-6174616c6f67,1.0*%
%TF.SameCoordinates,Original*%
%TF.FileFunction,Drillmap*%
%TF.FilePolarity,Positive*%
%FSLAX45Y45*%
G04 Gerber Fmt 4.5, Leading zero omitted, Abs format (unit mm)*
G04 Created by KiCad (PCBNEW 7.0.10) date 2024-02-27 03:30:27*
%MOMM*%
%LPD*%
G01*
G04 APERTURE LIST*
%ADD10C,0.100000*%
%ADD11C,0.200000*%
%ADD12C,0.210000*%
G04 APERTURE END LIST*
D10*
X13157200Y-10490200D02*
G75*
G03*
X13462000Y-10795000I0J-304800D01*
G01*
X17576800Y-10490200D02*
X17576800Y-7188200D01*
X13157200Y-7188200D02*
X13157200Y-10490200D01*
X17576800Y-7188200D02*
G75*
G03*
X17272000Y-6883400I0J304800D01*
G01*
X17272000Y-6883400D02*
X13462000Y-6883400D01*
X13462000Y-10795000D02*
X17272000Y-10795000D01*
X17272000Y-10795000D02*
G75*
G03*
X17576800Y-10490200I304800J0D01*
G01*
X13462000Y-6883400D02*
G75*
G03*
X13157200Y-7188200I-304800J0D01*
G01*
D11*
D12*
X13026800Y-6753000D02*
X13236800Y-6963000D01*
X13236800Y-6753000D02*
X13026800Y-6963000D01*
X13026800Y-10715400D02*
X13236800Y-10925400D01*
X13236800Y-10715400D02*
X13026800Y-10925400D01*
X17497200Y-6753000D02*
X17707200Y-6963000D01*
X17707200Y-6753000D02*
X17497200Y-6963000D01*
X17497200Y-10715400D02*
X17707200Y-10925400D01*
X17707200Y-10715400D02*
X17497200Y-10925400D01*
D11*
X13108177Y-11416284D02*
X13108177Y-11216284D01*
X13108177Y-11216284D02*
X13155796Y-11216284D01*
X13155796Y-11216284D02*
X13184367Y-11225808D01*
X13184367Y-11225808D02*
X13203415Y-11244855D01*
X13203415Y-11244855D02*
X13212939Y-11263903D01*
X13212939Y-11263903D02*
X13222462Y-11301998D01*
X13222462Y-11301998D02*
X13222462Y-11330569D01*
X13222462Y-11330569D02*
X13212939Y-11368665D01*
X13212939Y-11368665D02*
X13203415Y-11387712D01*
X13203415Y-11387712D02*
X13184367Y-11406760D01*
X13184367Y-11406760D02*
X13155796Y-11416284D01*
X13155796Y-11416284D02*
X13108177Y-11416284D01*
X13308177Y-11416284D02*
X13308177Y-11282950D01*
X13308177Y-11321046D02*
X13317701Y-11301998D01*
X13317701Y-11301998D02*
X13327224Y-11292474D01*
X13327224Y-11292474D02*
X13346272Y-11282950D01*
X13346272Y-11282950D02*
X13365320Y-11282950D01*
X13431986Y-11416284D02*
X13431986Y-11282950D01*
X13431986Y-11216284D02*
X13422462Y-11225808D01*
X13422462Y-11225808D02*
X13431986Y-11235331D01*
X13431986Y-11235331D02*
X13441510Y-11225808D01*
X13441510Y-11225808D02*
X13431986Y-11216284D01*
X13431986Y-11216284D02*
X13431986Y-11235331D01*
X13555796Y-11416284D02*
X13536748Y-11406760D01*
X13536748Y-11406760D02*
X13527224Y-11387712D01*
X13527224Y-11387712D02*
X13527224Y-11216284D01*
X13660558Y-11416284D02*
X13641510Y-11406760D01*
X13641510Y-11406760D02*
X13631986Y-11387712D01*
X13631986Y-11387712D02*
X13631986Y-11216284D01*
X13889129Y-11416284D02*
X13889129Y-11216284D01*
X13889129Y-11216284D02*
X13955796Y-11359141D01*
X13955796Y-11359141D02*
X14022462Y-11216284D01*
X14022462Y-11216284D02*
X14022462Y-11416284D01*
X14203415Y-11416284D02*
X14203415Y-11311522D01*
X14203415Y-11311522D02*
X14193891Y-11292474D01*
X14193891Y-11292474D02*
X14174843Y-11282950D01*
X14174843Y-11282950D02*
X14136748Y-11282950D01*
X14136748Y-11282950D02*
X14117701Y-11292474D01*
X14203415Y-11406760D02*
X14184367Y-11416284D01*
X14184367Y-11416284D02*
X14136748Y-11416284D01*
X14136748Y-11416284D02*
X14117701Y-11406760D01*
X14117701Y-11406760D02*
X14108177Y-11387712D01*
X14108177Y-11387712D02*
X14108177Y-11368665D01*
X14108177Y-11368665D02*
X14117701Y-11349617D01*
X14117701Y-11349617D02*
X14136748Y-11340093D01*
X14136748Y-11340093D02*
X14184367Y-11340093D01*
X14184367Y-11340093D02*
X14203415Y-11330569D01*
X14298653Y-11282950D02*
X14298653Y-11482950D01*
X14298653Y-11292474D02*
X14317701Y-11282950D01*
X14317701Y-11282950D02*
X14355796Y-11282950D01*
X14355796Y-11282950D02*
X14374843Y-11292474D01*
X14374843Y-11292474D02*
X14384367Y-11301998D01*
X14384367Y-11301998D02*
X14393891Y-11321046D01*
X14393891Y-11321046D02*
X14393891Y-11378188D01*
X14393891Y-11378188D02*
X14384367Y-11397236D01*
X14384367Y-11397236D02*
X14374843Y-11406760D01*
X14374843Y-11406760D02*
X14355796Y-11416284D01*
X14355796Y-11416284D02*
X14317701Y-11416284D01*
X14317701Y-11416284D02*
X14298653Y-11406760D01*
X14479605Y-11397236D02*
X14489129Y-11406760D01*
X14489129Y-11406760D02*
X14479605Y-11416284D01*
X14479605Y-11416284D02*
X14470082Y-11406760D01*
X14470082Y-11406760D02*
X14479605Y-11397236D01*
X14479605Y-11397236D02*
X14479605Y-11416284D01*
X14479605Y-11292474D02*
X14489129Y-11301998D01*
X14489129Y-11301998D02*
X14479605Y-11311522D01*
X14479605Y-11311522D02*
X14470082Y-11301998D01*
X14470082Y-11301998D02*
X14479605Y-11292474D01*
X14479605Y-11292474D02*
X14479605Y-11311522D01*
X12647400Y-11644800D02*
X12847400Y-11844800D01*
X12847400Y-11644800D02*
X12647400Y-11844800D01*
X13098653Y-11655331D02*
X13108177Y-11645808D01*
X13108177Y-11645808D02*
X13127224Y-11636284D01*
X13127224Y-11636284D02*
X13174843Y-11636284D01*
X13174843Y-11636284D02*
X13193891Y-11645808D01*
X13193891Y-11645808D02*
X13203415Y-11655331D01*
X13203415Y-11655331D02*
X13212939Y-11674379D01*
X13212939Y-11674379D02*
X13212939Y-11693427D01*
X13212939Y-11693427D02*
X13203415Y-11721998D01*
X13203415Y-11721998D02*
X13089129Y-11836284D01*
X13089129Y-11836284D02*
X13212939Y-11836284D01*
X13298653Y-11817236D02*
X13308177Y-11826760D01*
X13308177Y-11826760D02*
X13298653Y-11836284D01*
X13298653Y-11836284D02*
X13289129Y-11826760D01*
X13289129Y-11826760D02*
X13298653Y-11817236D01*
X13298653Y-11817236D02*
X13298653Y-11836284D01*
X13498653Y-11836284D02*
X13384367Y-11836284D01*
X13441510Y-11836284D02*
X13441510Y-11636284D01*
X13441510Y-11636284D02*
X13422462Y-11664855D01*
X13422462Y-11664855D02*
X13403415Y-11683903D01*
X13403415Y-11683903D02*
X13384367Y-11693427D01*
X13622462Y-11636284D02*
X13641510Y-11636284D01*
X13641510Y-11636284D02*
X13660558Y-11645808D01*
X13660558Y-11645808D02*
X13670082Y-11655331D01*
X13670082Y-11655331D02*
X13679605Y-11674379D01*
X13679605Y-11674379D02*
X13689129Y-11712474D01*
X13689129Y-11712474D02*
X13689129Y-11760093D01*
X13689129Y-11760093D02*
X13679605Y-11798188D01*
X13679605Y-11798188D02*
X13670082Y-11817236D01*
X13670082Y-11817236D02*
X13660558Y-11826760D01*
X13660558Y-11826760D02*
X13641510Y-11836284D01*
X13641510Y-11836284D02*
X13622462Y-11836284D01*
X13622462Y-11836284D02*
X13603415Y-11826760D01*
X13603415Y-11826760D02*
X13593891Y-11817236D01*
X13593891Y-11817236D02*
X13584367Y-11798188D01*
X13584367Y-11798188D02*
X13574843Y-11760093D01*
X13574843Y-11760093D02*
X13574843Y-11712474D01*
X13574843Y-11712474D02*
X13584367Y-11674379D01*
X13584367Y-11674379D02*
X13593891Y-11655331D01*
X13593891Y-11655331D02*
X13603415Y-11645808D01*
X13603415Y-11645808D02*
X13622462Y-11636284D01*
X13812939Y-11636284D02*
X13831986Y-11636284D01*
X13831986Y-11636284D02*
X13851034Y-11645808D01*
X13851034Y-11645808D02*
X13860558Y-11655331D01*
X13860558Y-11655331D02*
X13870082Y-11674379D01*
X13870082Y-11674379D02*
X13879605Y-11712474D01*
X13879605Y-11712474D02*
X13879605Y-11760093D01*
X13879605Y-11760093D02*
X13870082Y-11798188D01*
X13870082Y-11798188D02*
X13860558Y-11817236D01*
X13860558Y-11817236D02*
X13851034Y-11826760D01*
X13851034Y-11826760D02*
X13831986Y-11836284D01*
X13831986Y-11836284D02*
X13812939Y-11836284D01*
X13812939Y-11836284D02*
X13793891Y-11826760D01*
X13793891Y-11826760D02*
X13784367Y-11817236D01*
X13784367Y-11817236D02*
X13774843Y-11798188D01*
X13774843Y-11798188D02*
X13765320Y-11760093D01*
X13765320Y-11760093D02*
X13765320Y-11712474D01*
X13765320Y-11712474D02*
X13774843Y-11674379D01*
X13774843Y-11674379D02*
X13784367Y-11655331D01*
X13784367Y-11655331D02*
X13793891Y-11645808D01*
X13793891Y-11645808D02*
X13812939Y-11636284D01*
X13965320Y-11836284D02*
X13965320Y-11702950D01*
X13965320Y-11721998D02*
X13974843Y-11712474D01*
X13974843Y-11712474D02*
X13993891Y-11702950D01*
X13993891Y-11702950D02*
X14022463Y-11702950D01*
X14022463Y-11702950D02*
X14041510Y-11712474D01*
X14041510Y-11712474D02*
X14051034Y-11731522D01*
X14051034Y-11731522D02*
X14051034Y-11836284D01*
X14051034Y-11731522D02*
X14060558Y-11712474D01*
X14060558Y-11712474D02*
X14079605Y-11702950D01*
X14079605Y-11702950D02*
X14108177Y-11702950D01*
X14108177Y-11702950D02*
X14127224Y-11712474D01*
X14127224Y-11712474D02*
X14136748Y-11731522D01*
X14136748Y-11731522D02*
X14136748Y-11836284D01*
X14231986Y-11836284D02*
X14231986Y-11702950D01*
X14231986Y-11721998D02*
X14241510Y-11712474D01*
X14241510Y-11712474D02*
X14260558Y-11702950D01*
X14260558Y-11702950D02*
X14289129Y-11702950D01*
X14289129Y-11702950D02*
X14308177Y-11712474D01*
X14308177Y-11712474D02*
X14317701Y-11731522D01*
X14317701Y-11731522D02*
X14317701Y-11836284D01*
X14317701Y-11731522D02*
X14327224Y-11712474D01*
X14327224Y-11712474D02*
X14346272Y-11702950D01*
X14346272Y-11702950D02*
X14374843Y-11702950D01*
X14374843Y-11702950D02*
X14393891Y-11712474D01*
X14393891Y-11712474D02*
X14403415Y-11731522D01*
X14403415Y-11731522D02*
X14403415Y-11836284D01*
X14793891Y-11626760D02*
X14622463Y-11883903D01*
X15051034Y-11636284D02*
X15070082Y-11636284D01*
X15070082Y-11636284D02*
X15089129Y-11645808D01*
X15089129Y-11645808D02*
X15098653Y-11655331D01*
X15098653Y-11655331D02*
X15108177Y-11674379D01*
X15108177Y-11674379D02*
X15117701Y-11712474D01*
X15117701Y-11712474D02*
X15117701Y-11760093D01*
X15117701Y-11760093D02*
X15108177Y-11798188D01*
X15108177Y-11798188D02*
X15098653Y-11817236D01*
X15098653Y-11817236D02*
X15089129Y-11826760D01*
X15089129Y-11826760D02*
X15070082Y-11836284D01*
X15070082Y-11836284D02*
X15051034Y-11836284D01*
X15051034Y-11836284D02*
X15031986Y-11826760D01*
X15031986Y-11826760D02*
X15022463Y-11817236D01*
X15022463Y-11817236D02*
X15012939Y-11798188D01*
X15012939Y-11798188D02*
X15003415Y-11760093D01*
X15003415Y-11760093D02*
X15003415Y-11712474D01*
X15003415Y-11712474D02*
X15012939Y-11674379D01*
X15012939Y-11674379D02*
X15022463Y-11655331D01*
X15022463Y-11655331D02*
X15031986Y-11645808D01*
X15031986Y-11645808D02*
X15051034Y-11636284D01*
X15203415Y-11817236D02*
X15212939Y-11826760D01*
X15212939Y-11826760D02*
X15203415Y-11836284D01*
X15203415Y-11836284D02*
X15193891Y-11826760D01*
X15193891Y-11826760D02*
X15203415Y-11817236D01*
X15203415Y-11817236D02*
X15203415Y-11836284D01*
X15336748Y-11636284D02*
X15355796Y-11636284D01*
X15355796Y-11636284D02*
X15374844Y-11645808D01*
X15374844Y-11645808D02*
X15384367Y-11655331D01*
X15384367Y-11655331D02*
X15393891Y-11674379D01*
X15393891Y-11674379D02*
X15403415Y-11712474D01*
X15403415Y-11712474D02*
X15403415Y-11760093D01*
X15403415Y-11760093D02*
X15393891Y-11798188D01*
X15393891Y-11798188D02*
X15384367Y-11817236D01*
X15384367Y-11817236D02*
X15374844Y-11826760D01*
X15374844Y-11826760D02*
X15355796Y-11836284D01*
X15355796Y-11836284D02*
X15336748Y-11836284D01*
X15336748Y-11836284D02*
X15317701Y-11826760D01*
X15317701Y-11826760D02*
X15308177Y-11817236D01*
X15308177Y-11817236D02*
X15298653Y-11798188D01*
X15298653Y-11798188D02*
X15289129Y-11760093D01*
X15289129Y-11760093D02*
X15289129Y-11712474D01*
X15289129Y-11712474D02*
X15298653Y-11674379D01*
X15298653Y-11674379D02*
X15308177Y-11655331D01*
X15308177Y-11655331D02*
X15317701Y-11645808D01*
X15317701Y-11645808D02*
X15336748Y-11636284D01*
X15517701Y-11721998D02*
X15498653Y-11712474D01*
X15498653Y-11712474D02*
X15489129Y-11702950D01*
X15489129Y-11702950D02*
X15479606Y-11683903D01*
X15479606Y-11683903D02*
X15479606Y-11674379D01*
X15479606Y-11674379D02*
X15489129Y-11655331D01*
X15489129Y-11655331D02*
X15498653Y-11645808D01*
X15498653Y-11645808D02*
X15517701Y-11636284D01*
X15517701Y-11636284D02*
X15555796Y-11636284D01*
X15555796Y-11636284D02*
X15574844Y-11645808D01*
X15574844Y-11645808D02*
X15584367Y-11655331D01*
X15584367Y-11655331D02*
X15593891Y-11674379D01*
X15593891Y-11674379D02*
X15593891Y-11683903D01*
X15593891Y-11683903D02*
X15584367Y-11702950D01*
X15584367Y-11702950D02*
X15574844Y-11712474D01*
X15574844Y-11712474D02*
X15555796Y-11721998D01*
X15555796Y-11721998D02*
X15517701Y-11721998D01*
X15517701Y-11721998D02*
X15498653Y-11731522D01*
X15498653Y-11731522D02*
X15489129Y-11741046D01*
X15489129Y-11741046D02*
X15479606Y-11760093D01*
X15479606Y-11760093D02*
X15479606Y-11798188D01*
X15479606Y-11798188D02*
X15489129Y-11817236D01*
X15489129Y-11817236D02*
X15498653Y-11826760D01*
X15498653Y-11826760D02*
X15517701Y-11836284D01*
X15517701Y-11836284D02*
X15555796Y-11836284D01*
X15555796Y-11836284D02*
X15574844Y-11826760D01*
X15574844Y-11826760D02*
X15584367Y-11817236D01*
X15584367Y-11817236D02*
X15593891Y-11798188D01*
X15593891Y-11798188D02*
X15593891Y-11760093D01*
X15593891Y-11760093D02*
X15584367Y-11741046D01*
X15584367Y-11741046D02*
X15574844Y-11731522D01*
X15574844Y-11731522D02*
X15555796Y-11721998D01*
X15670082Y-11655331D02*
X15679606Y-11645808D01*
X15679606Y-11645808D02*
X15698653Y-11636284D01*
X15698653Y-11636284D02*
X15746272Y-11636284D01*
X15746272Y-11636284D02*
X15765320Y-11645808D01*
X15765320Y-11645808D02*
X15774844Y-11655331D01*
X15774844Y-11655331D02*
X15784367Y-11674379D01*
X15784367Y-11674379D02*
X15784367Y-11693427D01*
X15784367Y-11693427D02*
X15774844Y-11721998D01*
X15774844Y-11721998D02*
X15660558Y-11836284D01*
X15660558Y-11836284D02*
X15784367Y-11836284D01*
X15851034Y-11636284D02*
X15984367Y-11636284D01*
X15984367Y-11636284D02*
X15898653Y-11836284D01*
X16051034Y-11636284D02*
X16051034Y-11674379D01*
X16127225Y-11636284D02*
X16127225Y-11674379D01*
X16422463Y-11912474D02*
X16412939Y-11902950D01*
X16412939Y-11902950D02*
X16393891Y-11874379D01*
X16393891Y-11874379D02*
X16384368Y-11855331D01*
X16384368Y-11855331D02*
X16374844Y-11826760D01*
X16374844Y-11826760D02*
X16365320Y-11779141D01*
X16365320Y-11779141D02*
X16365320Y-11741046D01*
X16365320Y-11741046D02*
X16374844Y-11693427D01*
X16374844Y-11693427D02*
X16384368Y-11664855D01*
X16384368Y-11664855D02*
X16393891Y-11645808D01*
X16393891Y-11645808D02*
X16412939Y-11617236D01*
X16412939Y-11617236D02*
X16422463Y-11607712D01*
X16584368Y-11702950D02*
X16584368Y-11836284D01*
X16536748Y-11626760D02*
X16489129Y-11769617D01*
X16489129Y-11769617D02*
X16612939Y-11769617D01*
X16841511Y-11836284D02*
X16841511Y-11636284D01*
X16927225Y-11836284D02*
X16927225Y-11731522D01*
X16927225Y-11731522D02*
X16917701Y-11712474D01*
X16917701Y-11712474D02*
X16898653Y-11702950D01*
X16898653Y-11702950D02*
X16870082Y-11702950D01*
X16870082Y-11702950D02*
X16851034Y-11712474D01*
X16851034Y-11712474D02*
X16841511Y-11721998D01*
X17051034Y-11836284D02*
X17031987Y-11826760D01*
X17031987Y-11826760D02*
X17022463Y-11817236D01*
X17022463Y-11817236D02*
X17012939Y-11798188D01*
X17012939Y-11798188D02*
X17012939Y-11741046D01*
X17012939Y-11741046D02*
X17022463Y-11721998D01*
X17022463Y-11721998D02*
X17031987Y-11712474D01*
X17031987Y-11712474D02*
X17051034Y-11702950D01*
X17051034Y-11702950D02*
X17079606Y-11702950D01*
X17079606Y-11702950D02*
X17098653Y-11712474D01*
X17098653Y-11712474D02*
X17108177Y-11721998D01*
X17108177Y-11721998D02*
X17117701Y-11741046D01*
X17117701Y-11741046D02*
X17117701Y-11798188D01*
X17117701Y-11798188D02*
X17108177Y-11817236D01*
X17108177Y-11817236D02*
X17098653Y-11826760D01*
X17098653Y-11826760D02*
X17079606Y-11836284D01*
X17079606Y-11836284D02*
X17051034Y-11836284D01*
X17231987Y-11836284D02*
X17212939Y-11826760D01*
X17212939Y-11826760D02*
X17203415Y-11807712D01*
X17203415Y-11807712D02*
X17203415Y-11636284D01*
X17384368Y-11826760D02*
X17365320Y-11836284D01*
X17365320Y-11836284D02*
X17327225Y-11836284D01*
X17327225Y-11836284D02*
X17308177Y-11826760D01*
X17308177Y-11826760D02*
X17298653Y-11807712D01*
X17298653Y-11807712D02*
X17298653Y-11731522D01*
X17298653Y-11731522D02*
X17308177Y-11712474D01*
X17308177Y-11712474D02*
X17327225Y-11702950D01*
X17327225Y-11702950D02*
X17365320Y-11702950D01*
X17365320Y-11702950D02*
X17384368Y-11712474D01*
X17384368Y-11712474D02*
X17393892Y-11731522D01*
X17393892Y-11731522D02*
X17393892Y-11750569D01*
X17393892Y-11750569D02*
X17298653Y-11769617D01*
X17470082Y-11826760D02*
X17489130Y-11836284D01*
X17489130Y-11836284D02*
X17527225Y-11836284D01*
X17527225Y-11836284D02*
X17546273Y-11826760D01*
X17546273Y-11826760D02*
X17555796Y-11807712D01*
X17555796Y-11807712D02*
X17555796Y-11798188D01*
X17555796Y-11798188D02*
X17546273Y-11779141D01*
X17546273Y-11779141D02*
X17527225Y-11769617D01*
X17527225Y-11769617D02*
X17498653Y-11769617D01*
X17498653Y-11769617D02*
X17479606Y-11760093D01*
X17479606Y-11760093D02*
X17470082Y-11741046D01*
X17470082Y-11741046D02*
X17470082Y-11731522D01*
X17470082Y-11731522D02*
X17479606Y-11712474D01*
X17479606Y-11712474D02*
X17498653Y-11702950D01*
X17498653Y-11702950D02*
X17527225Y-11702950D01*
X17527225Y-11702950D02*
X17546273Y-11712474D01*
X17622463Y-11912474D02*
X17631987Y-11902950D01*
X17631987Y-11902950D02*
X17651034Y-11874379D01*
X17651034Y-11874379D02*
X17660558Y-11855331D01*
X17660558Y-11855331D02*
X17670082Y-11826760D01*
X17670082Y-11826760D02*
X17679606Y-11779141D01*
X17679606Y-11779141D02*
X17679606Y-11741046D01*
X17679606Y-11741046D02*
X17670082Y-11693427D01*
X17670082Y-11693427D02*
X17660558Y-11664855D01*
X17660558Y-11664855D02*
X17651034Y-11645808D01*
X17651034Y-11645808D02*
X17631987Y-11617236D01*
X17631987Y-11617236D02*
X17622463Y-11607712D01*
X17984368Y-11912474D02*
X17974844Y-11902950D01*
X17974844Y-11902950D02*
X17955796Y-11874379D01*
X17955796Y-11874379D02*
X17946273Y-11855331D01*
X17946273Y-11855331D02*
X17936749Y-11826760D01*
X17936749Y-11826760D02*
X17927225Y-11779141D01*
X17927225Y-11779141D02*
X17927225Y-11741046D01*
X17927225Y-11741046D02*
X17936749Y-11693427D01*
X17936749Y-11693427D02*
X17946273Y-11664855D01*
X17946273Y-11664855D02*
X17955796Y-11645808D01*
X17955796Y-11645808D02*
X17974844Y-11617236D01*
X17974844Y-11617236D02*
X17984368Y-11607712D01*
X18060558Y-11702950D02*
X18060558Y-11836284D01*
X18060558Y-11721998D02*
X18070082Y-11712474D01*
X18070082Y-11712474D02*
X18089130Y-11702950D01*
X18089130Y-11702950D02*
X18117701Y-11702950D01*
X18117701Y-11702950D02*
X18136749Y-11712474D01*
X18136749Y-11712474D02*
X18146273Y-11731522D01*
X18146273Y-11731522D02*
X18146273Y-11836284D01*
X18270082Y-11836284D02*
X18251034Y-11826760D01*
X18251034Y-11826760D02*
X18241511Y-11817236D01*
X18241511Y-11817236D02*
X18231987Y-11798188D01*
X18231987Y-11798188D02*
X18231987Y-11741046D01*
X18231987Y-11741046D02*
X18241511Y-11721998D01*
X18241511Y-11721998D02*
X18251034Y-11712474D01*
X18251034Y-11712474D02*
X18270082Y-11702950D01*
X18270082Y-11702950D02*
X18298654Y-11702950D01*
X18298654Y-11702950D02*
X18317701Y-11712474D01*
X18317701Y-11712474D02*
X18327225Y-11721998D01*
X18327225Y-11721998D02*
X18336749Y-11741046D01*
X18336749Y-11741046D02*
X18336749Y-11798188D01*
X18336749Y-11798188D02*
X18327225Y-11817236D01*
X18327225Y-11817236D02*
X18317701Y-11826760D01*
X18317701Y-11826760D02*
X18298654Y-11836284D01*
X18298654Y-11836284D02*
X18270082Y-11836284D01*
X18393892Y-11702950D02*
X18470082Y-11702950D01*
X18422463Y-11636284D02*
X18422463Y-11807712D01*
X18422463Y-11807712D02*
X18431987Y-11826760D01*
X18431987Y-11826760D02*
X18451034Y-11836284D01*
X18451034Y-11836284D02*
X18470082Y-11836284D01*
X18689130Y-11702950D02*
X18689130Y-11902950D01*
X18689130Y-11712474D02*
X18708177Y-11702950D01*
X18708177Y-11702950D02*
X18746273Y-11702950D01*
X18746273Y-11702950D02*
X18765320Y-11712474D01*
X18765320Y-11712474D02*
X18774844Y-11721998D01*
X18774844Y-11721998D02*
X18784368Y-11741046D01*
X18784368Y-11741046D02*
X18784368Y-11798188D01*
X18784368Y-11798188D02*
X18774844Y-11817236D01*
X18774844Y-11817236D02*
X18765320Y-11826760D01*
X18765320Y-11826760D02*
X18746273Y-11836284D01*
X18746273Y-11836284D02*
X18708177Y-11836284D01*
X18708177Y-11836284D02*
X18689130Y-11826760D01*
X18898654Y-11836284D02*
X18879606Y-11826760D01*
X18879606Y-11826760D02*
X18870082Y-11807712D01*
X18870082Y-11807712D02*
X18870082Y-11636284D01*
X19060558Y-11836284D02*
X19060558Y-11731522D01*
X19060558Y-11731522D02*
X19051035Y-11712474D01*
X19051035Y-11712474D02*
X19031987Y-11702950D01*
X19031987Y-11702950D02*
X18993892Y-11702950D01*
X18993892Y-11702950D02*
X18974844Y-11712474D01*
X19060558Y-11826760D02*
X19041511Y-11836284D01*
X19041511Y-11836284D02*
X18993892Y-11836284D01*
X18993892Y-11836284D02*
X18974844Y-11826760D01*
X18974844Y-11826760D02*
X18965320Y-11807712D01*
X18965320Y-11807712D02*
X18965320Y-11788665D01*
X18965320Y-11788665D02*
X18974844Y-11769617D01*
X18974844Y-11769617D02*
X18993892Y-11760093D01*
X18993892Y-11760093D02*
X19041511Y-11760093D01*
X19041511Y-11760093D02*
X19060558Y-11750569D01*
X19127225Y-11702950D02*
X19203415Y-11702950D01*
X19155796Y-11636284D02*
X19155796Y-11807712D01*
X19155796Y-11807712D02*
X19165320Y-11826760D01*
X19165320Y-11826760D02*
X19184368Y-11836284D01*
X19184368Y-11836284D02*
X19203415Y-11836284D01*
X19346273Y-11826760D02*
X19327225Y-11836284D01*
X19327225Y-11836284D02*
X19289130Y-11836284D01*
X19289130Y-11836284D02*
X19270082Y-11826760D01*
X19270082Y-11826760D02*
X19260558Y-11807712D01*
X19260558Y-11807712D02*
X19260558Y-11731522D01*
X19260558Y-11731522D02*
X19270082Y-11712474D01*
X19270082Y-11712474D02*
X19289130Y-11702950D01*
X19289130Y-11702950D02*
X19327225Y-11702950D01*
X19327225Y-11702950D02*
X19346273Y-11712474D01*
X19346273Y-11712474D02*
X19355796Y-11731522D01*
X19355796Y-11731522D02*
X19355796Y-11750569D01*
X19355796Y-11750569D02*
X19260558Y-11769617D01*
X19527225Y-11836284D02*
X19527225Y-11636284D01*
X19527225Y-11826760D02*
X19508177Y-11836284D01*
X19508177Y-11836284D02*
X19470082Y-11836284D01*
X19470082Y-11836284D02*
X19451035Y-11826760D01*
X19451035Y-11826760D02*
X19441511Y-11817236D01*
X19441511Y-11817236D02*
X19431987Y-11798188D01*
X19431987Y-11798188D02*
X19431987Y-11741046D01*
X19431987Y-11741046D02*
X19441511Y-11721998D01*
X19441511Y-11721998D02*
X19451035Y-11712474D01*
X19451035Y-11712474D02*
X19470082Y-11702950D01*
X19470082Y-11702950D02*
X19508177Y-11702950D01*
X19508177Y-11702950D02*
X19527225Y-11712474D01*
X19603416Y-11912474D02*
X19612939Y-11902950D01*
X19612939Y-11902950D02*
X19631987Y-11874379D01*
X19631987Y-11874379D02*
X19641511Y-11855331D01*
X19641511Y-11855331D02*
X19651035Y-11826760D01*
X19651035Y-11826760D02*
X19660558Y-11779141D01*
X19660558Y-11779141D02*
X19660558Y-11741046D01*
X19660558Y-11741046D02*
X19651035Y-11693427D01*
X19651035Y-11693427D02*
X19641511Y-11664855D01*
X19641511Y-11664855D02*
X19631987Y-11645808D01*
X19631987Y-11645808D02*
X19612939Y-11617236D01*
X19612939Y-11617236D02*
X19603416Y-11607712D01*
M02*
