%TF.GenerationSoftware,KiCad,Pcbnew,7.0.10*%
%TF.CreationDate,2024-02-27T03:30:34+03:00*%
%TF.ProjectId,Arduino_Datalogger,41726475-696e-46f5-9f44-6174616c6f67,1.0*%
%TF.SameCoordinates,Original*%
%TF.FileFunction,Copper,L1,Top*%
%TF.FilePolarity,Positive*%
%FSLAX46Y46*%
G04 Gerber Fmt 4.6, Leading zero omitted, Abs format (unit mm)*
G04 Created by KiCad (PCBNEW 7.0.10) date 2024-02-27 03:30:34*
%MOMM*%
%LPD*%
G01*
G04 APERTURE LIST*
G04 Aperture macros list*
%AMRoundRect*
0 Rectangle with rounded corners*
0 $1 Rounding radius*
0 $2 $3 $4 $5 $6 $7 $8 $9 X,Y pos of 4 corners*
0 Add a 4 corners polygon primitive as box body*
4,1,4,$2,$3,$4,$5,$6,$7,$8,$9,$2,$3,0*
0 Add four circle primitives for the rounded corners*
1,1,$1+$1,$2,$3*
1,1,$1+$1,$4,$5*
1,1,$1+$1,$6,$7*
1,1,$1+$1,$8,$9*
0 Add four rect primitives between the rounded corners*
20,1,$1+$1,$2,$3,$4,$5,0*
20,1,$1+$1,$4,$5,$6,$7,0*
20,1,$1+$1,$6,$7,$8,$9,0*
20,1,$1+$1,$8,$9,$2,$3,0*%
G04 Aperture macros list end*
%TA.AperFunction,SMDPad,CuDef*%
%ADD10RoundRect,0.048800X-0.796200X-0.256200X0.796200X-0.256200X0.796200X0.256200X-0.796200X0.256200X0*%
%TD*%
%TA.AperFunction,ComponentPad*%
%ADD11R,1.700000X1.700000*%
%TD*%
%TA.AperFunction,ComponentPad*%
%ADD12O,1.700000X1.700000*%
%TD*%
%TA.AperFunction,SMDPad,CuDef*%
%ADD13RoundRect,0.041300X-0.943700X-0.253700X0.943700X-0.253700X0.943700X0.253700X-0.943700X0.253700X0*%
%TD*%
%TA.AperFunction,SMDPad,CuDef*%
%ADD14RoundRect,0.038500X0.236500X-0.696500X0.236500X0.696500X-0.236500X0.696500X-0.236500X-0.696500X0*%
%TD*%
%TA.AperFunction,SMDPad,CuDef*%
%ADD15RoundRect,0.099000X0.636000X-0.176000X0.636000X0.176000X-0.636000X0.176000X-0.636000X-0.176000X0*%
%TD*%
%TA.AperFunction,SMDPad,CuDef*%
%ADD16RoundRect,0.243750X-0.243750X-0.456250X0.243750X-0.456250X0.243750X0.456250X-0.243750X0.456250X0*%
%TD*%
%TA.AperFunction,SMDPad,CuDef*%
%ADD17RoundRect,0.250000X-0.250000X-0.475000X0.250000X-0.475000X0.250000X0.475000X-0.250000X0.475000X0*%
%TD*%
%TA.AperFunction,SMDPad,CuDef*%
%ADD18RoundRect,0.250000X0.262500X0.450000X-0.262500X0.450000X-0.262500X-0.450000X0.262500X-0.450000X0*%
%TD*%
%TA.AperFunction,SMDPad,CuDef*%
%ADD19RoundRect,0.250000X0.450000X-0.262500X0.450000X0.262500X-0.450000X0.262500X-0.450000X-0.262500X0*%
%TD*%
%TA.AperFunction,SMDPad,CuDef*%
%ADD20RoundRect,0.250000X-0.262500X-0.450000X0.262500X-0.450000X0.262500X0.450000X-0.262500X0.450000X0*%
%TD*%
%TA.AperFunction,SMDPad,CuDef*%
%ADD21RoundRect,0.250000X-0.450000X0.262500X-0.450000X-0.262500X0.450000X-0.262500X0.450000X0.262500X0*%
%TD*%
%TA.AperFunction,SMDPad,CuDef*%
%ADD22R,2.400000X3.500000*%
%TD*%
%TA.AperFunction,ViaPad*%
%ADD23C,0.900000*%
%TD*%
%TA.AperFunction,ViaPad*%
%ADD24C,0.800000*%
%TD*%
%TA.AperFunction,Conductor*%
%ADD25C,0.350000*%
%TD*%
%TA.AperFunction,Conductor*%
%ADD26C,0.250000*%
%TD*%
G04 APERTURE END LIST*
D10*
%TO.P,U2,1,A0*%
%TO.N,/Vcc*%
X140505000Y-71755000D03*
%TO.P,U2,2,A1*%
X140505000Y-73025000D03*
%TO.P,U2,3,A2*%
X140505000Y-74295000D03*
%TO.P,U2,4,VSS*%
%TO.N,GND*%
X140505000Y-75565000D03*
%TO.P,U2,5,SDA*%
%TO.N,/SDA*%
X147785000Y-75565000D03*
%TO.P,U2,6,SCL*%
%TO.N,/SCK*%
X147785000Y-74295000D03*
%TO.P,U2,7,WP*%
%TO.N,GND*%
X147785000Y-73025000D03*
%TO.P,U2,8,VCC*%
%TO.N,/Vcc*%
X147785000Y-71755000D03*
%TD*%
D11*
%TO.P,J1,1,Pin_1*%
%TO.N,GND*%
X135128000Y-85598000D03*
D12*
%TO.P,J1,2,Pin_2*%
%TO.N,/Vcc*%
X135128000Y-88138000D03*
%TO.P,J1,3,Pin_3*%
%TO.N,/SDA*%
X135128000Y-90678000D03*
%TO.P,J1,4,Pin_4*%
%TO.N,/SCK*%
X135128000Y-93218000D03*
%TD*%
D10*
%TO.P,U5,1,A0*%
%TO.N,/Vcc*%
X140505000Y-81915000D03*
%TO.P,U5,2,A1*%
X140505000Y-83185000D03*
%TO.P,U5,3,A2*%
X140505000Y-84455000D03*
%TO.P,U5,4,VSS*%
%TO.N,GND*%
X140505000Y-85725000D03*
%TO.P,U5,5,SDA*%
%TO.N,/SDA*%
X147785000Y-85725000D03*
%TO.P,U5,6,SCL*%
%TO.N,/SCK*%
X147785000Y-84455000D03*
%TO.P,U5,7,WP*%
%TO.N,GND*%
X147785000Y-83185000D03*
%TO.P,U5,8,VCC*%
%TO.N,/Vcc*%
X147785000Y-81915000D03*
%TD*%
D13*
%TO.P,U1,1,X1*%
%TO.N,Net-(U1-X1)*%
X141289000Y-91821000D03*
%TO.P,U1,2,X2*%
%TO.N,Net-(U1-X2)*%
X141289000Y-93091000D03*
%TO.P,U1,3,~{INTA}*%
%TO.N,Net-(U1-~{INTA})*%
X141289000Y-94361000D03*
%TO.P,U1,4,GND*%
%TO.N,GND*%
X141289000Y-95631000D03*
%TO.P,U1,5,SDA*%
%TO.N,/SDA*%
X146239000Y-95631000D03*
%TO.P,U1,6,SCL*%
%TO.N,/SCK*%
X146239000Y-94361000D03*
%TO.P,U1,7,SQW/~INT*%
%TO.N,Net-(U1-SQW{slash}~INT)*%
X146239000Y-93091000D03*
%TO.P,U1,8,VCC*%
%TO.N,/Vcc*%
X146239000Y-91821000D03*
%TD*%
D14*
%TO.P,U3,1,PD3*%
%TO.N,/D3*%
X154680000Y-87990000D03*
%TO.P,U3,2,PD4*%
%TO.N,/D4*%
X155480000Y-87990000D03*
%TO.P,U3,3,GND*%
%TO.N,GND*%
X156280000Y-87990000D03*
%TO.P,U3,4,VCC*%
%TO.N,/Vcc*%
X157080000Y-87990000D03*
%TO.P,U3,5,GND*%
%TO.N,GND*%
X157880000Y-87990000D03*
%TO.P,U3,6,VCC*%
%TO.N,unconnected-(U3-VCC-Pad6)*%
X158680000Y-87990000D03*
%TO.P,U3,7,PB6*%
%TO.N,Net-(U3-PB6)*%
X159480000Y-87990000D03*
%TO.P,U3,8,PB7*%
%TO.N,Net-(U3-PB7)*%
X160280000Y-87990000D03*
D15*
%TO.P,U3,9,PD5*%
%TO.N,/D5*%
X161650000Y-86620000D03*
%TO.P,U3,10,PD6*%
%TO.N,/D6*%
X161650000Y-85820000D03*
%TO.P,U3,11,PD7*%
%TO.N,/D7*%
X161650000Y-85020000D03*
%TO.P,U3,12,PB0*%
%TO.N,/D8*%
X161650000Y-84220000D03*
%TO.P,U3,13,PB1*%
%TO.N,unconnected-(U3-PB1-Pad13)*%
X161650000Y-83420000D03*
%TO.P,U3,14,PB2*%
%TO.N,unconnected-(U3-PB2-Pad14)*%
X161650000Y-82620000D03*
%TO.P,U3,15,PB3*%
%TO.N,/MOSI*%
X161650000Y-81820000D03*
%TO.P,U3,16,PB4*%
%TO.N,/MISO*%
X161650000Y-81020000D03*
D14*
%TO.P,U3,17,PB5*%
%TO.N,/SCK*%
X160280000Y-79650000D03*
%TO.P,U3,18,AVCC*%
%TO.N,/Vcc*%
X159480000Y-79650000D03*
%TO.P,U3,19,ADC6*%
%TO.N,unconnected-(U3-ADC6-Pad19)*%
X158680000Y-79650000D03*
%TO.P,U3,20,AREF*%
%TO.N,Net-(U3-AREF)*%
X157880000Y-79650000D03*
%TO.P,U3,21,GND*%
%TO.N,GND*%
X157080000Y-79650000D03*
%TO.P,U3,22,ADC7*%
%TO.N,unconnected-(U3-ADC7-Pad22)*%
X156280000Y-79650000D03*
%TO.P,U3,23,PC0*%
%TO.N,unconnected-(U3-PC0-Pad23)*%
X155480000Y-79650000D03*
%TO.P,U3,24,PC1*%
%TO.N,unconnected-(U3-PC1-Pad24)*%
X154680000Y-79650000D03*
D15*
%TO.P,U3,25,PC2*%
%TO.N,unconnected-(U3-PC2-Pad25)*%
X153310000Y-81020000D03*
%TO.P,U3,26,PC3*%
%TO.N,unconnected-(U3-PC3-Pad26)*%
X153310000Y-81820000D03*
%TO.P,U3,27,PC4*%
%TO.N,/SDA*%
X153310000Y-82620000D03*
%TO.P,U3,28,PC5*%
%TO.N,/SCK*%
X153310000Y-83420000D03*
%TO.P,U3,29,PC6/~{RESET}*%
%TO.N,/Reset*%
X153310000Y-84220000D03*
%TO.P,U3,30,PD0*%
%TO.N,/Rx*%
X153310000Y-85020000D03*
%TO.P,U3,31,PD1*%
%TO.N,/Tx*%
X153310000Y-85820000D03*
%TO.P,U3,32,PD2*%
%TO.N,/D2*%
X153310000Y-86620000D03*
%TD*%
D11*
%TO.P,J4,1,Pin_1*%
%TO.N,/D2*%
X134874000Y-104394000D03*
D12*
%TO.P,J4,2,Pin_2*%
%TO.N,/D3*%
X137414000Y-104394000D03*
%TO.P,J4,3,Pin_3*%
%TO.N,/D4*%
X139954000Y-104394000D03*
%TO.P,J4,4,Pin_4*%
%TO.N,/D5*%
X142494000Y-104394000D03*
%TO.P,J4,5,Pin_5*%
%TO.N,/D6*%
X145034000Y-104394000D03*
%TO.P,J4,6,Pin_6*%
%TO.N,/D7*%
X147574000Y-104394000D03*
%TO.P,J4,7,Pin_7*%
%TO.N,/D8*%
X150114000Y-104394000D03*
%TO.P,J4,8,Pin_8*%
%TO.N,/Vcc*%
X152654000Y-104394000D03*
%TO.P,J4,9,Pin_9*%
%TO.N,GND*%
X155194000Y-104394000D03*
%TD*%
D16*
%TO.P,D1,1,K*%
%TO.N,Net-(D1-K)*%
X134190500Y-98288000D03*
%TO.P,D1,2,A*%
%TO.N,/SCK*%
X136065500Y-98288000D03*
%TD*%
D17*
%TO.P,C4,1*%
%TO.N,/Vcc*%
X165420000Y-94615000D03*
%TO.P,C4,2*%
%TO.N,GND*%
X167320000Y-94615000D03*
%TD*%
%TO.P,C3,1*%
%TO.N,/Vcc*%
X165420000Y-89535000D03*
%TO.P,C3,2*%
%TO.N,GND*%
X167320000Y-89535000D03*
%TD*%
%TO.P,C2,1*%
%TO.N,GND*%
X165420000Y-84455000D03*
%TO.P,C2,2*%
%TO.N,Net-(U3-PB7)*%
X167320000Y-84455000D03*
%TD*%
D18*
%TO.P,R7,1*%
%TO.N,GND*%
X144780000Y-99695000D03*
%TO.P,R7,2*%
%TO.N,Net-(D1-K)*%
X142955000Y-99695000D03*
%TD*%
D11*
%TO.P,J2,1,Pin_1*%
%TO.N,GND*%
X164846000Y-104394000D03*
D12*
%TO.P,J2,2,Pin_2*%
%TO.N,/Vcc*%
X167386000Y-104394000D03*
%TO.P,J2,3,Pin_3*%
%TO.N,/Rx*%
X169926000Y-104394000D03*
%TO.P,J2,4,Pin_4*%
%TO.N,/Tx*%
X172466000Y-104394000D03*
%TD*%
D19*
%TO.P,R6,1*%
%TO.N,Net-(D2-K)*%
X160020000Y-74295000D03*
%TO.P,R6,2*%
%TO.N,GND*%
X160020000Y-72470000D03*
%TD*%
D20*
%TO.P,R2,1*%
%TO.N,/Vcc*%
X158830000Y-93345000D03*
%TO.P,R2,2*%
%TO.N,Net-(U1-SQW{slash}~INT)*%
X160655000Y-93345000D03*
%TD*%
D21*
%TO.P,R5,1*%
%TO.N,/Vcc*%
X153924000Y-72493500D03*
%TO.P,R5,2*%
%TO.N,/SCK*%
X153924000Y-74318500D03*
%TD*%
D11*
%TO.P,J3,1,Pin_1*%
%TO.N,/MISO*%
X167132000Y-72405000D03*
D12*
%TO.P,J3,2,Pin_2*%
%TO.N,/Vcc*%
X167132000Y-74945000D03*
%TO.P,J3,3,Pin_3*%
%TO.N,/SCK*%
X169672000Y-72405000D03*
%TO.P,J3,4,Pin_4*%
%TO.N,/MOSI*%
X169672000Y-74945000D03*
%TO.P,J3,5,Pin_5*%
%TO.N,/Reset*%
X172212000Y-72405000D03*
%TO.P,J3,6,Pin_6*%
%TO.N,GND*%
X172212000Y-74945000D03*
%TD*%
D17*
%TO.P,C1,1*%
%TO.N,Net-(U3-AREF)*%
X165420000Y-79375000D03*
%TO.P,C1,2*%
%TO.N,GND*%
X167320000Y-79375000D03*
%TD*%
D11*
%TO.P,BT1,1,+*%
%TO.N,/Vcc*%
X135128000Y-72248000D03*
D12*
%TO.P,BT1,2,-*%
%TO.N,GND*%
X135128000Y-74788000D03*
%TD*%
D22*
%TO.P,Y2,1,1*%
%TO.N,Net-(U3-PB7)*%
X172085000Y-96520000D03*
%TO.P,Y2,2,2*%
%TO.N,Net-(U3-PB6)*%
X172085000Y-91320000D03*
%TD*%
D20*
%TO.P,R3,1*%
%TO.N,/Reset*%
X153115000Y-99060000D03*
%TO.P,R3,2*%
%TO.N,/Vcc*%
X154940000Y-99060000D03*
%TD*%
%TO.P,R4,1*%
%TO.N,/Vcc*%
X158830000Y-99060000D03*
%TO.P,R4,2*%
%TO.N,/SDA*%
X160655000Y-99060000D03*
%TD*%
D16*
%TO.P,D2,1,K*%
%TO.N,Net-(D2-K)*%
X134269000Y-79502000D03*
%TO.P,D2,2,A*%
%TO.N,/Vcc*%
X136144000Y-79502000D03*
%TD*%
D20*
%TO.P,R1,1*%
%TO.N,/Vcc*%
X153115000Y-93345000D03*
%TO.P,R1,2*%
%TO.N,Net-(U1-~{INTA})*%
X154940000Y-93345000D03*
%TD*%
D22*
%TO.P,Y1,1,1*%
%TO.N,Net-(U1-X1)*%
X172085000Y-85785000D03*
%TO.P,Y1,2,2*%
%TO.N,Net-(U1-X2)*%
X172085000Y-80585000D03*
%TD*%
D17*
%TO.P,C5,1*%
%TO.N,GND*%
X165420000Y-99695000D03*
%TO.P,C5,2*%
%TO.N,Net-(U3-PB6)*%
X167320000Y-99695000D03*
%TD*%
D23*
%TO.N,GND*%
X160060400Y-75981800D03*
D24*
%TO.N,/SCK*%
X149250200Y-84444400D03*
X144629300Y-94464800D03*
X151956000Y-83637600D03*
%TO.N,/SDA*%
X147845700Y-86751100D03*
X144619700Y-95631000D03*
%TO.N,/Rx*%
X159429000Y-85020000D03*
%TO.N,/Tx*%
X155101900Y-86529300D03*
%TO.N,/MISO*%
X161650000Y-80100900D03*
%TO.N,/Reset*%
X154651800Y-84220000D03*
X153115000Y-96670300D03*
%TO.N,/D2*%
X152414500Y-87515500D03*
%TO.N,/D3*%
X153781600Y-88776700D03*
%TO.N,/D4*%
X154985300Y-89350800D03*
%TO.N,/D5*%
X161515400Y-88030600D03*
%TO.N,/D6*%
X162634300Y-88128400D03*
%TO.N,/D7*%
X159978000Y-86601300D03*
%TO.N,/D8*%
X160045100Y-84220000D03*
%TO.N,Net-(U1-X1)*%
X142903000Y-92066400D03*
X170268000Y-86112200D03*
%TO.N,Net-(U1-X2)*%
X145218900Y-90869100D03*
X170252800Y-80585000D03*
%TD*%
D25*
%TO.N,/Vcc*%
X161604100Y-94471400D02*
X165276400Y-94471400D01*
X135128000Y-88138000D02*
X133852600Y-86862600D01*
X158830000Y-99060000D02*
X159956300Y-97933700D01*
X140505000Y-81915000D02*
X138557000Y-81915000D01*
X157080000Y-91022800D02*
X157080000Y-87990000D01*
X153934100Y-105674100D02*
X152654000Y-104394000D01*
X140505000Y-83185000D02*
X140505000Y-84455000D01*
X160362900Y-94877900D02*
X161197600Y-94877900D01*
X140012000Y-72248000D02*
X140505000Y-71755000D01*
X161630500Y-98366600D02*
X161630500Y-99765200D01*
X161197600Y-97933700D02*
X161197600Y-94877900D01*
X133852600Y-84493300D02*
X137494000Y-80851900D01*
X140505000Y-74295000D02*
X140505000Y-73025000D01*
X135128000Y-72248000D02*
X140012000Y-72248000D01*
X140012000Y-72248000D02*
X140012000Y-72532000D01*
X154940000Y-99060000D02*
X158830000Y-99060000D01*
X153185500Y-71755000D02*
X153924000Y-72493500D01*
X140012000Y-72532000D02*
X140505000Y-73025000D01*
X161604100Y-94471400D02*
X161604100Y-92616400D01*
X161197600Y-97933700D02*
X161630500Y-98366600D01*
X133852600Y-86862600D02*
X133852600Y-84493300D01*
X161197600Y-94877900D02*
X161604100Y-94471400D01*
X147037200Y-91022800D02*
X146239000Y-91821000D01*
X165276400Y-89678600D02*
X165420000Y-89535000D01*
X147785000Y-81915000D02*
X140505000Y-81915000D01*
X140505000Y-81915000D02*
X140505000Y-83185000D01*
X154940000Y-95170000D02*
X154940000Y-99060000D01*
X158830000Y-93345000D02*
X160362900Y-94877900D01*
X161604100Y-92616400D02*
X160010500Y-91022800D01*
X147785000Y-71755000D02*
X153185500Y-71755000D01*
X155721600Y-105674100D02*
X153934100Y-105674100D01*
X161630500Y-99765200D02*
X155721600Y-105674100D01*
X163396000Y-74945000D02*
X159480000Y-78861000D01*
X159956300Y-97933700D02*
X161197600Y-97933700D01*
X137494000Y-80851900D02*
X136144000Y-79502000D01*
X159480000Y-78861000D02*
X159480000Y-79650000D01*
X160010500Y-91022800D02*
X157080000Y-91022800D01*
X153115000Y-93345000D02*
X154940000Y-95170000D01*
X157080000Y-91022800D02*
X147037200Y-91022800D01*
X165276400Y-94471400D02*
X165276400Y-89678600D01*
X140505000Y-71755000D02*
X147785000Y-71755000D01*
X167132000Y-74945000D02*
X163396000Y-74945000D01*
X138557000Y-81915000D02*
X137494000Y-80851900D01*
X165420000Y-94615000D02*
X165276400Y-94471400D01*
%TO.N,GND*%
X161146600Y-74895600D02*
X160060400Y-75981800D01*
X161146600Y-73596600D02*
X161146600Y-74895600D01*
X135128000Y-85598000D02*
X136403300Y-85598000D01*
X167320000Y-79375000D02*
X167782000Y-79375000D01*
X139837500Y-94832500D02*
X140636000Y-95631000D01*
X135128000Y-74788000D02*
X136403300Y-74788000D01*
X147315500Y-83185000D02*
X145407500Y-85093000D01*
X167782000Y-79375000D02*
X172212000Y-74945000D01*
X156625500Y-86806400D02*
X157521300Y-86806400D01*
X156280000Y-87990000D02*
X156280000Y-87151900D01*
X157880000Y-87165100D02*
X157880000Y-87990000D01*
X143743500Y-73025000D02*
X147785000Y-73025000D01*
X140636000Y-95631000D02*
X141289000Y-95631000D01*
X164846000Y-104394000D02*
X164846000Y-103118700D01*
X150106100Y-90178600D02*
X155357900Y-90178600D01*
X160020000Y-72470000D02*
X161146600Y-73596600D01*
X165420000Y-102544700D02*
X165420000Y-99695000D01*
X167320000Y-94615000D02*
X167320000Y-89535000D01*
X155357900Y-90178600D02*
X156280000Y-89256500D01*
X165420000Y-96515000D02*
X167320000Y-94615000D01*
X160060400Y-75981800D02*
X159869100Y-75981800D01*
X157080000Y-78770900D02*
X157080000Y-79650000D01*
X139837500Y-86099900D02*
X140130100Y-86099900D01*
X167320000Y-79375000D02*
X167320000Y-82555000D01*
X145407500Y-85480000D02*
X150106100Y-90178600D01*
X137180300Y-75565000D02*
X140505000Y-75565000D01*
X141289000Y-95631000D02*
X141289000Y-96204000D01*
X165420000Y-99695000D02*
X165420000Y-96515000D01*
X157521300Y-86806400D02*
X157880000Y-87165100D01*
X167320000Y-82555000D02*
X165420000Y-84455000D01*
X150495000Y-99695000D02*
X155194000Y-104394000D01*
X139837500Y-86099900D02*
X139837500Y-94832500D01*
X164846000Y-103118700D02*
X165420000Y-102544700D01*
X145162500Y-85725000D02*
X145407500Y-85480000D01*
X139837500Y-86099900D02*
X136905200Y-86099900D01*
X140130100Y-86099900D02*
X140505000Y-85725000D01*
X144780000Y-99695000D02*
X150495000Y-99695000D01*
X136403300Y-74788000D02*
X137180300Y-75565000D01*
X156280000Y-87151900D02*
X156625500Y-86806400D01*
X145407500Y-85093000D02*
X145407500Y-85480000D01*
X140505000Y-85725000D02*
X145162500Y-85725000D01*
X156280000Y-89256500D02*
X156280000Y-87990000D01*
X141203500Y-75565000D02*
X143743500Y-73025000D01*
X141289000Y-96204000D02*
X144780000Y-99695000D01*
X159869100Y-75981800D02*
X157080000Y-78770900D01*
X140505000Y-75565000D02*
X141203500Y-75565000D01*
X147785000Y-83185000D02*
X147315500Y-83185000D01*
X136905200Y-86099900D02*
X136403300Y-85598000D01*
D26*
%TO.N,Net-(U3-AREF)*%
X160436500Y-76841500D02*
X163591400Y-73686600D01*
X163591400Y-73686600D02*
X167642200Y-73686600D01*
X167642200Y-73686600D02*
X168385400Y-74429800D01*
X165420000Y-78920700D02*
X165420000Y-79375000D01*
X157880000Y-79650000D02*
X157880000Y-78947400D01*
X168385400Y-74429800D02*
X168385400Y-75955300D01*
X157880000Y-78947400D02*
X159985900Y-76841500D01*
X168385400Y-75955300D02*
X165420000Y-78920700D01*
X159985900Y-76841500D02*
X160436500Y-76841500D01*
%TO.N,Net-(U3-PB7)*%
X173610300Y-96520000D02*
X173610300Y-89421100D01*
X172085000Y-96520000D02*
X173610300Y-96520000D01*
X170768500Y-87983200D02*
X167320000Y-84534700D01*
X160280000Y-87990000D02*
X161175300Y-88885300D01*
X161175300Y-88885300D02*
X162969400Y-88885300D01*
X162969400Y-88885300D02*
X167320000Y-84534700D01*
X173610300Y-89421100D02*
X172172400Y-87983200D01*
X172172400Y-87983200D02*
X170768500Y-87983200D01*
X167320000Y-84534700D02*
X167320000Y-84455000D01*
%TO.N,Net-(U3-PB6)*%
X169374300Y-97640700D02*
X167320000Y-99695000D01*
X159480000Y-87990000D02*
X159480000Y-88664400D01*
X160208600Y-89393000D02*
X163832400Y-89393000D01*
X167893500Y-88433600D02*
X170672300Y-91212400D01*
X169374300Y-92618000D02*
X169374300Y-97640700D01*
X170672300Y-91212400D02*
X170672300Y-91320000D01*
X163832400Y-89393000D02*
X164791800Y-88433600D01*
X172085000Y-91320000D02*
X170672300Y-91320000D01*
X164791800Y-88433600D02*
X167893500Y-88433600D01*
X170672300Y-91320000D02*
X169374300Y-92618000D01*
X159480000Y-88664400D02*
X160208600Y-89393000D01*
%TO.N,Net-(D1-K)*%
X142955000Y-99695000D02*
X135597500Y-99695000D01*
X135597500Y-99695000D02*
X134190500Y-98288000D01*
%TO.N,/SCK*%
X147795600Y-84444400D02*
X147785000Y-84455000D01*
X168127400Y-71227700D02*
X168496700Y-71597000D01*
X151956000Y-83637600D02*
X152173600Y-83420000D01*
X136065500Y-95330800D02*
X135128000Y-94393300D01*
X136065500Y-98288000D02*
X136065500Y-95330800D01*
X144629300Y-94464800D02*
X146135200Y-94464800D01*
X149250200Y-84444400D02*
X147795600Y-84444400D01*
X168496700Y-71597000D02*
X168496700Y-72405000D01*
X153924000Y-74318500D02*
X153924000Y-74295000D01*
X160280000Y-80415000D02*
X160280000Y-79650000D01*
X146135200Y-94464800D02*
X146239000Y-94361000D01*
X157275000Y-83420000D02*
X160280000Y-80415000D01*
X152173600Y-83420000D02*
X153310000Y-83420000D01*
X169672000Y-72405000D02*
X168496700Y-72405000D01*
X153924000Y-74295000D02*
X156991300Y-71227700D01*
X156991300Y-71227700D02*
X168127400Y-71227700D01*
X135128000Y-93218000D02*
X135128000Y-94393300D01*
X153310000Y-83420000D02*
X157275000Y-83420000D01*
X153924000Y-74295000D02*
X147785000Y-74295000D01*
%TO.N,Net-(D2-K)*%
X151603500Y-74925500D02*
X143908000Y-74925500D01*
X160020000Y-74295000D02*
X159146600Y-75168400D01*
X140487200Y-78346300D02*
X135424700Y-78346300D01*
X159146600Y-75168400D02*
X151846400Y-75168400D01*
X143908000Y-74925500D02*
X140487200Y-78346300D01*
X135424700Y-78346300D02*
X134269000Y-79502000D01*
X151846400Y-75168400D02*
X151603500Y-74925500D01*
%TO.N,/SDA*%
X147845700Y-86751100D02*
X147785000Y-86690400D01*
X152644700Y-100142900D02*
X148132800Y-95631000D01*
X147785000Y-85725000D02*
X149021700Y-85725000D01*
X146239000Y-95631000D02*
X144619700Y-95631000D01*
X160655000Y-99060000D02*
X159572100Y-100142900D01*
X148132800Y-95631000D02*
X146239000Y-95631000D01*
X150894100Y-83852600D02*
X150894100Y-83360500D01*
X159572100Y-100142900D02*
X152644700Y-100142900D01*
X147785000Y-86690400D02*
X147785000Y-85725000D01*
X150894100Y-83360500D02*
X151634600Y-82620000D01*
X151634600Y-82620000D02*
X151634600Y-79414600D01*
X149021700Y-85725000D02*
X150894100Y-83852600D01*
X151634600Y-82620000D02*
X153310000Y-82620000D01*
X151634600Y-79414600D02*
X147785000Y-75565000D01*
%TO.N,/Rx*%
X153310000Y-85020000D02*
X159429000Y-85020000D01*
%TO.N,/Tx*%
X154392600Y-85820000D02*
X155101900Y-86529300D01*
X153310000Y-85820000D02*
X154392600Y-85820000D01*
%TO.N,/MISO*%
X161650000Y-80100900D02*
X161650000Y-81020000D01*
%TO.N,/MOSI*%
X164558400Y-81820000D02*
X161650000Y-81820000D01*
X169672000Y-76120300D02*
X168959100Y-76120300D01*
X168959100Y-76120300D02*
X166405100Y-78674300D01*
X169672000Y-74945000D02*
X169672000Y-76120300D01*
X166405100Y-78674300D02*
X166405100Y-79973300D01*
X166405100Y-79973300D02*
X164558400Y-81820000D01*
%TO.N,/Reset*%
X153115000Y-99060000D02*
X153115000Y-96670300D01*
X154651800Y-84220000D02*
X153310000Y-84220000D01*
%TO.N,/D2*%
X152414500Y-87515500D02*
X153310000Y-86620000D01*
%TO.N,/D3*%
X153781600Y-88776700D02*
X154568300Y-87990000D01*
X154568300Y-87990000D02*
X154680000Y-87990000D01*
%TO.N,/D4*%
X155480000Y-88856100D02*
X154985300Y-89350800D01*
X155480000Y-87990000D02*
X155480000Y-88856100D01*
%TO.N,/D5*%
X161515400Y-88030600D02*
X161515400Y-86754600D01*
X161515400Y-86754600D02*
X161650000Y-86620000D01*
%TO.N,/D6*%
X162634300Y-88128400D02*
X162760100Y-88002600D01*
X162760100Y-86240700D02*
X162339400Y-85820000D01*
X162339400Y-85820000D02*
X161650000Y-85820000D01*
X162760100Y-88002600D02*
X162760100Y-86240700D01*
%TO.N,/D7*%
X161026100Y-85020000D02*
X161650000Y-85020000D01*
X159978000Y-86068100D02*
X161026100Y-85020000D01*
X159978000Y-86601300D02*
X159978000Y-86068100D01*
%TO.N,/D8*%
X161650000Y-84220000D02*
X160045100Y-84220000D01*
%TO.N,Net-(U1-~{INTA})*%
X150639600Y-93711600D02*
X141938400Y-93711600D01*
X153863000Y-92268000D02*
X152083200Y-92268000D01*
X152083200Y-92268000D02*
X150639600Y-93711600D01*
X154940000Y-93345000D02*
X153863000Y-92268000D01*
X141938400Y-93711600D02*
X141289000Y-94361000D01*
%TO.N,Net-(U1-SQW{slash}~INT)*%
X146239000Y-93091000D02*
X149884800Y-93091000D01*
X159127000Y-91817000D02*
X160655000Y-93345000D01*
X151158800Y-91817000D02*
X159127000Y-91817000D01*
X149884800Y-93091000D02*
X151158800Y-91817000D01*
%TO.N,Net-(U1-X1)*%
X142903000Y-92066400D02*
X141534400Y-92066400D01*
X172085000Y-85785000D02*
X170559700Y-85785000D01*
X170559700Y-85785000D02*
X170559700Y-85820500D01*
X141534400Y-92066400D02*
X141289000Y-91821000D01*
X170559700Y-85820500D02*
X170268000Y-86112200D01*
%TO.N,Net-(U1-X2)*%
X172085000Y-80585000D02*
X170252800Y-80585000D01*
X142997000Y-93091000D02*
X145218900Y-90869100D01*
X141289000Y-93091000D02*
X142997000Y-93091000D01*
%TD*%
M02*
