%TF.GenerationSoftware,KiCad,Pcbnew,7.0.10*%
%TF.CreationDate,2024-02-27T03:30:34+03:00*%
%TF.ProjectId,Arduino_Datalogger,41726475-696e-46f5-9f44-6174616c6f67,1.0*%
%TF.SameCoordinates,Original*%
%TF.FileFunction,Copper,L2,Inr*%
%TF.FilePolarity,Positive*%
%FSLAX46Y46*%
G04 Gerber Fmt 4.6, Leading zero omitted, Abs format (unit mm)*
G04 Created by KiCad (PCBNEW 7.0.10) date 2024-02-27 03:30:34*
%MOMM*%
%LPD*%
G01*
G04 APERTURE LIST*
%TA.AperFunction,ComponentPad*%
%ADD10R,1.700000X1.700000*%
%TD*%
%TA.AperFunction,ComponentPad*%
%ADD11O,1.700000X1.700000*%
%TD*%
%TA.AperFunction,ViaPad*%
%ADD12C,0.900000*%
%TD*%
%TA.AperFunction,ViaPad*%
%ADD13C,0.800000*%
%TD*%
%TA.AperFunction,Conductor*%
%ADD14C,0.350000*%
%TD*%
%TA.AperFunction,Conductor*%
%ADD15C,0.250000*%
%TD*%
G04 APERTURE END LIST*
D10*
%TO.N,GND*%
%TO.C,J1*%
X135128000Y-85598000D03*
D11*
%TO.N,/Vcc*%
X135128000Y-88138000D03*
%TO.N,/SDA*%
X135128000Y-90678000D03*
%TO.N,/SCK*%
X135128000Y-93218000D03*
%TD*%
D10*
%TO.N,/D2*%
%TO.C,J4*%
X134874000Y-104394000D03*
D11*
%TO.N,/D3*%
X137414000Y-104394000D03*
%TO.N,/D4*%
X139954000Y-104394000D03*
%TO.N,/D5*%
X142494000Y-104394000D03*
%TO.N,/D6*%
X145034000Y-104394000D03*
%TO.N,/D7*%
X147574000Y-104394000D03*
%TO.N,/D8*%
X150114000Y-104394000D03*
%TO.N,/Vcc*%
X152654000Y-104394000D03*
%TO.N,GND*%
X155194000Y-104394000D03*
%TD*%
D10*
%TO.N,GND*%
%TO.C,J2*%
X164846000Y-104394000D03*
D11*
%TO.N,/Vcc*%
X167386000Y-104394000D03*
%TO.N,/Rx*%
X169926000Y-104394000D03*
%TO.N,/Tx*%
X172466000Y-104394000D03*
%TD*%
D10*
%TO.N,/MISO*%
%TO.C,J3*%
X167132000Y-72405000D03*
D11*
%TO.N,/Vcc*%
X167132000Y-74945000D03*
%TO.N,/SCK*%
X169672000Y-72405000D03*
%TO.N,/MOSI*%
X169672000Y-74945000D03*
%TO.N,/Reset*%
X172212000Y-72405000D03*
%TO.N,GND*%
X172212000Y-74945000D03*
%TD*%
D10*
%TO.N,/Vcc*%
%TO.C,BT1*%
X135128000Y-72248000D03*
D11*
%TO.N,GND*%
X135128000Y-74788000D03*
%TD*%
D12*
%TO.N,GND*%
X160060400Y-75981800D03*
D13*
%TO.N,/SCK*%
X149250200Y-84444400D03*
X144629300Y-94464800D03*
X151956000Y-83637600D03*
%TO.N,/SDA*%
X147845700Y-86751100D03*
X144619700Y-95631000D03*
%TO.N,/Rx*%
X159429000Y-85020000D03*
%TO.N,/Tx*%
X155101900Y-86529300D03*
%TO.N,/MISO*%
X161650000Y-80100900D03*
%TO.N,/Reset*%
X154651800Y-84220000D03*
X153115000Y-96670300D03*
%TO.N,/D2*%
X152414500Y-87515500D03*
%TO.N,/D3*%
X153781600Y-88776700D03*
%TO.N,/D4*%
X154985300Y-89350800D03*
%TO.N,/D5*%
X161515400Y-88030600D03*
%TO.N,/D6*%
X162634300Y-88128400D03*
%TO.N,/D7*%
X159978000Y-86601300D03*
%TO.N,/D8*%
X160045100Y-84220000D03*
%TO.N,Net-(U1-X1)*%
X142903000Y-92066400D03*
X170268000Y-86112200D03*
%TO.N,Net-(U1-X2)*%
X145218900Y-90869100D03*
X170252800Y-80585000D03*
%TD*%
D14*
%TO.N,/Vcc*%
X133852600Y-86862600D02*
X135128000Y-88138000D01*
X135128000Y-72248000D02*
X133852600Y-73523400D01*
X167386000Y-76474300D02*
X167132000Y-76220300D01*
X167386000Y-104394000D02*
X167386000Y-103118700D01*
X167132000Y-74945000D02*
X167132000Y-76220300D01*
X133852600Y-73523400D02*
X133852600Y-86862600D01*
X167386000Y-103118700D02*
X167386000Y-76474300D01*
%TO.N,GND*%
X135128000Y-76063300D02*
X135128000Y-84322700D01*
X135128000Y-74788000D02*
X135128000Y-76063300D01*
X155194000Y-104394000D02*
X164846000Y-104394000D01*
X135128000Y-85598000D02*
X135128000Y-84322700D01*
D15*
%TO.N,/SDA*%
X144619700Y-95631000D02*
X143858500Y-94869800D01*
X143858500Y-90678000D02*
X136303300Y-90678000D01*
X135128000Y-90678000D02*
X136303300Y-90678000D01*
X143858500Y-90678000D02*
X147785400Y-86751100D01*
X143858500Y-94869800D02*
X143858500Y-90678000D01*
X147785400Y-86751100D02*
X147845700Y-86751100D01*
%TO.N,/Rx*%
X160703300Y-86294300D02*
X159429000Y-85020000D01*
X160703300Y-97700600D02*
X160703300Y-86294300D01*
X169926000Y-104394000D02*
X168750700Y-104394000D01*
X166071400Y-104849800D02*
X166071400Y-103068700D01*
X166071400Y-103068700D02*
X160703300Y-97700600D01*
X168750700Y-104394000D02*
X168750700Y-104798800D01*
X166853000Y-105631400D02*
X166071400Y-104849800D01*
X167918100Y-105631400D02*
X166853000Y-105631400D01*
X168750700Y-104798800D02*
X167918100Y-105631400D01*
%TO.N,/MISO*%
X167132000Y-73580300D02*
X166691300Y-73580300D01*
X166691300Y-73580300D02*
X161650000Y-78621600D01*
X161650000Y-78621600D02*
X161650000Y-80100900D01*
X167132000Y-72405000D02*
X167132000Y-73580300D01*
%TO.N,/Reset*%
X171036700Y-72405000D02*
X171036700Y-72037700D01*
X170228600Y-71229600D02*
X166122300Y-71229600D01*
X153575800Y-87650800D02*
X153043700Y-88182900D01*
X154651800Y-84220000D02*
X153575800Y-85296000D01*
X172212000Y-72405000D02*
X171036700Y-72405000D01*
X153043700Y-96599000D02*
X153115000Y-96670300D01*
X153575800Y-85296000D02*
X153575800Y-87650800D01*
X153043700Y-88182900D02*
X153043700Y-96599000D01*
X166122300Y-71229600D02*
X154651800Y-82700100D01*
X171036700Y-72037700D02*
X170228600Y-71229600D01*
X154651800Y-82700100D02*
X154651800Y-84220000D01*
%TO.N,/D7*%
X151348700Y-104831800D02*
X151348700Y-103218600D01*
X148749300Y-104394000D02*
X148749300Y-104761300D01*
X149567000Y-105579000D02*
X150601500Y-105579000D01*
X150601500Y-105579000D02*
X151348700Y-104831800D01*
X151348700Y-103218600D02*
X159978000Y-94589300D01*
X148749300Y-104761300D02*
X149567000Y-105579000D01*
X147574000Y-104394000D02*
X148749300Y-104394000D01*
X159978000Y-94589300D02*
X159978000Y-86601300D01*
%TO.N,/D8*%
X159200300Y-84220000D02*
X160045100Y-84220000D01*
X150114000Y-103218700D02*
X158401600Y-94931100D01*
X150114000Y-104394000D02*
X150114000Y-103218700D01*
X158401600Y-94931100D02*
X158401600Y-85018700D01*
X158401600Y-85018700D02*
X159200300Y-84220000D01*
%TD*%
M02*
