%TF.GenerationSoftware,KiCad,Pcbnew,7.0.10*%
%TF.CreationDate,2024-02-27T03:30:34+03:00*%
%TF.ProjectId,Arduino_Datalogger,41726475-696e-46f5-9f44-6174616c6f67,1.0*%
%TF.SameCoordinates,Original*%
%TF.FileFunction,Copper,L4,Bot*%
%TF.FilePolarity,Positive*%
%FSLAX46Y46*%
G04 Gerber Fmt 4.6, Leading zero omitted, Abs format (unit mm)*
G04 Created by KiCad (PCBNEW 7.0.10) date 2024-02-27 03:30:34*
%MOMM*%
%LPD*%
G01*
G04 APERTURE LIST*
%TA.AperFunction,ComponentPad*%
%ADD10R,1.700000X1.700000*%
%TD*%
%TA.AperFunction,ComponentPad*%
%ADD11O,1.700000X1.700000*%
%TD*%
%TA.AperFunction,ViaPad*%
%ADD12C,0.900000*%
%TD*%
%TA.AperFunction,ViaPad*%
%ADD13C,0.800000*%
%TD*%
G04 APERTURE END LIST*
D10*
%TO.P,J1,1,Pin_1*%
%TO.N,GND*%
X135128000Y-85598000D03*
D11*
%TO.P,J1,2,Pin_2*%
%TO.N,/Vcc*%
X135128000Y-88138000D03*
%TO.P,J1,3,Pin_3*%
%TO.N,/SDA*%
X135128000Y-90678000D03*
%TO.P,J1,4,Pin_4*%
%TO.N,/SCK*%
X135128000Y-93218000D03*
%TD*%
D10*
%TO.P,J4,1,Pin_1*%
%TO.N,/D2*%
X134874000Y-104394000D03*
D11*
%TO.P,J4,2,Pin_2*%
%TO.N,/D3*%
X137414000Y-104394000D03*
%TO.P,J4,3,Pin_3*%
%TO.N,/D4*%
X139954000Y-104394000D03*
%TO.P,J4,4,Pin_4*%
%TO.N,/D5*%
X142494000Y-104394000D03*
%TO.P,J4,5,Pin_5*%
%TO.N,/D6*%
X145034000Y-104394000D03*
%TO.P,J4,6,Pin_6*%
%TO.N,/D7*%
X147574000Y-104394000D03*
%TO.P,J4,7,Pin_7*%
%TO.N,/D8*%
X150114000Y-104394000D03*
%TO.P,J4,8,Pin_8*%
%TO.N,/Vcc*%
X152654000Y-104394000D03*
%TO.P,J4,9,Pin_9*%
%TO.N,GND*%
X155194000Y-104394000D03*
%TD*%
D10*
%TO.P,J2,1,Pin_1*%
%TO.N,GND*%
X164846000Y-104394000D03*
D11*
%TO.P,J2,2,Pin_2*%
%TO.N,/Vcc*%
X167386000Y-104394000D03*
%TO.P,J2,3,Pin_3*%
%TO.N,/Rx*%
X169926000Y-104394000D03*
%TO.P,J2,4,Pin_4*%
%TO.N,/Tx*%
X172466000Y-104394000D03*
%TD*%
D10*
%TO.P,J3,1,Pin_1*%
%TO.N,/MISO*%
X167132000Y-72405000D03*
D11*
%TO.P,J3,2,Pin_2*%
%TO.N,/Vcc*%
X167132000Y-74945000D03*
%TO.P,J3,3,Pin_3*%
%TO.N,/SCK*%
X169672000Y-72405000D03*
%TO.P,J3,4,Pin_4*%
%TO.N,/MOSI*%
X169672000Y-74945000D03*
%TO.P,J3,5,Pin_5*%
%TO.N,/Reset*%
X172212000Y-72405000D03*
%TO.P,J3,6,Pin_6*%
%TO.N,GND*%
X172212000Y-74945000D03*
%TD*%
D10*
%TO.P,BT1,1,+*%
%TO.N,/Vcc*%
X135128000Y-72248000D03*
D11*
%TO.P,BT1,2,-*%
%TO.N,GND*%
X135128000Y-74788000D03*
%TD*%
D12*
%TO.N,GND*%
X160060400Y-75981800D03*
D13*
%TO.N,/SCK*%
X149250200Y-84444400D03*
X144629300Y-94464800D03*
X151956000Y-83637600D03*
%TO.N,/SDA*%
X147845700Y-86751100D03*
X144619700Y-95631000D03*
%TO.N,/Rx*%
X159429000Y-85020000D03*
%TO.N,/Tx*%
X155101900Y-86529300D03*
%TO.N,/MISO*%
X161650000Y-80100900D03*
%TO.N,/Reset*%
X154651800Y-84220000D03*
X153115000Y-96670300D03*
%TO.N,/D2*%
X152414500Y-87515500D03*
%TO.N,/D3*%
X153781600Y-88776700D03*
%TO.N,/D4*%
X154985300Y-89350800D03*
%TO.N,/D5*%
X161515400Y-88030600D03*
%TO.N,/D6*%
X162634300Y-88128400D03*
%TO.N,/D7*%
X159978000Y-86601300D03*
%TO.N,/D8*%
X160045100Y-84220000D03*
%TO.N,Net-(U1-X1)*%
X142903000Y-92066400D03*
X170268000Y-86112200D03*
%TO.N,Net-(U1-X2)*%
X145218900Y-90869100D03*
X170252800Y-80585000D03*
%TD*%
M02*
