%TF.GenerationSoftware,KiCad,Pcbnew,7.0.10*%
%TF.CreationDate,2024-02-27T03:30:34+03:00*%
%TF.ProjectId,Arduino_Datalogger,41726475-696e-46f5-9f44-6174616c6f67,1.0*%
%TF.SameCoordinates,Original*%
%TF.FileFunction,Legend,Top*%
%TF.FilePolarity,Positive*%
%FSLAX46Y46*%
G04 Gerber Fmt 4.6, Leading zero omitted, Abs format (unit mm)*
G04 Created by KiCad (PCBNEW 7.0.10) date 2024-02-27 03:30:34*
%MOMM*%
%LPD*%
G01*
G04 APERTURE LIST*
%ADD10C,0.150000*%
%ADD11C,0.127000*%
%ADD12C,0.200000*%
%ADD13C,0.120000*%
G04 APERTURE END LIST*
D10*
X164627160Y-107031533D02*
X165236684Y-107031533D01*
X166836684Y-107031533D02*
X167446208Y-107031533D01*
X167141446Y-107336295D02*
X167141446Y-106726771D01*
X169503351Y-107336295D02*
X169236684Y-106955342D01*
X169046208Y-107336295D02*
X169046208Y-106536295D01*
X169046208Y-106536295D02*
X169350970Y-106536295D01*
X169350970Y-106536295D02*
X169427160Y-106574390D01*
X169427160Y-106574390D02*
X169465255Y-106612485D01*
X169465255Y-106612485D02*
X169503351Y-106688676D01*
X169503351Y-106688676D02*
X169503351Y-106802961D01*
X169503351Y-106802961D02*
X169465255Y-106879152D01*
X169465255Y-106879152D02*
X169427160Y-106917247D01*
X169427160Y-106917247D02*
X169350970Y-106955342D01*
X169350970Y-106955342D02*
X169046208Y-106955342D01*
X169770017Y-107336295D02*
X170189065Y-106802961D01*
X169770017Y-106802961D02*
X170189065Y-107336295D01*
X171598589Y-106536295D02*
X172055732Y-106536295D01*
X171827160Y-107336295D02*
X171827160Y-106536295D01*
X172246208Y-107336295D02*
X172665256Y-106802961D01*
X172246208Y-106802961D02*
X172665256Y-107336295D01*
X132337133Y-84918779D02*
X132337133Y-85680684D01*
X132337133Y-86918779D02*
X132337133Y-87680684D01*
X131956180Y-87299731D02*
X132718085Y-87299731D01*
X132003800Y-88871160D02*
X131956180Y-89014017D01*
X131956180Y-89014017D02*
X131956180Y-89252112D01*
X131956180Y-89252112D02*
X132003800Y-89347350D01*
X132003800Y-89347350D02*
X132051419Y-89394969D01*
X132051419Y-89394969D02*
X132146657Y-89442588D01*
X132146657Y-89442588D02*
X132241895Y-89442588D01*
X132241895Y-89442588D02*
X132337133Y-89394969D01*
X132337133Y-89394969D02*
X132384752Y-89347350D01*
X132384752Y-89347350D02*
X132432371Y-89252112D01*
X132432371Y-89252112D02*
X132479990Y-89061636D01*
X132479990Y-89061636D02*
X132527609Y-88966398D01*
X132527609Y-88966398D02*
X132575228Y-88918779D01*
X132575228Y-88918779D02*
X132670466Y-88871160D01*
X132670466Y-88871160D02*
X132765704Y-88871160D01*
X132765704Y-88871160D02*
X132860942Y-88918779D01*
X132860942Y-88918779D02*
X132908561Y-88966398D01*
X132908561Y-88966398D02*
X132956180Y-89061636D01*
X132956180Y-89061636D02*
X132956180Y-89299731D01*
X132956180Y-89299731D02*
X132908561Y-89442588D01*
X131956180Y-89871160D02*
X132956180Y-89871160D01*
X132956180Y-89871160D02*
X132956180Y-90109255D01*
X132956180Y-90109255D02*
X132908561Y-90252112D01*
X132908561Y-90252112D02*
X132813323Y-90347350D01*
X132813323Y-90347350D02*
X132718085Y-90394969D01*
X132718085Y-90394969D02*
X132527609Y-90442588D01*
X132527609Y-90442588D02*
X132384752Y-90442588D01*
X132384752Y-90442588D02*
X132194276Y-90394969D01*
X132194276Y-90394969D02*
X132099038Y-90347350D01*
X132099038Y-90347350D02*
X132003800Y-90252112D01*
X132003800Y-90252112D02*
X131956180Y-90109255D01*
X131956180Y-90109255D02*
X131956180Y-89871160D01*
X132241895Y-90823541D02*
X132241895Y-91299731D01*
X131956180Y-90728303D02*
X132956180Y-91061636D01*
X132956180Y-91061636D02*
X131956180Y-91394969D01*
X132003800Y-92442589D02*
X131956180Y-92585446D01*
X131956180Y-92585446D02*
X131956180Y-92823541D01*
X131956180Y-92823541D02*
X132003800Y-92918779D01*
X132003800Y-92918779D02*
X132051419Y-92966398D01*
X132051419Y-92966398D02*
X132146657Y-93014017D01*
X132146657Y-93014017D02*
X132241895Y-93014017D01*
X132241895Y-93014017D02*
X132337133Y-92966398D01*
X132337133Y-92966398D02*
X132384752Y-92918779D01*
X132384752Y-92918779D02*
X132432371Y-92823541D01*
X132432371Y-92823541D02*
X132479990Y-92633065D01*
X132479990Y-92633065D02*
X132527609Y-92537827D01*
X132527609Y-92537827D02*
X132575228Y-92490208D01*
X132575228Y-92490208D02*
X132670466Y-92442589D01*
X132670466Y-92442589D02*
X132765704Y-92442589D01*
X132765704Y-92442589D02*
X132860942Y-92490208D01*
X132860942Y-92490208D02*
X132908561Y-92537827D01*
X132908561Y-92537827D02*
X132956180Y-92633065D01*
X132956180Y-92633065D02*
X132956180Y-92871160D01*
X132956180Y-92871160D02*
X132908561Y-93014017D01*
X132051419Y-94014017D02*
X132003800Y-93966398D01*
X132003800Y-93966398D02*
X131956180Y-93823541D01*
X131956180Y-93823541D02*
X131956180Y-93728303D01*
X131956180Y-93728303D02*
X132003800Y-93585446D01*
X132003800Y-93585446D02*
X132099038Y-93490208D01*
X132099038Y-93490208D02*
X132194276Y-93442589D01*
X132194276Y-93442589D02*
X132384752Y-93394970D01*
X132384752Y-93394970D02*
X132527609Y-93394970D01*
X132527609Y-93394970D02*
X132718085Y-93442589D01*
X132718085Y-93442589D02*
X132813323Y-93490208D01*
X132813323Y-93490208D02*
X132908561Y-93585446D01*
X132908561Y-93585446D02*
X132956180Y-93728303D01*
X132956180Y-93728303D02*
X132956180Y-93823541D01*
X132956180Y-93823541D02*
X132908561Y-93966398D01*
X132908561Y-93966398D02*
X132860942Y-94014017D01*
X131956180Y-94442589D02*
X132956180Y-94442589D01*
X131956180Y-95014017D02*
X132527609Y-94585446D01*
X132956180Y-95014017D02*
X132384752Y-94442589D01*
X134655160Y-106661057D02*
X134702779Y-106613438D01*
X134702779Y-106613438D02*
X134798017Y-106565819D01*
X134798017Y-106565819D02*
X135036112Y-106565819D01*
X135036112Y-106565819D02*
X135131350Y-106613438D01*
X135131350Y-106613438D02*
X135178969Y-106661057D01*
X135178969Y-106661057D02*
X135226588Y-106756295D01*
X135226588Y-106756295D02*
X135226588Y-106851533D01*
X135226588Y-106851533D02*
X135178969Y-106994390D01*
X135178969Y-106994390D02*
X134607541Y-107565819D01*
X134607541Y-107565819D02*
X135226588Y-107565819D01*
X137083732Y-106565819D02*
X137702779Y-106565819D01*
X137702779Y-106565819D02*
X137369446Y-106946771D01*
X137369446Y-106946771D02*
X137512303Y-106946771D01*
X137512303Y-106946771D02*
X137607541Y-106994390D01*
X137607541Y-106994390D02*
X137655160Y-107042009D01*
X137655160Y-107042009D02*
X137702779Y-107137247D01*
X137702779Y-107137247D02*
X137702779Y-107375342D01*
X137702779Y-107375342D02*
X137655160Y-107470580D01*
X137655160Y-107470580D02*
X137607541Y-107518200D01*
X137607541Y-107518200D02*
X137512303Y-107565819D01*
X137512303Y-107565819D02*
X137226589Y-107565819D01*
X137226589Y-107565819D02*
X137131351Y-107518200D01*
X137131351Y-107518200D02*
X137083732Y-107470580D01*
X140083732Y-106899152D02*
X140083732Y-107565819D01*
X139845637Y-106518200D02*
X139607542Y-107232485D01*
X139607542Y-107232485D02*
X140226589Y-107232485D01*
X142607542Y-106565819D02*
X142131352Y-106565819D01*
X142131352Y-106565819D02*
X142083733Y-107042009D01*
X142083733Y-107042009D02*
X142131352Y-106994390D01*
X142131352Y-106994390D02*
X142226590Y-106946771D01*
X142226590Y-106946771D02*
X142464685Y-106946771D01*
X142464685Y-106946771D02*
X142559923Y-106994390D01*
X142559923Y-106994390D02*
X142607542Y-107042009D01*
X142607542Y-107042009D02*
X142655161Y-107137247D01*
X142655161Y-107137247D02*
X142655161Y-107375342D01*
X142655161Y-107375342D02*
X142607542Y-107470580D01*
X142607542Y-107470580D02*
X142559923Y-107518200D01*
X142559923Y-107518200D02*
X142464685Y-107565819D01*
X142464685Y-107565819D02*
X142226590Y-107565819D01*
X142226590Y-107565819D02*
X142131352Y-107518200D01*
X142131352Y-107518200D02*
X142083733Y-107470580D01*
X145036114Y-106565819D02*
X144845638Y-106565819D01*
X144845638Y-106565819D02*
X144750400Y-106613438D01*
X144750400Y-106613438D02*
X144702781Y-106661057D01*
X144702781Y-106661057D02*
X144607543Y-106803914D01*
X144607543Y-106803914D02*
X144559924Y-106994390D01*
X144559924Y-106994390D02*
X144559924Y-107375342D01*
X144559924Y-107375342D02*
X144607543Y-107470580D01*
X144607543Y-107470580D02*
X144655162Y-107518200D01*
X144655162Y-107518200D02*
X144750400Y-107565819D01*
X144750400Y-107565819D02*
X144940876Y-107565819D01*
X144940876Y-107565819D02*
X145036114Y-107518200D01*
X145036114Y-107518200D02*
X145083733Y-107470580D01*
X145083733Y-107470580D02*
X145131352Y-107375342D01*
X145131352Y-107375342D02*
X145131352Y-107137247D01*
X145131352Y-107137247D02*
X145083733Y-107042009D01*
X145083733Y-107042009D02*
X145036114Y-106994390D01*
X145036114Y-106994390D02*
X144940876Y-106946771D01*
X144940876Y-106946771D02*
X144750400Y-106946771D01*
X144750400Y-106946771D02*
X144655162Y-106994390D01*
X144655162Y-106994390D02*
X144607543Y-107042009D01*
X144607543Y-107042009D02*
X144559924Y-107137247D01*
X146988496Y-106565819D02*
X147655162Y-106565819D01*
X147655162Y-106565819D02*
X147226591Y-107565819D01*
X149702782Y-106994390D02*
X149607544Y-106946771D01*
X149607544Y-106946771D02*
X149559925Y-106899152D01*
X149559925Y-106899152D02*
X149512306Y-106803914D01*
X149512306Y-106803914D02*
X149512306Y-106756295D01*
X149512306Y-106756295D02*
X149559925Y-106661057D01*
X149559925Y-106661057D02*
X149607544Y-106613438D01*
X149607544Y-106613438D02*
X149702782Y-106565819D01*
X149702782Y-106565819D02*
X149893258Y-106565819D01*
X149893258Y-106565819D02*
X149988496Y-106613438D01*
X149988496Y-106613438D02*
X150036115Y-106661057D01*
X150036115Y-106661057D02*
X150083734Y-106756295D01*
X150083734Y-106756295D02*
X150083734Y-106803914D01*
X150083734Y-106803914D02*
X150036115Y-106899152D01*
X150036115Y-106899152D02*
X149988496Y-106946771D01*
X149988496Y-106946771D02*
X149893258Y-106994390D01*
X149893258Y-106994390D02*
X149702782Y-106994390D01*
X149702782Y-106994390D02*
X149607544Y-107042009D01*
X149607544Y-107042009D02*
X149559925Y-107089628D01*
X149559925Y-107089628D02*
X149512306Y-107184866D01*
X149512306Y-107184866D02*
X149512306Y-107375342D01*
X149512306Y-107375342D02*
X149559925Y-107470580D01*
X149559925Y-107470580D02*
X149607544Y-107518200D01*
X149607544Y-107518200D02*
X149702782Y-107565819D01*
X149702782Y-107565819D02*
X149893258Y-107565819D01*
X149893258Y-107565819D02*
X149988496Y-107518200D01*
X149988496Y-107518200D02*
X150036115Y-107470580D01*
X150036115Y-107470580D02*
X150083734Y-107375342D01*
X150083734Y-107375342D02*
X150083734Y-107184866D01*
X150083734Y-107184866D02*
X150036115Y-107089628D01*
X150036115Y-107089628D02*
X149988496Y-107042009D01*
X149988496Y-107042009D02*
X149893258Y-106994390D01*
X152036116Y-107184866D02*
X152798021Y-107184866D01*
X152417068Y-107565819D02*
X152417068Y-106803914D01*
X154798021Y-107184866D02*
X155559926Y-107184866D01*
X132337133Y-71710779D02*
X132337133Y-72472684D01*
X131956180Y-72091731D02*
X132718085Y-72091731D01*
X132337133Y-74472684D02*
X132337133Y-75234589D01*
X166635350Y-77363866D02*
X167168684Y-77363866D01*
X166902017Y-77630533D02*
X166902017Y-77097200D01*
X168568683Y-77630533D02*
X168568683Y-76930533D01*
X168568683Y-76930533D02*
X168802017Y-77430533D01*
X168802017Y-77430533D02*
X169035350Y-76930533D01*
X169035350Y-76930533D02*
X169035350Y-77630533D01*
X169502017Y-76930533D02*
X169635350Y-76930533D01*
X169635350Y-76930533D02*
X169702017Y-76963866D01*
X169702017Y-76963866D02*
X169768683Y-77030533D01*
X169768683Y-77030533D02*
X169802017Y-77163866D01*
X169802017Y-77163866D02*
X169802017Y-77397200D01*
X169802017Y-77397200D02*
X169768683Y-77530533D01*
X169768683Y-77530533D02*
X169702017Y-77597200D01*
X169702017Y-77597200D02*
X169635350Y-77630533D01*
X169635350Y-77630533D02*
X169502017Y-77630533D01*
X169502017Y-77630533D02*
X169435350Y-77597200D01*
X169435350Y-77597200D02*
X169368683Y-77530533D01*
X169368683Y-77530533D02*
X169335350Y-77397200D01*
X169335350Y-77397200D02*
X169335350Y-77163866D01*
X169335350Y-77163866D02*
X169368683Y-77030533D01*
X169368683Y-77030533D02*
X169435350Y-76963866D01*
X169435350Y-76963866D02*
X169502017Y-76930533D01*
X170068683Y-77597200D02*
X170168683Y-77630533D01*
X170168683Y-77630533D02*
X170335350Y-77630533D01*
X170335350Y-77630533D02*
X170402016Y-77597200D01*
X170402016Y-77597200D02*
X170435350Y-77563866D01*
X170435350Y-77563866D02*
X170468683Y-77497200D01*
X170468683Y-77497200D02*
X170468683Y-77430533D01*
X170468683Y-77430533D02*
X170435350Y-77363866D01*
X170435350Y-77363866D02*
X170402016Y-77330533D01*
X170402016Y-77330533D02*
X170335350Y-77297200D01*
X170335350Y-77297200D02*
X170202016Y-77263866D01*
X170202016Y-77263866D02*
X170135350Y-77230533D01*
X170135350Y-77230533D02*
X170102016Y-77197200D01*
X170102016Y-77197200D02*
X170068683Y-77130533D01*
X170068683Y-77130533D02*
X170068683Y-77063866D01*
X170068683Y-77063866D02*
X170102016Y-76997200D01*
X170102016Y-76997200D02*
X170135350Y-76963866D01*
X170135350Y-76963866D02*
X170202016Y-76930533D01*
X170202016Y-76930533D02*
X170368683Y-76930533D01*
X170368683Y-76930533D02*
X170468683Y-76963866D01*
X170768683Y-77630533D02*
X170768683Y-76930533D01*
X172168682Y-77363866D02*
X172702016Y-77363866D01*
X165873350Y-70264533D02*
X165873350Y-69564533D01*
X165873350Y-69564533D02*
X166106684Y-70064533D01*
X166106684Y-70064533D02*
X166340017Y-69564533D01*
X166340017Y-69564533D02*
X166340017Y-70264533D01*
X166673350Y-70264533D02*
X166673350Y-69564533D01*
X166973350Y-70231200D02*
X167073350Y-70264533D01*
X167073350Y-70264533D02*
X167240017Y-70264533D01*
X167240017Y-70264533D02*
X167306683Y-70231200D01*
X167306683Y-70231200D02*
X167340017Y-70197866D01*
X167340017Y-70197866D02*
X167373350Y-70131200D01*
X167373350Y-70131200D02*
X167373350Y-70064533D01*
X167373350Y-70064533D02*
X167340017Y-69997866D01*
X167340017Y-69997866D02*
X167306683Y-69964533D01*
X167306683Y-69964533D02*
X167240017Y-69931200D01*
X167240017Y-69931200D02*
X167106683Y-69897866D01*
X167106683Y-69897866D02*
X167040017Y-69864533D01*
X167040017Y-69864533D02*
X167006683Y-69831200D01*
X167006683Y-69831200D02*
X166973350Y-69764533D01*
X166973350Y-69764533D02*
X166973350Y-69697866D01*
X166973350Y-69697866D02*
X167006683Y-69631200D01*
X167006683Y-69631200D02*
X167040017Y-69597866D01*
X167040017Y-69597866D02*
X167106683Y-69564533D01*
X167106683Y-69564533D02*
X167273350Y-69564533D01*
X167273350Y-69564533D02*
X167373350Y-69597866D01*
X167806684Y-69564533D02*
X167940017Y-69564533D01*
X167940017Y-69564533D02*
X168006684Y-69597866D01*
X168006684Y-69597866D02*
X168073350Y-69664533D01*
X168073350Y-69664533D02*
X168106684Y-69797866D01*
X168106684Y-69797866D02*
X168106684Y-70031200D01*
X168106684Y-70031200D02*
X168073350Y-70164533D01*
X168073350Y-70164533D02*
X168006684Y-70231200D01*
X168006684Y-70231200D02*
X167940017Y-70264533D01*
X167940017Y-70264533D02*
X167806684Y-70264533D01*
X167806684Y-70264533D02*
X167740017Y-70231200D01*
X167740017Y-70231200D02*
X167673350Y-70164533D01*
X167673350Y-70164533D02*
X167640017Y-70031200D01*
X167640017Y-70031200D02*
X167640017Y-69797866D01*
X167640017Y-69797866D02*
X167673350Y-69664533D01*
X167673350Y-69664533D02*
X167740017Y-69597866D01*
X167740017Y-69597866D02*
X167806684Y-69564533D01*
X168906683Y-70231200D02*
X169006683Y-70264533D01*
X169006683Y-70264533D02*
X169173350Y-70264533D01*
X169173350Y-70264533D02*
X169240016Y-70231200D01*
X169240016Y-70231200D02*
X169273350Y-70197866D01*
X169273350Y-70197866D02*
X169306683Y-70131200D01*
X169306683Y-70131200D02*
X169306683Y-70064533D01*
X169306683Y-70064533D02*
X169273350Y-69997866D01*
X169273350Y-69997866D02*
X169240016Y-69964533D01*
X169240016Y-69964533D02*
X169173350Y-69931200D01*
X169173350Y-69931200D02*
X169040016Y-69897866D01*
X169040016Y-69897866D02*
X168973350Y-69864533D01*
X168973350Y-69864533D02*
X168940016Y-69831200D01*
X168940016Y-69831200D02*
X168906683Y-69764533D01*
X168906683Y-69764533D02*
X168906683Y-69697866D01*
X168906683Y-69697866D02*
X168940016Y-69631200D01*
X168940016Y-69631200D02*
X168973350Y-69597866D01*
X168973350Y-69597866D02*
X169040016Y-69564533D01*
X169040016Y-69564533D02*
X169206683Y-69564533D01*
X169206683Y-69564533D02*
X169306683Y-69597866D01*
X170006683Y-70197866D02*
X169973350Y-70231200D01*
X169973350Y-70231200D02*
X169873350Y-70264533D01*
X169873350Y-70264533D02*
X169806683Y-70264533D01*
X169806683Y-70264533D02*
X169706683Y-70231200D01*
X169706683Y-70231200D02*
X169640017Y-70164533D01*
X169640017Y-70164533D02*
X169606683Y-70097866D01*
X169606683Y-70097866D02*
X169573350Y-69964533D01*
X169573350Y-69964533D02*
X169573350Y-69864533D01*
X169573350Y-69864533D02*
X169606683Y-69731200D01*
X169606683Y-69731200D02*
X169640017Y-69664533D01*
X169640017Y-69664533D02*
X169706683Y-69597866D01*
X169706683Y-69597866D02*
X169806683Y-69564533D01*
X169806683Y-69564533D02*
X169873350Y-69564533D01*
X169873350Y-69564533D02*
X169973350Y-69597866D01*
X169973350Y-69597866D02*
X170006683Y-69631200D01*
X170306683Y-70264533D02*
X170306683Y-69564533D01*
X170706683Y-70264533D02*
X170406683Y-69864533D01*
X170706683Y-69564533D02*
X170306683Y-69964533D01*
X171940016Y-70264533D02*
X171706683Y-69931200D01*
X171540016Y-70264533D02*
X171540016Y-69564533D01*
X171540016Y-69564533D02*
X171806683Y-69564533D01*
X171806683Y-69564533D02*
X171873350Y-69597866D01*
X171873350Y-69597866D02*
X171906683Y-69631200D01*
X171906683Y-69631200D02*
X171940016Y-69697866D01*
X171940016Y-69697866D02*
X171940016Y-69797866D01*
X171940016Y-69797866D02*
X171906683Y-69864533D01*
X171906683Y-69864533D02*
X171873350Y-69897866D01*
X171873350Y-69897866D02*
X171806683Y-69931200D01*
X171806683Y-69931200D02*
X171540016Y-69931200D01*
X172206683Y-70231200D02*
X172306683Y-70264533D01*
X172306683Y-70264533D02*
X172473350Y-70264533D01*
X172473350Y-70264533D02*
X172540016Y-70231200D01*
X172540016Y-70231200D02*
X172573350Y-70197866D01*
X172573350Y-70197866D02*
X172606683Y-70131200D01*
X172606683Y-70131200D02*
X172606683Y-70064533D01*
X172606683Y-70064533D02*
X172573350Y-69997866D01*
X172573350Y-69997866D02*
X172540016Y-69964533D01*
X172540016Y-69964533D02*
X172473350Y-69931200D01*
X172473350Y-69931200D02*
X172340016Y-69897866D01*
X172340016Y-69897866D02*
X172273350Y-69864533D01*
X172273350Y-69864533D02*
X172240016Y-69831200D01*
X172240016Y-69831200D02*
X172206683Y-69764533D01*
X172206683Y-69764533D02*
X172206683Y-69697866D01*
X172206683Y-69697866D02*
X172240016Y-69631200D01*
X172240016Y-69631200D02*
X172273350Y-69597866D01*
X172273350Y-69597866D02*
X172340016Y-69564533D01*
X172340016Y-69564533D02*
X172506683Y-69564533D01*
X172506683Y-69564533D02*
X172606683Y-69597866D01*
X172806683Y-69564533D02*
X173206683Y-69564533D01*
X173006683Y-70264533D02*
X173006683Y-69564533D01*
X143383095Y-69304819D02*
X143383095Y-70114342D01*
X143383095Y-70114342D02*
X143430714Y-70209580D01*
X143430714Y-70209580D02*
X143478333Y-70257200D01*
X143478333Y-70257200D02*
X143573571Y-70304819D01*
X143573571Y-70304819D02*
X143764047Y-70304819D01*
X143764047Y-70304819D02*
X143859285Y-70257200D01*
X143859285Y-70257200D02*
X143906904Y-70209580D01*
X143906904Y-70209580D02*
X143954523Y-70114342D01*
X143954523Y-70114342D02*
X143954523Y-69304819D01*
X144383095Y-69400057D02*
X144430714Y-69352438D01*
X144430714Y-69352438D02*
X144525952Y-69304819D01*
X144525952Y-69304819D02*
X144764047Y-69304819D01*
X144764047Y-69304819D02*
X144859285Y-69352438D01*
X144859285Y-69352438D02*
X144906904Y-69400057D01*
X144906904Y-69400057D02*
X144954523Y-69495295D01*
X144954523Y-69495295D02*
X144954523Y-69590533D01*
X144954523Y-69590533D02*
X144906904Y-69733390D01*
X144906904Y-69733390D02*
X144335476Y-70304819D01*
X144335476Y-70304819D02*
X144954523Y-70304819D01*
X138287857Y-77020057D02*
X138335476Y-76972438D01*
X138335476Y-76972438D02*
X138430714Y-76924819D01*
X138430714Y-76924819D02*
X138668809Y-76924819D01*
X138668809Y-76924819D02*
X138764047Y-76972438D01*
X138764047Y-76972438D02*
X138811666Y-77020057D01*
X138811666Y-77020057D02*
X138859285Y-77115295D01*
X138859285Y-77115295D02*
X138859285Y-77210533D01*
X138859285Y-77210533D02*
X138811666Y-77353390D01*
X138811666Y-77353390D02*
X138240238Y-77924819D01*
X138240238Y-77924819D02*
X138859285Y-77924819D01*
X139716428Y-77258152D02*
X139716428Y-77924819D01*
X139478333Y-76877200D02*
X139240238Y-77591485D01*
X139240238Y-77591485D02*
X139859285Y-77591485D01*
X140716428Y-77924819D02*
X140240238Y-77924819D01*
X140240238Y-77924819D02*
X140240238Y-76924819D01*
X141621190Y-77829580D02*
X141573571Y-77877200D01*
X141573571Y-77877200D02*
X141430714Y-77924819D01*
X141430714Y-77924819D02*
X141335476Y-77924819D01*
X141335476Y-77924819D02*
X141192619Y-77877200D01*
X141192619Y-77877200D02*
X141097381Y-77781961D01*
X141097381Y-77781961D02*
X141049762Y-77686723D01*
X141049762Y-77686723D02*
X141002143Y-77496247D01*
X141002143Y-77496247D02*
X141002143Y-77353390D01*
X141002143Y-77353390D02*
X141049762Y-77162914D01*
X141049762Y-77162914D02*
X141097381Y-77067676D01*
X141097381Y-77067676D02*
X141192619Y-76972438D01*
X141192619Y-76972438D02*
X141335476Y-76924819D01*
X141335476Y-76924819D02*
X141430714Y-76924819D01*
X141430714Y-76924819D02*
X141573571Y-76972438D01*
X141573571Y-76972438D02*
X141621190Y-77020057D01*
X142573571Y-77924819D02*
X142002143Y-77924819D01*
X142287857Y-77924819D02*
X142287857Y-76924819D01*
X142287857Y-76924819D02*
X142192619Y-77067676D01*
X142192619Y-77067676D02*
X142097381Y-77162914D01*
X142097381Y-77162914D02*
X142002143Y-77210533D01*
X143192619Y-76924819D02*
X143287857Y-76924819D01*
X143287857Y-76924819D02*
X143383095Y-76972438D01*
X143383095Y-76972438D02*
X143430714Y-77020057D01*
X143430714Y-77020057D02*
X143478333Y-77115295D01*
X143478333Y-77115295D02*
X143525952Y-77305771D01*
X143525952Y-77305771D02*
X143525952Y-77543866D01*
X143525952Y-77543866D02*
X143478333Y-77734342D01*
X143478333Y-77734342D02*
X143430714Y-77829580D01*
X143430714Y-77829580D02*
X143383095Y-77877200D01*
X143383095Y-77877200D02*
X143287857Y-77924819D01*
X143287857Y-77924819D02*
X143192619Y-77924819D01*
X143192619Y-77924819D02*
X143097381Y-77877200D01*
X143097381Y-77877200D02*
X143049762Y-77829580D01*
X143049762Y-77829580D02*
X143002143Y-77734342D01*
X143002143Y-77734342D02*
X142954524Y-77543866D01*
X142954524Y-77543866D02*
X142954524Y-77305771D01*
X142954524Y-77305771D02*
X143002143Y-77115295D01*
X143002143Y-77115295D02*
X143049762Y-77020057D01*
X143049762Y-77020057D02*
X143097381Y-76972438D01*
X143097381Y-76972438D02*
X143192619Y-76924819D01*
X143906905Y-77020057D02*
X143954524Y-76972438D01*
X143954524Y-76972438D02*
X144049762Y-76924819D01*
X144049762Y-76924819D02*
X144287857Y-76924819D01*
X144287857Y-76924819D02*
X144383095Y-76972438D01*
X144383095Y-76972438D02*
X144430714Y-77020057D01*
X144430714Y-77020057D02*
X144478333Y-77115295D01*
X144478333Y-77115295D02*
X144478333Y-77210533D01*
X144478333Y-77210533D02*
X144430714Y-77353390D01*
X144430714Y-77353390D02*
X143859286Y-77924819D01*
X143859286Y-77924819D02*
X144478333Y-77924819D01*
X145383095Y-76924819D02*
X144906905Y-76924819D01*
X144906905Y-76924819D02*
X144859286Y-77401009D01*
X144859286Y-77401009D02*
X144906905Y-77353390D01*
X144906905Y-77353390D02*
X145002143Y-77305771D01*
X145002143Y-77305771D02*
X145240238Y-77305771D01*
X145240238Y-77305771D02*
X145335476Y-77353390D01*
X145335476Y-77353390D02*
X145383095Y-77401009D01*
X145383095Y-77401009D02*
X145430714Y-77496247D01*
X145430714Y-77496247D02*
X145430714Y-77734342D01*
X145430714Y-77734342D02*
X145383095Y-77829580D01*
X145383095Y-77829580D02*
X145335476Y-77877200D01*
X145335476Y-77877200D02*
X145240238Y-77924819D01*
X145240238Y-77924819D02*
X145002143Y-77924819D01*
X145002143Y-77924819D02*
X144906905Y-77877200D01*
X144906905Y-77877200D02*
X144859286Y-77829580D01*
X145859286Y-77543866D02*
X146621191Y-77543866D01*
X147097381Y-77924819D02*
X147097381Y-76924819D01*
X147335476Y-78020057D02*
X148097380Y-78020057D01*
X148287857Y-77877200D02*
X148430714Y-77924819D01*
X148430714Y-77924819D02*
X148668809Y-77924819D01*
X148668809Y-77924819D02*
X148764047Y-77877200D01*
X148764047Y-77877200D02*
X148811666Y-77829580D01*
X148811666Y-77829580D02*
X148859285Y-77734342D01*
X148859285Y-77734342D02*
X148859285Y-77639104D01*
X148859285Y-77639104D02*
X148811666Y-77543866D01*
X148811666Y-77543866D02*
X148764047Y-77496247D01*
X148764047Y-77496247D02*
X148668809Y-77448628D01*
X148668809Y-77448628D02*
X148478333Y-77401009D01*
X148478333Y-77401009D02*
X148383095Y-77353390D01*
X148383095Y-77353390D02*
X148335476Y-77305771D01*
X148335476Y-77305771D02*
X148287857Y-77210533D01*
X148287857Y-77210533D02*
X148287857Y-77115295D01*
X148287857Y-77115295D02*
X148335476Y-77020057D01*
X148335476Y-77020057D02*
X148383095Y-76972438D01*
X148383095Y-76972438D02*
X148478333Y-76924819D01*
X148478333Y-76924819D02*
X148716428Y-76924819D01*
X148716428Y-76924819D02*
X148859285Y-76972438D01*
X149287857Y-77924819D02*
X149287857Y-76924819D01*
X149287857Y-76924819D02*
X149621190Y-77639104D01*
X149621190Y-77639104D02*
X149954523Y-76924819D01*
X149954523Y-76924819D02*
X149954523Y-77924819D01*
X134794666Y-82629819D02*
X134794666Y-83344104D01*
X134794666Y-83344104D02*
X134747047Y-83486961D01*
X134747047Y-83486961D02*
X134651809Y-83582200D01*
X134651809Y-83582200D02*
X134508952Y-83629819D01*
X134508952Y-83629819D02*
X134413714Y-83629819D01*
X135794666Y-83629819D02*
X135223238Y-83629819D01*
X135508952Y-83629819D02*
X135508952Y-82629819D01*
X135508952Y-82629819D02*
X135413714Y-82772676D01*
X135413714Y-82772676D02*
X135318476Y-82867914D01*
X135318476Y-82867914D02*
X135223238Y-82915533D01*
X143383095Y-79464819D02*
X143383095Y-80274342D01*
X143383095Y-80274342D02*
X143430714Y-80369580D01*
X143430714Y-80369580D02*
X143478333Y-80417200D01*
X143478333Y-80417200D02*
X143573571Y-80464819D01*
X143573571Y-80464819D02*
X143764047Y-80464819D01*
X143764047Y-80464819D02*
X143859285Y-80417200D01*
X143859285Y-80417200D02*
X143906904Y-80369580D01*
X143906904Y-80369580D02*
X143954523Y-80274342D01*
X143954523Y-80274342D02*
X143954523Y-79464819D01*
X144906904Y-79464819D02*
X144430714Y-79464819D01*
X144430714Y-79464819D02*
X144383095Y-79941009D01*
X144383095Y-79941009D02*
X144430714Y-79893390D01*
X144430714Y-79893390D02*
X144525952Y-79845771D01*
X144525952Y-79845771D02*
X144764047Y-79845771D01*
X144764047Y-79845771D02*
X144859285Y-79893390D01*
X144859285Y-79893390D02*
X144906904Y-79941009D01*
X144906904Y-79941009D02*
X144954523Y-80036247D01*
X144954523Y-80036247D02*
X144954523Y-80274342D01*
X144954523Y-80274342D02*
X144906904Y-80369580D01*
X144906904Y-80369580D02*
X144859285Y-80417200D01*
X144859285Y-80417200D02*
X144764047Y-80464819D01*
X144764047Y-80464819D02*
X144525952Y-80464819D01*
X144525952Y-80464819D02*
X144430714Y-80417200D01*
X144430714Y-80417200D02*
X144383095Y-80369580D01*
X138287857Y-87180057D02*
X138335476Y-87132438D01*
X138335476Y-87132438D02*
X138430714Y-87084819D01*
X138430714Y-87084819D02*
X138668809Y-87084819D01*
X138668809Y-87084819D02*
X138764047Y-87132438D01*
X138764047Y-87132438D02*
X138811666Y-87180057D01*
X138811666Y-87180057D02*
X138859285Y-87275295D01*
X138859285Y-87275295D02*
X138859285Y-87370533D01*
X138859285Y-87370533D02*
X138811666Y-87513390D01*
X138811666Y-87513390D02*
X138240238Y-88084819D01*
X138240238Y-88084819D02*
X138859285Y-88084819D01*
X139716428Y-87418152D02*
X139716428Y-88084819D01*
X139478333Y-87037200D02*
X139240238Y-87751485D01*
X139240238Y-87751485D02*
X139859285Y-87751485D01*
X140716428Y-88084819D02*
X140240238Y-88084819D01*
X140240238Y-88084819D02*
X140240238Y-87084819D01*
X141621190Y-87989580D02*
X141573571Y-88037200D01*
X141573571Y-88037200D02*
X141430714Y-88084819D01*
X141430714Y-88084819D02*
X141335476Y-88084819D01*
X141335476Y-88084819D02*
X141192619Y-88037200D01*
X141192619Y-88037200D02*
X141097381Y-87941961D01*
X141097381Y-87941961D02*
X141049762Y-87846723D01*
X141049762Y-87846723D02*
X141002143Y-87656247D01*
X141002143Y-87656247D02*
X141002143Y-87513390D01*
X141002143Y-87513390D02*
X141049762Y-87322914D01*
X141049762Y-87322914D02*
X141097381Y-87227676D01*
X141097381Y-87227676D02*
X141192619Y-87132438D01*
X141192619Y-87132438D02*
X141335476Y-87084819D01*
X141335476Y-87084819D02*
X141430714Y-87084819D01*
X141430714Y-87084819D02*
X141573571Y-87132438D01*
X141573571Y-87132438D02*
X141621190Y-87180057D01*
X142573571Y-88084819D02*
X142002143Y-88084819D01*
X142287857Y-88084819D02*
X142287857Y-87084819D01*
X142287857Y-87084819D02*
X142192619Y-87227676D01*
X142192619Y-87227676D02*
X142097381Y-87322914D01*
X142097381Y-87322914D02*
X142002143Y-87370533D01*
X143192619Y-87084819D02*
X143287857Y-87084819D01*
X143287857Y-87084819D02*
X143383095Y-87132438D01*
X143383095Y-87132438D02*
X143430714Y-87180057D01*
X143430714Y-87180057D02*
X143478333Y-87275295D01*
X143478333Y-87275295D02*
X143525952Y-87465771D01*
X143525952Y-87465771D02*
X143525952Y-87703866D01*
X143525952Y-87703866D02*
X143478333Y-87894342D01*
X143478333Y-87894342D02*
X143430714Y-87989580D01*
X143430714Y-87989580D02*
X143383095Y-88037200D01*
X143383095Y-88037200D02*
X143287857Y-88084819D01*
X143287857Y-88084819D02*
X143192619Y-88084819D01*
X143192619Y-88084819D02*
X143097381Y-88037200D01*
X143097381Y-88037200D02*
X143049762Y-87989580D01*
X143049762Y-87989580D02*
X143002143Y-87894342D01*
X143002143Y-87894342D02*
X142954524Y-87703866D01*
X142954524Y-87703866D02*
X142954524Y-87465771D01*
X142954524Y-87465771D02*
X143002143Y-87275295D01*
X143002143Y-87275295D02*
X143049762Y-87180057D01*
X143049762Y-87180057D02*
X143097381Y-87132438D01*
X143097381Y-87132438D02*
X143192619Y-87084819D01*
X143906905Y-87180057D02*
X143954524Y-87132438D01*
X143954524Y-87132438D02*
X144049762Y-87084819D01*
X144049762Y-87084819D02*
X144287857Y-87084819D01*
X144287857Y-87084819D02*
X144383095Y-87132438D01*
X144383095Y-87132438D02*
X144430714Y-87180057D01*
X144430714Y-87180057D02*
X144478333Y-87275295D01*
X144478333Y-87275295D02*
X144478333Y-87370533D01*
X144478333Y-87370533D02*
X144430714Y-87513390D01*
X144430714Y-87513390D02*
X143859286Y-88084819D01*
X143859286Y-88084819D02*
X144478333Y-88084819D01*
X145383095Y-87084819D02*
X144906905Y-87084819D01*
X144906905Y-87084819D02*
X144859286Y-87561009D01*
X144859286Y-87561009D02*
X144906905Y-87513390D01*
X144906905Y-87513390D02*
X145002143Y-87465771D01*
X145002143Y-87465771D02*
X145240238Y-87465771D01*
X145240238Y-87465771D02*
X145335476Y-87513390D01*
X145335476Y-87513390D02*
X145383095Y-87561009D01*
X145383095Y-87561009D02*
X145430714Y-87656247D01*
X145430714Y-87656247D02*
X145430714Y-87894342D01*
X145430714Y-87894342D02*
X145383095Y-87989580D01*
X145383095Y-87989580D02*
X145335476Y-88037200D01*
X145335476Y-88037200D02*
X145240238Y-88084819D01*
X145240238Y-88084819D02*
X145002143Y-88084819D01*
X145002143Y-88084819D02*
X144906905Y-88037200D01*
X144906905Y-88037200D02*
X144859286Y-87989580D01*
X145859286Y-87703866D02*
X146621191Y-87703866D01*
X147097381Y-88084819D02*
X147097381Y-87084819D01*
X147335476Y-88180057D02*
X148097380Y-88180057D01*
X148287857Y-88037200D02*
X148430714Y-88084819D01*
X148430714Y-88084819D02*
X148668809Y-88084819D01*
X148668809Y-88084819D02*
X148764047Y-88037200D01*
X148764047Y-88037200D02*
X148811666Y-87989580D01*
X148811666Y-87989580D02*
X148859285Y-87894342D01*
X148859285Y-87894342D02*
X148859285Y-87799104D01*
X148859285Y-87799104D02*
X148811666Y-87703866D01*
X148811666Y-87703866D02*
X148764047Y-87656247D01*
X148764047Y-87656247D02*
X148668809Y-87608628D01*
X148668809Y-87608628D02*
X148478333Y-87561009D01*
X148478333Y-87561009D02*
X148383095Y-87513390D01*
X148383095Y-87513390D02*
X148335476Y-87465771D01*
X148335476Y-87465771D02*
X148287857Y-87370533D01*
X148287857Y-87370533D02*
X148287857Y-87275295D01*
X148287857Y-87275295D02*
X148335476Y-87180057D01*
X148335476Y-87180057D02*
X148383095Y-87132438D01*
X148383095Y-87132438D02*
X148478333Y-87084819D01*
X148478333Y-87084819D02*
X148716428Y-87084819D01*
X148716428Y-87084819D02*
X148859285Y-87132438D01*
X149287857Y-88084819D02*
X149287857Y-87084819D01*
X149287857Y-87084819D02*
X149621190Y-87799104D01*
X149621190Y-87799104D02*
X149954523Y-87084819D01*
X149954523Y-87084819D02*
X149954523Y-88084819D01*
X139192095Y-89370819D02*
X139192095Y-90180342D01*
X139192095Y-90180342D02*
X139239714Y-90275580D01*
X139239714Y-90275580D02*
X139287333Y-90323200D01*
X139287333Y-90323200D02*
X139382571Y-90370819D01*
X139382571Y-90370819D02*
X139573047Y-90370819D01*
X139573047Y-90370819D02*
X139668285Y-90323200D01*
X139668285Y-90323200D02*
X139715904Y-90275580D01*
X139715904Y-90275580D02*
X139763523Y-90180342D01*
X139763523Y-90180342D02*
X139763523Y-89370819D01*
X140763523Y-90370819D02*
X140192095Y-90370819D01*
X140477809Y-90370819D02*
X140477809Y-89370819D01*
X140477809Y-89370819D02*
X140382571Y-89513676D01*
X140382571Y-89513676D02*
X140287333Y-89608914D01*
X140287333Y-89608914D02*
X140192095Y-89656533D01*
X141534000Y-90370819D02*
X141534000Y-89370819D01*
X141534000Y-89370819D02*
X141772095Y-89370819D01*
X141772095Y-89370819D02*
X141914952Y-89418438D01*
X141914952Y-89418438D02*
X142010190Y-89513676D01*
X142010190Y-89513676D02*
X142057809Y-89608914D01*
X142057809Y-89608914D02*
X142105428Y-89799390D01*
X142105428Y-89799390D02*
X142105428Y-89942247D01*
X142105428Y-89942247D02*
X142057809Y-90132723D01*
X142057809Y-90132723D02*
X142010190Y-90227961D01*
X142010190Y-90227961D02*
X141914952Y-90323200D01*
X141914952Y-90323200D02*
X141772095Y-90370819D01*
X141772095Y-90370819D02*
X141534000Y-90370819D01*
X142486381Y-90323200D02*
X142629238Y-90370819D01*
X142629238Y-90370819D02*
X142867333Y-90370819D01*
X142867333Y-90370819D02*
X142962571Y-90323200D01*
X142962571Y-90323200D02*
X143010190Y-90275580D01*
X143010190Y-90275580D02*
X143057809Y-90180342D01*
X143057809Y-90180342D02*
X143057809Y-90085104D01*
X143057809Y-90085104D02*
X143010190Y-89989866D01*
X143010190Y-89989866D02*
X142962571Y-89942247D01*
X142962571Y-89942247D02*
X142867333Y-89894628D01*
X142867333Y-89894628D02*
X142676857Y-89847009D01*
X142676857Y-89847009D02*
X142581619Y-89799390D01*
X142581619Y-89799390D02*
X142534000Y-89751771D01*
X142534000Y-89751771D02*
X142486381Y-89656533D01*
X142486381Y-89656533D02*
X142486381Y-89561295D01*
X142486381Y-89561295D02*
X142534000Y-89466057D01*
X142534000Y-89466057D02*
X142581619Y-89418438D01*
X142581619Y-89418438D02*
X142676857Y-89370819D01*
X142676857Y-89370819D02*
X142914952Y-89370819D01*
X142914952Y-89370819D02*
X143057809Y-89418438D01*
X144010190Y-90370819D02*
X143438762Y-90370819D01*
X143724476Y-90370819D02*
X143724476Y-89370819D01*
X143724476Y-89370819D02*
X143629238Y-89513676D01*
X143629238Y-89513676D02*
X143534000Y-89608914D01*
X143534000Y-89608914D02*
X143438762Y-89656533D01*
X144343524Y-89370819D02*
X144962571Y-89370819D01*
X144962571Y-89370819D02*
X144629238Y-89751771D01*
X144629238Y-89751771D02*
X144772095Y-89751771D01*
X144772095Y-89751771D02*
X144867333Y-89799390D01*
X144867333Y-89799390D02*
X144914952Y-89847009D01*
X144914952Y-89847009D02*
X144962571Y-89942247D01*
X144962571Y-89942247D02*
X144962571Y-90180342D01*
X144962571Y-90180342D02*
X144914952Y-90275580D01*
X144914952Y-90275580D02*
X144867333Y-90323200D01*
X144867333Y-90323200D02*
X144772095Y-90370819D01*
X144772095Y-90370819D02*
X144486381Y-90370819D01*
X144486381Y-90370819D02*
X144391143Y-90323200D01*
X144391143Y-90323200D02*
X144343524Y-90275580D01*
X145295905Y-89370819D02*
X145914952Y-89370819D01*
X145914952Y-89370819D02*
X145581619Y-89751771D01*
X145581619Y-89751771D02*
X145724476Y-89751771D01*
X145724476Y-89751771D02*
X145819714Y-89799390D01*
X145819714Y-89799390D02*
X145867333Y-89847009D01*
X145867333Y-89847009D02*
X145914952Y-89942247D01*
X145914952Y-89942247D02*
X145914952Y-90180342D01*
X145914952Y-90180342D02*
X145867333Y-90275580D01*
X145867333Y-90275580D02*
X145819714Y-90323200D01*
X145819714Y-90323200D02*
X145724476Y-90370819D01*
X145724476Y-90370819D02*
X145438762Y-90370819D01*
X145438762Y-90370819D02*
X145343524Y-90323200D01*
X145343524Y-90323200D02*
X145295905Y-90275580D01*
X146248286Y-89370819D02*
X146914952Y-89370819D01*
X146914952Y-89370819D02*
X146486381Y-90370819D01*
X147248286Y-90323200D02*
X147391143Y-90370819D01*
X147391143Y-90370819D02*
X147629238Y-90370819D01*
X147629238Y-90370819D02*
X147724476Y-90323200D01*
X147724476Y-90323200D02*
X147772095Y-90275580D01*
X147772095Y-90275580D02*
X147819714Y-90180342D01*
X147819714Y-90180342D02*
X147819714Y-90085104D01*
X147819714Y-90085104D02*
X147772095Y-89989866D01*
X147772095Y-89989866D02*
X147724476Y-89942247D01*
X147724476Y-89942247D02*
X147629238Y-89894628D01*
X147629238Y-89894628D02*
X147438762Y-89847009D01*
X147438762Y-89847009D02*
X147343524Y-89799390D01*
X147343524Y-89799390D02*
X147295905Y-89751771D01*
X147295905Y-89751771D02*
X147248286Y-89656533D01*
X147248286Y-89656533D02*
X147248286Y-89561295D01*
X147248286Y-89561295D02*
X147295905Y-89466057D01*
X147295905Y-89466057D02*
X147343524Y-89418438D01*
X147343524Y-89418438D02*
X147438762Y-89370819D01*
X147438762Y-89370819D02*
X147676857Y-89370819D01*
X147676857Y-89370819D02*
X147819714Y-89418438D01*
X148010191Y-90466057D02*
X148772095Y-90466057D01*
X151092819Y-80771904D02*
X151902342Y-80771904D01*
X151902342Y-80771904D02*
X151997580Y-80724285D01*
X151997580Y-80724285D02*
X152045200Y-80676666D01*
X152045200Y-80676666D02*
X152092819Y-80581428D01*
X152092819Y-80581428D02*
X152092819Y-80390952D01*
X152092819Y-80390952D02*
X152045200Y-80295714D01*
X152045200Y-80295714D02*
X151997580Y-80248095D01*
X151997580Y-80248095D02*
X151902342Y-80200476D01*
X151902342Y-80200476D02*
X151092819Y-80200476D01*
X151092819Y-79819523D02*
X151092819Y-79200476D01*
X151092819Y-79200476D02*
X151473771Y-79533809D01*
X151473771Y-79533809D02*
X151473771Y-79390952D01*
X151473771Y-79390952D02*
X151521390Y-79295714D01*
X151521390Y-79295714D02*
X151569009Y-79248095D01*
X151569009Y-79248095D02*
X151664247Y-79200476D01*
X151664247Y-79200476D02*
X151902342Y-79200476D01*
X151902342Y-79200476D02*
X151997580Y-79248095D01*
X151997580Y-79248095D02*
X152045200Y-79295714D01*
X152045200Y-79295714D02*
X152092819Y-79390952D01*
X152092819Y-79390952D02*
X152092819Y-79676666D01*
X152092819Y-79676666D02*
X152045200Y-79771904D01*
X152045200Y-79771904D02*
X151997580Y-79819523D01*
X151408571Y-77893104D02*
X151884761Y-77893104D01*
X151313333Y-78178819D02*
X151646666Y-77178819D01*
X151646666Y-77178819D02*
X151979999Y-78178819D01*
X152170476Y-77178819D02*
X152741904Y-77178819D01*
X152456190Y-78178819D02*
X152456190Y-77178819D01*
X153075238Y-78178819D02*
X153075238Y-77178819D01*
X153075238Y-77178819D02*
X153408571Y-77893104D01*
X153408571Y-77893104D02*
X153741904Y-77178819D01*
X153741904Y-77178819D02*
X153741904Y-78178819D01*
X154218095Y-77655009D02*
X154551428Y-77655009D01*
X154694285Y-78178819D02*
X154218095Y-78178819D01*
X154218095Y-78178819D02*
X154218095Y-77178819D01*
X154218095Y-77178819D02*
X154694285Y-77178819D01*
X155646666Y-77226438D02*
X155551428Y-77178819D01*
X155551428Y-77178819D02*
X155408571Y-77178819D01*
X155408571Y-77178819D02*
X155265714Y-77226438D01*
X155265714Y-77226438D02*
X155170476Y-77321676D01*
X155170476Y-77321676D02*
X155122857Y-77416914D01*
X155122857Y-77416914D02*
X155075238Y-77607390D01*
X155075238Y-77607390D02*
X155075238Y-77750247D01*
X155075238Y-77750247D02*
X155122857Y-77940723D01*
X155122857Y-77940723D02*
X155170476Y-78035961D01*
X155170476Y-78035961D02*
X155265714Y-78131200D01*
X155265714Y-78131200D02*
X155408571Y-78178819D01*
X155408571Y-78178819D02*
X155503809Y-78178819D01*
X155503809Y-78178819D02*
X155646666Y-78131200D01*
X155646666Y-78131200D02*
X155694285Y-78083580D01*
X155694285Y-78083580D02*
X155694285Y-77750247D01*
X155694285Y-77750247D02*
X155503809Y-77750247D01*
X156075238Y-77893104D02*
X156551428Y-77893104D01*
X155980000Y-78178819D02*
X156313333Y-77178819D01*
X156313333Y-77178819D02*
X156646666Y-78178819D01*
X156884762Y-77178819D02*
X157503809Y-77178819D01*
X157503809Y-77178819D02*
X157170476Y-77559771D01*
X157170476Y-77559771D02*
X157313333Y-77559771D01*
X157313333Y-77559771D02*
X157408571Y-77607390D01*
X157408571Y-77607390D02*
X157456190Y-77655009D01*
X157456190Y-77655009D02*
X157503809Y-77750247D01*
X157503809Y-77750247D02*
X157503809Y-77988342D01*
X157503809Y-77988342D02*
X157456190Y-78083580D01*
X157456190Y-78083580D02*
X157408571Y-78131200D01*
X157408571Y-78131200D02*
X157313333Y-78178819D01*
X157313333Y-78178819D02*
X157027619Y-78178819D01*
X157027619Y-78178819D02*
X156932381Y-78131200D01*
X156932381Y-78131200D02*
X156884762Y-78083580D01*
X157884762Y-77274057D02*
X157932381Y-77226438D01*
X157932381Y-77226438D02*
X158027619Y-77178819D01*
X158027619Y-77178819D02*
X158265714Y-77178819D01*
X158265714Y-77178819D02*
X158360952Y-77226438D01*
X158360952Y-77226438D02*
X158408571Y-77274057D01*
X158408571Y-77274057D02*
X158456190Y-77369295D01*
X158456190Y-77369295D02*
X158456190Y-77464533D01*
X158456190Y-77464533D02*
X158408571Y-77607390D01*
X158408571Y-77607390D02*
X157837143Y-78178819D01*
X157837143Y-78178819D02*
X158456190Y-78178819D01*
X159027619Y-77607390D02*
X158932381Y-77559771D01*
X158932381Y-77559771D02*
X158884762Y-77512152D01*
X158884762Y-77512152D02*
X158837143Y-77416914D01*
X158837143Y-77416914D02*
X158837143Y-77369295D01*
X158837143Y-77369295D02*
X158884762Y-77274057D01*
X158884762Y-77274057D02*
X158932381Y-77226438D01*
X158932381Y-77226438D02*
X159027619Y-77178819D01*
X159027619Y-77178819D02*
X159218095Y-77178819D01*
X159218095Y-77178819D02*
X159313333Y-77226438D01*
X159313333Y-77226438D02*
X159360952Y-77274057D01*
X159360952Y-77274057D02*
X159408571Y-77369295D01*
X159408571Y-77369295D02*
X159408571Y-77416914D01*
X159408571Y-77416914D02*
X159360952Y-77512152D01*
X159360952Y-77512152D02*
X159313333Y-77559771D01*
X159313333Y-77559771D02*
X159218095Y-77607390D01*
X159218095Y-77607390D02*
X159027619Y-77607390D01*
X159027619Y-77607390D02*
X158932381Y-77655009D01*
X158932381Y-77655009D02*
X158884762Y-77702628D01*
X158884762Y-77702628D02*
X158837143Y-77797866D01*
X158837143Y-77797866D02*
X158837143Y-77988342D01*
X158837143Y-77988342D02*
X158884762Y-78083580D01*
X158884762Y-78083580D02*
X158932381Y-78131200D01*
X158932381Y-78131200D02*
X159027619Y-78178819D01*
X159027619Y-78178819D02*
X159218095Y-78178819D01*
X159218095Y-78178819D02*
X159313333Y-78131200D01*
X159313333Y-78131200D02*
X159360952Y-78083580D01*
X159360952Y-78083580D02*
X159408571Y-77988342D01*
X159408571Y-77988342D02*
X159408571Y-77797866D01*
X159408571Y-77797866D02*
X159360952Y-77702628D01*
X159360952Y-77702628D02*
X159313333Y-77655009D01*
X159313333Y-77655009D02*
X159218095Y-77607390D01*
X159837143Y-78178819D02*
X159837143Y-77178819D01*
X159837143Y-77178819D02*
X160218095Y-77178819D01*
X160218095Y-77178819D02*
X160313333Y-77226438D01*
X160313333Y-77226438D02*
X160360952Y-77274057D01*
X160360952Y-77274057D02*
X160408571Y-77369295D01*
X160408571Y-77369295D02*
X160408571Y-77512152D01*
X160408571Y-77512152D02*
X160360952Y-77607390D01*
X160360952Y-77607390D02*
X160313333Y-77655009D01*
X160313333Y-77655009D02*
X160218095Y-77702628D01*
X160218095Y-77702628D02*
X159837143Y-77702628D01*
X160837143Y-77797866D02*
X161599048Y-77797866D01*
X162027619Y-77893104D02*
X162503809Y-77893104D01*
X161932381Y-78178819D02*
X162265714Y-77178819D01*
X162265714Y-77178819D02*
X162599047Y-78178819D01*
X162932381Y-77178819D02*
X162932381Y-77988342D01*
X162932381Y-77988342D02*
X162980000Y-78083580D01*
X162980000Y-78083580D02*
X163027619Y-78131200D01*
X163027619Y-78131200D02*
X163122857Y-78178819D01*
X163122857Y-78178819D02*
X163313333Y-78178819D01*
X163313333Y-78178819D02*
X163408571Y-78131200D01*
X163408571Y-78131200D02*
X163456190Y-78083580D01*
X163456190Y-78083580D02*
X163503809Y-77988342D01*
X163503809Y-77988342D02*
X163503809Y-77178819D01*
X131998819Y-104727333D02*
X132713104Y-104727333D01*
X132713104Y-104727333D02*
X132855961Y-104774952D01*
X132855961Y-104774952D02*
X132951200Y-104870190D01*
X132951200Y-104870190D02*
X132998819Y-105013047D01*
X132998819Y-105013047D02*
X132998819Y-105108285D01*
X132332152Y-103822571D02*
X132998819Y-103822571D01*
X131951200Y-104060666D02*
X132665485Y-104298761D01*
X132665485Y-104298761D02*
X132665485Y-103679714D01*
X134516905Y-96583819D02*
X134516905Y-95583819D01*
X134516905Y-95583819D02*
X134755000Y-95583819D01*
X134755000Y-95583819D02*
X134897857Y-95631438D01*
X134897857Y-95631438D02*
X134993095Y-95726676D01*
X134993095Y-95726676D02*
X135040714Y-95821914D01*
X135040714Y-95821914D02*
X135088333Y-96012390D01*
X135088333Y-96012390D02*
X135088333Y-96155247D01*
X135088333Y-96155247D02*
X135040714Y-96345723D01*
X135040714Y-96345723D02*
X134993095Y-96440961D01*
X134993095Y-96440961D02*
X134897857Y-96536200D01*
X134897857Y-96536200D02*
X134755000Y-96583819D01*
X134755000Y-96583819D02*
X134516905Y-96583819D01*
X136040714Y-96583819D02*
X135469286Y-96583819D01*
X135755000Y-96583819D02*
X135755000Y-95583819D01*
X135755000Y-95583819D02*
X135659762Y-95726676D01*
X135659762Y-95726676D02*
X135564524Y-95821914D01*
X135564524Y-95821914D02*
X135469286Y-95869533D01*
X134612142Y-100647819D02*
X134135952Y-100647819D01*
X134135952Y-100647819D02*
X134135952Y-99647819D01*
X134945476Y-100124009D02*
X135278809Y-100124009D01*
X135421666Y-100647819D02*
X134945476Y-100647819D01*
X134945476Y-100647819D02*
X134945476Y-99647819D01*
X134945476Y-99647819D02*
X135421666Y-99647819D01*
X135850238Y-100647819D02*
X135850238Y-99647819D01*
X135850238Y-99647819D02*
X136088333Y-99647819D01*
X136088333Y-99647819D02*
X136231190Y-99695438D01*
X136231190Y-99695438D02*
X136326428Y-99790676D01*
X136326428Y-99790676D02*
X136374047Y-99885914D01*
X136374047Y-99885914D02*
X136421666Y-100076390D01*
X136421666Y-100076390D02*
X136421666Y-100219247D01*
X136421666Y-100219247D02*
X136374047Y-100409723D01*
X136374047Y-100409723D02*
X136326428Y-100504961D01*
X136326428Y-100504961D02*
X136231190Y-100600200D01*
X136231190Y-100600200D02*
X136088333Y-100647819D01*
X136088333Y-100647819D02*
X135850238Y-100647819D01*
X166203333Y-93294580D02*
X166155714Y-93342200D01*
X166155714Y-93342200D02*
X166012857Y-93389819D01*
X166012857Y-93389819D02*
X165917619Y-93389819D01*
X165917619Y-93389819D02*
X165774762Y-93342200D01*
X165774762Y-93342200D02*
X165679524Y-93246961D01*
X165679524Y-93246961D02*
X165631905Y-93151723D01*
X165631905Y-93151723D02*
X165584286Y-92961247D01*
X165584286Y-92961247D02*
X165584286Y-92818390D01*
X165584286Y-92818390D02*
X165631905Y-92627914D01*
X165631905Y-92627914D02*
X165679524Y-92532676D01*
X165679524Y-92532676D02*
X165774762Y-92437438D01*
X165774762Y-92437438D02*
X165917619Y-92389819D01*
X165917619Y-92389819D02*
X166012857Y-92389819D01*
X166012857Y-92389819D02*
X166155714Y-92437438D01*
X166155714Y-92437438D02*
X166203333Y-92485057D01*
X167060476Y-92723152D02*
X167060476Y-93389819D01*
X166822381Y-92342200D02*
X166584286Y-93056485D01*
X166584286Y-93056485D02*
X167203333Y-93056485D01*
X164822380Y-96749819D02*
X164250952Y-96749819D01*
X164536666Y-96749819D02*
X164536666Y-95749819D01*
X164536666Y-95749819D02*
X164441428Y-95892676D01*
X164441428Y-95892676D02*
X164346190Y-95987914D01*
X164346190Y-95987914D02*
X164250952Y-96035533D01*
X165441428Y-95749819D02*
X165536666Y-95749819D01*
X165536666Y-95749819D02*
X165631904Y-95797438D01*
X165631904Y-95797438D02*
X165679523Y-95845057D01*
X165679523Y-95845057D02*
X165727142Y-95940295D01*
X165727142Y-95940295D02*
X165774761Y-96130771D01*
X165774761Y-96130771D02*
X165774761Y-96368866D01*
X165774761Y-96368866D02*
X165727142Y-96559342D01*
X165727142Y-96559342D02*
X165679523Y-96654580D01*
X165679523Y-96654580D02*
X165631904Y-96702200D01*
X165631904Y-96702200D02*
X165536666Y-96749819D01*
X165536666Y-96749819D02*
X165441428Y-96749819D01*
X165441428Y-96749819D02*
X165346190Y-96702200D01*
X165346190Y-96702200D02*
X165298571Y-96654580D01*
X165298571Y-96654580D02*
X165250952Y-96559342D01*
X165250952Y-96559342D02*
X165203333Y-96368866D01*
X165203333Y-96368866D02*
X165203333Y-96130771D01*
X165203333Y-96130771D02*
X165250952Y-95940295D01*
X165250952Y-95940295D02*
X165298571Y-95845057D01*
X165298571Y-95845057D02*
X165346190Y-95797438D01*
X165346190Y-95797438D02*
X165441428Y-95749819D01*
X166393809Y-95749819D02*
X166489047Y-95749819D01*
X166489047Y-95749819D02*
X166584285Y-95797438D01*
X166584285Y-95797438D02*
X166631904Y-95845057D01*
X166631904Y-95845057D02*
X166679523Y-95940295D01*
X166679523Y-95940295D02*
X166727142Y-96130771D01*
X166727142Y-96130771D02*
X166727142Y-96368866D01*
X166727142Y-96368866D02*
X166679523Y-96559342D01*
X166679523Y-96559342D02*
X166631904Y-96654580D01*
X166631904Y-96654580D02*
X166584285Y-96702200D01*
X166584285Y-96702200D02*
X166489047Y-96749819D01*
X166489047Y-96749819D02*
X166393809Y-96749819D01*
X166393809Y-96749819D02*
X166298571Y-96702200D01*
X166298571Y-96702200D02*
X166250952Y-96654580D01*
X166250952Y-96654580D02*
X166203333Y-96559342D01*
X166203333Y-96559342D02*
X166155714Y-96368866D01*
X166155714Y-96368866D02*
X166155714Y-96130771D01*
X166155714Y-96130771D02*
X166203333Y-95940295D01*
X166203333Y-95940295D02*
X166250952Y-95845057D01*
X166250952Y-95845057D02*
X166298571Y-95797438D01*
X166298571Y-95797438D02*
X166393809Y-95749819D01*
X167155714Y-96083152D02*
X167155714Y-96749819D01*
X167155714Y-96178390D02*
X167203333Y-96130771D01*
X167203333Y-96130771D02*
X167298571Y-96083152D01*
X167298571Y-96083152D02*
X167441428Y-96083152D01*
X167441428Y-96083152D02*
X167536666Y-96130771D01*
X167536666Y-96130771D02*
X167584285Y-96226009D01*
X167584285Y-96226009D02*
X167584285Y-96749819D01*
X168393809Y-96226009D02*
X168060476Y-96226009D01*
X168060476Y-96749819D02*
X168060476Y-95749819D01*
X168060476Y-95749819D02*
X168536666Y-95749819D01*
X166203333Y-88214580D02*
X166155714Y-88262200D01*
X166155714Y-88262200D02*
X166012857Y-88309819D01*
X166012857Y-88309819D02*
X165917619Y-88309819D01*
X165917619Y-88309819D02*
X165774762Y-88262200D01*
X165774762Y-88262200D02*
X165679524Y-88166961D01*
X165679524Y-88166961D02*
X165631905Y-88071723D01*
X165631905Y-88071723D02*
X165584286Y-87881247D01*
X165584286Y-87881247D02*
X165584286Y-87738390D01*
X165584286Y-87738390D02*
X165631905Y-87547914D01*
X165631905Y-87547914D02*
X165679524Y-87452676D01*
X165679524Y-87452676D02*
X165774762Y-87357438D01*
X165774762Y-87357438D02*
X165917619Y-87309819D01*
X165917619Y-87309819D02*
X166012857Y-87309819D01*
X166012857Y-87309819D02*
X166155714Y-87357438D01*
X166155714Y-87357438D02*
X166203333Y-87405057D01*
X166536667Y-87309819D02*
X167155714Y-87309819D01*
X167155714Y-87309819D02*
X166822381Y-87690771D01*
X166822381Y-87690771D02*
X166965238Y-87690771D01*
X166965238Y-87690771D02*
X167060476Y-87738390D01*
X167060476Y-87738390D02*
X167108095Y-87786009D01*
X167108095Y-87786009D02*
X167155714Y-87881247D01*
X167155714Y-87881247D02*
X167155714Y-88119342D01*
X167155714Y-88119342D02*
X167108095Y-88214580D01*
X167108095Y-88214580D02*
X167060476Y-88262200D01*
X167060476Y-88262200D02*
X166965238Y-88309819D01*
X166965238Y-88309819D02*
X166679524Y-88309819D01*
X166679524Y-88309819D02*
X166584286Y-88262200D01*
X166584286Y-88262200D02*
X166536667Y-88214580D01*
X164727143Y-90765057D02*
X164774762Y-90717438D01*
X164774762Y-90717438D02*
X164870000Y-90669819D01*
X164870000Y-90669819D02*
X165108095Y-90669819D01*
X165108095Y-90669819D02*
X165203333Y-90717438D01*
X165203333Y-90717438D02*
X165250952Y-90765057D01*
X165250952Y-90765057D02*
X165298571Y-90860295D01*
X165298571Y-90860295D02*
X165298571Y-90955533D01*
X165298571Y-90955533D02*
X165250952Y-91098390D01*
X165250952Y-91098390D02*
X164679524Y-91669819D01*
X164679524Y-91669819D02*
X165298571Y-91669819D01*
X165679524Y-90765057D02*
X165727143Y-90717438D01*
X165727143Y-90717438D02*
X165822381Y-90669819D01*
X165822381Y-90669819D02*
X166060476Y-90669819D01*
X166060476Y-90669819D02*
X166155714Y-90717438D01*
X166155714Y-90717438D02*
X166203333Y-90765057D01*
X166203333Y-90765057D02*
X166250952Y-90860295D01*
X166250952Y-90860295D02*
X166250952Y-90955533D01*
X166250952Y-90955533D02*
X166203333Y-91098390D01*
X166203333Y-91098390D02*
X165631905Y-91669819D01*
X165631905Y-91669819D02*
X166250952Y-91669819D01*
X166679524Y-91003152D02*
X166679524Y-92003152D01*
X166679524Y-91050771D02*
X166774762Y-91003152D01*
X166774762Y-91003152D02*
X166965238Y-91003152D01*
X166965238Y-91003152D02*
X167060476Y-91050771D01*
X167060476Y-91050771D02*
X167108095Y-91098390D01*
X167108095Y-91098390D02*
X167155714Y-91193628D01*
X167155714Y-91193628D02*
X167155714Y-91479342D01*
X167155714Y-91479342D02*
X167108095Y-91574580D01*
X167108095Y-91574580D02*
X167060476Y-91622200D01*
X167060476Y-91622200D02*
X166965238Y-91669819D01*
X166965238Y-91669819D02*
X166774762Y-91669819D01*
X166774762Y-91669819D02*
X166679524Y-91622200D01*
X167917619Y-91146009D02*
X167584286Y-91146009D01*
X167584286Y-91669819D02*
X167584286Y-90669819D01*
X167584286Y-90669819D02*
X168060476Y-90669819D01*
X166203333Y-83134580D02*
X166155714Y-83182200D01*
X166155714Y-83182200D02*
X166012857Y-83229819D01*
X166012857Y-83229819D02*
X165917619Y-83229819D01*
X165917619Y-83229819D02*
X165774762Y-83182200D01*
X165774762Y-83182200D02*
X165679524Y-83086961D01*
X165679524Y-83086961D02*
X165631905Y-82991723D01*
X165631905Y-82991723D02*
X165584286Y-82801247D01*
X165584286Y-82801247D02*
X165584286Y-82658390D01*
X165584286Y-82658390D02*
X165631905Y-82467914D01*
X165631905Y-82467914D02*
X165679524Y-82372676D01*
X165679524Y-82372676D02*
X165774762Y-82277438D01*
X165774762Y-82277438D02*
X165917619Y-82229819D01*
X165917619Y-82229819D02*
X166012857Y-82229819D01*
X166012857Y-82229819D02*
X166155714Y-82277438D01*
X166155714Y-82277438D02*
X166203333Y-82325057D01*
X166584286Y-82325057D02*
X166631905Y-82277438D01*
X166631905Y-82277438D02*
X166727143Y-82229819D01*
X166727143Y-82229819D02*
X166965238Y-82229819D01*
X166965238Y-82229819D02*
X167060476Y-82277438D01*
X167060476Y-82277438D02*
X167108095Y-82325057D01*
X167108095Y-82325057D02*
X167155714Y-82420295D01*
X167155714Y-82420295D02*
X167155714Y-82515533D01*
X167155714Y-82515533D02*
X167108095Y-82658390D01*
X167108095Y-82658390D02*
X166536667Y-83229819D01*
X166536667Y-83229819D02*
X167155714Y-83229819D01*
X164727143Y-85685057D02*
X164774762Y-85637438D01*
X164774762Y-85637438D02*
X164870000Y-85589819D01*
X164870000Y-85589819D02*
X165108095Y-85589819D01*
X165108095Y-85589819D02*
X165203333Y-85637438D01*
X165203333Y-85637438D02*
X165250952Y-85685057D01*
X165250952Y-85685057D02*
X165298571Y-85780295D01*
X165298571Y-85780295D02*
X165298571Y-85875533D01*
X165298571Y-85875533D02*
X165250952Y-86018390D01*
X165250952Y-86018390D02*
X164679524Y-86589819D01*
X164679524Y-86589819D02*
X165298571Y-86589819D01*
X165679524Y-85685057D02*
X165727143Y-85637438D01*
X165727143Y-85637438D02*
X165822381Y-85589819D01*
X165822381Y-85589819D02*
X166060476Y-85589819D01*
X166060476Y-85589819D02*
X166155714Y-85637438D01*
X166155714Y-85637438D02*
X166203333Y-85685057D01*
X166203333Y-85685057D02*
X166250952Y-85780295D01*
X166250952Y-85780295D02*
X166250952Y-85875533D01*
X166250952Y-85875533D02*
X166203333Y-86018390D01*
X166203333Y-86018390D02*
X165631905Y-86589819D01*
X165631905Y-86589819D02*
X166250952Y-86589819D01*
X167108095Y-85923152D02*
X167108095Y-86589819D01*
X166679524Y-85923152D02*
X166679524Y-86446961D01*
X166679524Y-86446961D02*
X166727143Y-86542200D01*
X166727143Y-86542200D02*
X166822381Y-86589819D01*
X166822381Y-86589819D02*
X166965238Y-86589819D01*
X166965238Y-86589819D02*
X167060476Y-86542200D01*
X167060476Y-86542200D02*
X167108095Y-86494580D01*
X167917619Y-86066009D02*
X167584286Y-86066009D01*
X167584286Y-86589819D02*
X167584286Y-85589819D01*
X167584286Y-85589819D02*
X168060476Y-85589819D01*
X143700833Y-98498819D02*
X143367500Y-98022628D01*
X143129405Y-98498819D02*
X143129405Y-97498819D01*
X143129405Y-97498819D02*
X143510357Y-97498819D01*
X143510357Y-97498819D02*
X143605595Y-97546438D01*
X143605595Y-97546438D02*
X143653214Y-97594057D01*
X143653214Y-97594057D02*
X143700833Y-97689295D01*
X143700833Y-97689295D02*
X143700833Y-97832152D01*
X143700833Y-97832152D02*
X143653214Y-97927390D01*
X143653214Y-97927390D02*
X143605595Y-97975009D01*
X143605595Y-97975009D02*
X143510357Y-98022628D01*
X143510357Y-98022628D02*
X143129405Y-98022628D01*
X144034167Y-97498819D02*
X144700833Y-97498819D01*
X144700833Y-97498819D02*
X144272262Y-98498819D01*
X142478286Y-101054819D02*
X143097333Y-101054819D01*
X143097333Y-101054819D02*
X142764000Y-101435771D01*
X142764000Y-101435771D02*
X142906857Y-101435771D01*
X142906857Y-101435771D02*
X143002095Y-101483390D01*
X143002095Y-101483390D02*
X143049714Y-101531009D01*
X143049714Y-101531009D02*
X143097333Y-101626247D01*
X143097333Y-101626247D02*
X143097333Y-101864342D01*
X143097333Y-101864342D02*
X143049714Y-101959580D01*
X143049714Y-101959580D02*
X143002095Y-102007200D01*
X143002095Y-102007200D02*
X142906857Y-102054819D01*
X142906857Y-102054819D02*
X142621143Y-102054819D01*
X142621143Y-102054819D02*
X142525905Y-102007200D01*
X142525905Y-102007200D02*
X142478286Y-101959580D01*
X143430667Y-101054819D02*
X144049714Y-101054819D01*
X144049714Y-101054819D02*
X143716381Y-101435771D01*
X143716381Y-101435771D02*
X143859238Y-101435771D01*
X143859238Y-101435771D02*
X143954476Y-101483390D01*
X143954476Y-101483390D02*
X144002095Y-101531009D01*
X144002095Y-101531009D02*
X144049714Y-101626247D01*
X144049714Y-101626247D02*
X144049714Y-101864342D01*
X144049714Y-101864342D02*
X144002095Y-101959580D01*
X144002095Y-101959580D02*
X143954476Y-102007200D01*
X143954476Y-102007200D02*
X143859238Y-102054819D01*
X143859238Y-102054819D02*
X143573524Y-102054819D01*
X143573524Y-102054819D02*
X143478286Y-102007200D01*
X143478286Y-102007200D02*
X143430667Y-101959580D01*
X144668762Y-101054819D02*
X144764000Y-101054819D01*
X144764000Y-101054819D02*
X144859238Y-101102438D01*
X144859238Y-101102438D02*
X144906857Y-101150057D01*
X144906857Y-101150057D02*
X144954476Y-101245295D01*
X144954476Y-101245295D02*
X145002095Y-101435771D01*
X145002095Y-101435771D02*
X145002095Y-101673866D01*
X145002095Y-101673866D02*
X144954476Y-101864342D01*
X144954476Y-101864342D02*
X144906857Y-101959580D01*
X144906857Y-101959580D02*
X144859238Y-102007200D01*
X144859238Y-102007200D02*
X144764000Y-102054819D01*
X144764000Y-102054819D02*
X144668762Y-102054819D01*
X144668762Y-102054819D02*
X144573524Y-102007200D01*
X144573524Y-102007200D02*
X144525905Y-101959580D01*
X144525905Y-101959580D02*
X144478286Y-101864342D01*
X144478286Y-101864342D02*
X144430667Y-101673866D01*
X144430667Y-101673866D02*
X144430667Y-101435771D01*
X144430667Y-101435771D02*
X144478286Y-101245295D01*
X144478286Y-101245295D02*
X144525905Y-101150057D01*
X144525905Y-101150057D02*
X144573524Y-101102438D01*
X144573524Y-101102438D02*
X144668762Y-101054819D01*
X161970819Y-104727333D02*
X162685104Y-104727333D01*
X162685104Y-104727333D02*
X162827961Y-104774952D01*
X162827961Y-104774952D02*
X162923200Y-104870190D01*
X162923200Y-104870190D02*
X162970819Y-105013047D01*
X162970819Y-105013047D02*
X162970819Y-105108285D01*
X162066057Y-104298761D02*
X162018438Y-104251142D01*
X162018438Y-104251142D02*
X161970819Y-104155904D01*
X161970819Y-104155904D02*
X161970819Y-103917809D01*
X161970819Y-103917809D02*
X162018438Y-103822571D01*
X162018438Y-103822571D02*
X162066057Y-103774952D01*
X162066057Y-103774952D02*
X162161295Y-103727333D01*
X162161295Y-103727333D02*
X162256533Y-103727333D01*
X162256533Y-103727333D02*
X162399390Y-103774952D01*
X162399390Y-103774952D02*
X162970819Y-104346380D01*
X162970819Y-104346380D02*
X162970819Y-103727333D01*
X158824819Y-73549166D02*
X158348628Y-73882499D01*
X158824819Y-74120594D02*
X157824819Y-74120594D01*
X157824819Y-74120594D02*
X157824819Y-73739642D01*
X157824819Y-73739642D02*
X157872438Y-73644404D01*
X157872438Y-73644404D02*
X157920057Y-73596785D01*
X157920057Y-73596785D02*
X158015295Y-73549166D01*
X158015295Y-73549166D02*
X158158152Y-73549166D01*
X158158152Y-73549166D02*
X158253390Y-73596785D01*
X158253390Y-73596785D02*
X158301009Y-73644404D01*
X158301009Y-73644404D02*
X158348628Y-73739642D01*
X158348628Y-73739642D02*
X158348628Y-74120594D01*
X157824819Y-72692023D02*
X157824819Y-72882499D01*
X157824819Y-72882499D02*
X157872438Y-72977737D01*
X157872438Y-72977737D02*
X157920057Y-73025356D01*
X157920057Y-73025356D02*
X158062914Y-73120594D01*
X158062914Y-73120594D02*
X158253390Y-73168213D01*
X158253390Y-73168213D02*
X158634342Y-73168213D01*
X158634342Y-73168213D02*
X158729580Y-73120594D01*
X158729580Y-73120594D02*
X158777200Y-73072975D01*
X158777200Y-73072975D02*
X158824819Y-72977737D01*
X158824819Y-72977737D02*
X158824819Y-72787261D01*
X158824819Y-72787261D02*
X158777200Y-72692023D01*
X158777200Y-72692023D02*
X158729580Y-72644404D01*
X158729580Y-72644404D02*
X158634342Y-72596785D01*
X158634342Y-72596785D02*
X158396247Y-72596785D01*
X158396247Y-72596785D02*
X158301009Y-72644404D01*
X158301009Y-72644404D02*
X158253390Y-72692023D01*
X158253390Y-72692023D02*
X158205771Y-72787261D01*
X158205771Y-72787261D02*
X158205771Y-72977737D01*
X158205771Y-72977737D02*
X158253390Y-73072975D01*
X158253390Y-73072975D02*
X158301009Y-73120594D01*
X158301009Y-73120594D02*
X158396247Y-73168213D01*
X161252819Y-74668213D02*
X161252819Y-74049166D01*
X161252819Y-74049166D02*
X161633771Y-74382499D01*
X161633771Y-74382499D02*
X161633771Y-74239642D01*
X161633771Y-74239642D02*
X161681390Y-74144404D01*
X161681390Y-74144404D02*
X161729009Y-74096785D01*
X161729009Y-74096785D02*
X161824247Y-74049166D01*
X161824247Y-74049166D02*
X162062342Y-74049166D01*
X162062342Y-74049166D02*
X162157580Y-74096785D01*
X162157580Y-74096785D02*
X162205200Y-74144404D01*
X162205200Y-74144404D02*
X162252819Y-74239642D01*
X162252819Y-74239642D02*
X162252819Y-74525356D01*
X162252819Y-74525356D02*
X162205200Y-74620594D01*
X162205200Y-74620594D02*
X162157580Y-74668213D01*
X161252819Y-73715832D02*
X161252819Y-73096785D01*
X161252819Y-73096785D02*
X161633771Y-73430118D01*
X161633771Y-73430118D02*
X161633771Y-73287261D01*
X161633771Y-73287261D02*
X161681390Y-73192023D01*
X161681390Y-73192023D02*
X161729009Y-73144404D01*
X161729009Y-73144404D02*
X161824247Y-73096785D01*
X161824247Y-73096785D02*
X162062342Y-73096785D01*
X162062342Y-73096785D02*
X162157580Y-73144404D01*
X162157580Y-73144404D02*
X162205200Y-73192023D01*
X162205200Y-73192023D02*
X162252819Y-73287261D01*
X162252819Y-73287261D02*
X162252819Y-73572975D01*
X162252819Y-73572975D02*
X162205200Y-73668213D01*
X162205200Y-73668213D02*
X162157580Y-73715832D01*
X161252819Y-72477737D02*
X161252819Y-72382499D01*
X161252819Y-72382499D02*
X161300438Y-72287261D01*
X161300438Y-72287261D02*
X161348057Y-72239642D01*
X161348057Y-72239642D02*
X161443295Y-72192023D01*
X161443295Y-72192023D02*
X161633771Y-72144404D01*
X161633771Y-72144404D02*
X161871866Y-72144404D01*
X161871866Y-72144404D02*
X162062342Y-72192023D01*
X162062342Y-72192023D02*
X162157580Y-72239642D01*
X162157580Y-72239642D02*
X162205200Y-72287261D01*
X162205200Y-72287261D02*
X162252819Y-72382499D01*
X162252819Y-72382499D02*
X162252819Y-72477737D01*
X162252819Y-72477737D02*
X162205200Y-72572975D01*
X162205200Y-72572975D02*
X162157580Y-72620594D01*
X162157580Y-72620594D02*
X162062342Y-72668213D01*
X162062342Y-72668213D02*
X161871866Y-72715832D01*
X161871866Y-72715832D02*
X161633771Y-72715832D01*
X161633771Y-72715832D02*
X161443295Y-72668213D01*
X161443295Y-72668213D02*
X161348057Y-72620594D01*
X161348057Y-72620594D02*
X161300438Y-72572975D01*
X161300438Y-72572975D02*
X161252819Y-72477737D01*
X159575833Y-92149819D02*
X159242500Y-91673628D01*
X159004405Y-92149819D02*
X159004405Y-91149819D01*
X159004405Y-91149819D02*
X159385357Y-91149819D01*
X159385357Y-91149819D02*
X159480595Y-91197438D01*
X159480595Y-91197438D02*
X159528214Y-91245057D01*
X159528214Y-91245057D02*
X159575833Y-91340295D01*
X159575833Y-91340295D02*
X159575833Y-91483152D01*
X159575833Y-91483152D02*
X159528214Y-91578390D01*
X159528214Y-91578390D02*
X159480595Y-91626009D01*
X159480595Y-91626009D02*
X159385357Y-91673628D01*
X159385357Y-91673628D02*
X159004405Y-91673628D01*
X159956786Y-91245057D02*
X160004405Y-91197438D01*
X160004405Y-91197438D02*
X160099643Y-91149819D01*
X160099643Y-91149819D02*
X160337738Y-91149819D01*
X160337738Y-91149819D02*
X160432976Y-91197438D01*
X160432976Y-91197438D02*
X160480595Y-91245057D01*
X160480595Y-91245057D02*
X160528214Y-91340295D01*
X160528214Y-91340295D02*
X160528214Y-91435533D01*
X160528214Y-91435533D02*
X160480595Y-91578390D01*
X160480595Y-91578390D02*
X159909167Y-92149819D01*
X159909167Y-92149819D02*
X160528214Y-92149819D01*
X159147261Y-95449819D02*
X158575833Y-95449819D01*
X158861547Y-95449819D02*
X158861547Y-94449819D01*
X158861547Y-94449819D02*
X158766309Y-94592676D01*
X158766309Y-94592676D02*
X158671071Y-94687914D01*
X158671071Y-94687914D02*
X158575833Y-94735533D01*
X159766309Y-94449819D02*
X159861547Y-94449819D01*
X159861547Y-94449819D02*
X159956785Y-94497438D01*
X159956785Y-94497438D02*
X160004404Y-94545057D01*
X160004404Y-94545057D02*
X160052023Y-94640295D01*
X160052023Y-94640295D02*
X160099642Y-94830771D01*
X160099642Y-94830771D02*
X160099642Y-95068866D01*
X160099642Y-95068866D02*
X160052023Y-95259342D01*
X160052023Y-95259342D02*
X160004404Y-95354580D01*
X160004404Y-95354580D02*
X159956785Y-95402200D01*
X159956785Y-95402200D02*
X159861547Y-95449819D01*
X159861547Y-95449819D02*
X159766309Y-95449819D01*
X159766309Y-95449819D02*
X159671071Y-95402200D01*
X159671071Y-95402200D02*
X159623452Y-95354580D01*
X159623452Y-95354580D02*
X159575833Y-95259342D01*
X159575833Y-95259342D02*
X159528214Y-95068866D01*
X159528214Y-95068866D02*
X159528214Y-94830771D01*
X159528214Y-94830771D02*
X159575833Y-94640295D01*
X159575833Y-94640295D02*
X159623452Y-94545057D01*
X159623452Y-94545057D02*
X159671071Y-94497438D01*
X159671071Y-94497438D02*
X159766309Y-94449819D01*
X160528214Y-95449819D02*
X160528214Y-94449819D01*
X160623452Y-95068866D02*
X160909166Y-95449819D01*
X160909166Y-94783152D02*
X160528214Y-95164104D01*
X152624319Y-73572666D02*
X152148128Y-73905999D01*
X152624319Y-74144094D02*
X151624319Y-74144094D01*
X151624319Y-74144094D02*
X151624319Y-73763142D01*
X151624319Y-73763142D02*
X151671938Y-73667904D01*
X151671938Y-73667904D02*
X151719557Y-73620285D01*
X151719557Y-73620285D02*
X151814795Y-73572666D01*
X151814795Y-73572666D02*
X151957652Y-73572666D01*
X151957652Y-73572666D02*
X152052890Y-73620285D01*
X152052890Y-73620285D02*
X152100509Y-73667904D01*
X152100509Y-73667904D02*
X152148128Y-73763142D01*
X152148128Y-73763142D02*
X152148128Y-74144094D01*
X151624319Y-72667904D02*
X151624319Y-73144094D01*
X151624319Y-73144094D02*
X152100509Y-73191713D01*
X152100509Y-73191713D02*
X152052890Y-73144094D01*
X152052890Y-73144094D02*
X152005271Y-73048856D01*
X152005271Y-73048856D02*
X152005271Y-72810761D01*
X152005271Y-72810761D02*
X152052890Y-72715523D01*
X152052890Y-72715523D02*
X152100509Y-72667904D01*
X152100509Y-72667904D02*
X152195747Y-72620285D01*
X152195747Y-72620285D02*
X152433842Y-72620285D01*
X152433842Y-72620285D02*
X152529080Y-72667904D01*
X152529080Y-72667904D02*
X152576700Y-72715523D01*
X152576700Y-72715523D02*
X152624319Y-72810761D01*
X152624319Y-72810761D02*
X152624319Y-73048856D01*
X152624319Y-73048856D02*
X152576700Y-73144094D01*
X152576700Y-73144094D02*
X152529080Y-73191713D01*
X155513652Y-74334571D02*
X156180319Y-74334571D01*
X155132700Y-74572666D02*
X155846985Y-74810761D01*
X155846985Y-74810761D02*
X155846985Y-74191714D01*
X156085080Y-73810761D02*
X156132700Y-73763142D01*
X156132700Y-73763142D02*
X156180319Y-73810761D01*
X156180319Y-73810761D02*
X156132700Y-73858380D01*
X156132700Y-73858380D02*
X156085080Y-73810761D01*
X156085080Y-73810761D02*
X156180319Y-73810761D01*
X155180319Y-73429809D02*
X155180319Y-72763143D01*
X155180319Y-72763143D02*
X156180319Y-73191714D01*
X156180319Y-72382190D02*
X155180319Y-72382190D01*
X155799366Y-72286952D02*
X156180319Y-72001238D01*
X155513652Y-72001238D02*
X155894604Y-72382190D01*
X163816819Y-74008333D02*
X164531104Y-74008333D01*
X164531104Y-74008333D02*
X164673961Y-74055952D01*
X164673961Y-74055952D02*
X164769200Y-74151190D01*
X164769200Y-74151190D02*
X164816819Y-74294047D01*
X164816819Y-74294047D02*
X164816819Y-74389285D01*
X163816819Y-73627380D02*
X163816819Y-73008333D01*
X163816819Y-73008333D02*
X164197771Y-73341666D01*
X164197771Y-73341666D02*
X164197771Y-73198809D01*
X164197771Y-73198809D02*
X164245390Y-73103571D01*
X164245390Y-73103571D02*
X164293009Y-73055952D01*
X164293009Y-73055952D02*
X164388247Y-73008333D01*
X164388247Y-73008333D02*
X164626342Y-73008333D01*
X164626342Y-73008333D02*
X164721580Y-73055952D01*
X164721580Y-73055952D02*
X164769200Y-73103571D01*
X164769200Y-73103571D02*
X164816819Y-73198809D01*
X164816819Y-73198809D02*
X164816819Y-73484523D01*
X164816819Y-73484523D02*
X164769200Y-73579761D01*
X164769200Y-73579761D02*
X164721580Y-73627380D01*
X169269580Y-79668666D02*
X169317200Y-79716285D01*
X169317200Y-79716285D02*
X169364819Y-79859142D01*
X169364819Y-79859142D02*
X169364819Y-79954380D01*
X169364819Y-79954380D02*
X169317200Y-80097237D01*
X169317200Y-80097237D02*
X169221961Y-80192475D01*
X169221961Y-80192475D02*
X169126723Y-80240094D01*
X169126723Y-80240094D02*
X168936247Y-80287713D01*
X168936247Y-80287713D02*
X168793390Y-80287713D01*
X168793390Y-80287713D02*
X168602914Y-80240094D01*
X168602914Y-80240094D02*
X168507676Y-80192475D01*
X168507676Y-80192475D02*
X168412438Y-80097237D01*
X168412438Y-80097237D02*
X168364819Y-79954380D01*
X168364819Y-79954380D02*
X168364819Y-79859142D01*
X168364819Y-79859142D02*
X168412438Y-79716285D01*
X168412438Y-79716285D02*
X168460057Y-79668666D01*
X169364819Y-78716285D02*
X169364819Y-79287713D01*
X169364819Y-79001999D02*
X168364819Y-79001999D01*
X168364819Y-79001999D02*
X168507676Y-79097237D01*
X168507676Y-79097237D02*
X168602914Y-79192475D01*
X168602914Y-79192475D02*
X168650533Y-79287713D01*
X164727143Y-80509819D02*
X164822381Y-80509819D01*
X164822381Y-80509819D02*
X164917619Y-80557438D01*
X164917619Y-80557438D02*
X164965238Y-80605057D01*
X164965238Y-80605057D02*
X165012857Y-80700295D01*
X165012857Y-80700295D02*
X165060476Y-80890771D01*
X165060476Y-80890771D02*
X165060476Y-81128866D01*
X165060476Y-81128866D02*
X165012857Y-81319342D01*
X165012857Y-81319342D02*
X164965238Y-81414580D01*
X164965238Y-81414580D02*
X164917619Y-81462200D01*
X164917619Y-81462200D02*
X164822381Y-81509819D01*
X164822381Y-81509819D02*
X164727143Y-81509819D01*
X164727143Y-81509819D02*
X164631905Y-81462200D01*
X164631905Y-81462200D02*
X164584286Y-81414580D01*
X164584286Y-81414580D02*
X164536667Y-81319342D01*
X164536667Y-81319342D02*
X164489048Y-81128866D01*
X164489048Y-81128866D02*
X164489048Y-80890771D01*
X164489048Y-80890771D02*
X164536667Y-80700295D01*
X164536667Y-80700295D02*
X164584286Y-80605057D01*
X164584286Y-80605057D02*
X164631905Y-80557438D01*
X164631905Y-80557438D02*
X164727143Y-80509819D01*
X165489048Y-81414580D02*
X165536667Y-81462200D01*
X165536667Y-81462200D02*
X165489048Y-81509819D01*
X165489048Y-81509819D02*
X165441429Y-81462200D01*
X165441429Y-81462200D02*
X165489048Y-81414580D01*
X165489048Y-81414580D02*
X165489048Y-81509819D01*
X166489047Y-81509819D02*
X165917619Y-81509819D01*
X166203333Y-81509819D02*
X166203333Y-80509819D01*
X166203333Y-80509819D02*
X166108095Y-80652676D01*
X166108095Y-80652676D02*
X166012857Y-80747914D01*
X166012857Y-80747914D02*
X165917619Y-80795533D01*
X167346190Y-80843152D02*
X167346190Y-81509819D01*
X166917619Y-80843152D02*
X166917619Y-81366961D01*
X166917619Y-81366961D02*
X166965238Y-81462200D01*
X166965238Y-81462200D02*
X167060476Y-81509819D01*
X167060476Y-81509819D02*
X167203333Y-81509819D01*
X167203333Y-81509819D02*
X167298571Y-81462200D01*
X167298571Y-81462200D02*
X167346190Y-81414580D01*
X168155714Y-80986009D02*
X167822381Y-80986009D01*
X167822381Y-81509819D02*
X167822381Y-80509819D01*
X167822381Y-80509819D02*
X168298571Y-80509819D01*
X134342285Y-69654009D02*
X134485142Y-69701628D01*
X134485142Y-69701628D02*
X134532761Y-69749247D01*
X134532761Y-69749247D02*
X134580380Y-69844485D01*
X134580380Y-69844485D02*
X134580380Y-69987342D01*
X134580380Y-69987342D02*
X134532761Y-70082580D01*
X134532761Y-70082580D02*
X134485142Y-70130200D01*
X134485142Y-70130200D02*
X134389904Y-70177819D01*
X134389904Y-70177819D02*
X134008952Y-70177819D01*
X134008952Y-70177819D02*
X134008952Y-69177819D01*
X134008952Y-69177819D02*
X134342285Y-69177819D01*
X134342285Y-69177819D02*
X134437523Y-69225438D01*
X134437523Y-69225438D02*
X134485142Y-69273057D01*
X134485142Y-69273057D02*
X134532761Y-69368295D01*
X134532761Y-69368295D02*
X134532761Y-69463533D01*
X134532761Y-69463533D02*
X134485142Y-69558771D01*
X134485142Y-69558771D02*
X134437523Y-69606390D01*
X134437523Y-69606390D02*
X134342285Y-69654009D01*
X134342285Y-69654009D02*
X134008952Y-69654009D01*
X134866095Y-69177819D02*
X135437523Y-69177819D01*
X135151809Y-70177819D02*
X135151809Y-69177819D01*
X136294666Y-70177819D02*
X135723238Y-70177819D01*
X136008952Y-70177819D02*
X136008952Y-69177819D01*
X136008952Y-69177819D02*
X135913714Y-69320676D01*
X135913714Y-69320676D02*
X135818476Y-69415914D01*
X135818476Y-69415914D02*
X135723238Y-69463533D01*
X169263628Y-94396190D02*
X169739819Y-94396190D01*
X168739819Y-94729523D02*
X169263628Y-94396190D01*
X169263628Y-94396190D02*
X168739819Y-94062857D01*
X168835057Y-93777142D02*
X168787438Y-93729523D01*
X168787438Y-93729523D02*
X168739819Y-93634285D01*
X168739819Y-93634285D02*
X168739819Y-93396190D01*
X168739819Y-93396190D02*
X168787438Y-93300952D01*
X168787438Y-93300952D02*
X168835057Y-93253333D01*
X168835057Y-93253333D02*
X168930295Y-93205714D01*
X168930295Y-93205714D02*
X169025533Y-93205714D01*
X169025533Y-93205714D02*
X169168390Y-93253333D01*
X169168390Y-93253333D02*
X169739819Y-93824761D01*
X169739819Y-93824761D02*
X169739819Y-93205714D01*
X175339819Y-95991428D02*
X175339819Y-96562856D01*
X175339819Y-96277142D02*
X174339819Y-96277142D01*
X174339819Y-96277142D02*
X174482676Y-96372380D01*
X174482676Y-96372380D02*
X174577914Y-96467618D01*
X174577914Y-96467618D02*
X174625533Y-96562856D01*
X174339819Y-95134285D02*
X174339819Y-95324761D01*
X174339819Y-95324761D02*
X174387438Y-95419999D01*
X174387438Y-95419999D02*
X174435057Y-95467618D01*
X174435057Y-95467618D02*
X174577914Y-95562856D01*
X174577914Y-95562856D02*
X174768390Y-95610475D01*
X174768390Y-95610475D02*
X175149342Y-95610475D01*
X175149342Y-95610475D02*
X175244580Y-95562856D01*
X175244580Y-95562856D02*
X175292200Y-95515237D01*
X175292200Y-95515237D02*
X175339819Y-95419999D01*
X175339819Y-95419999D02*
X175339819Y-95229523D01*
X175339819Y-95229523D02*
X175292200Y-95134285D01*
X175292200Y-95134285D02*
X175244580Y-95086666D01*
X175244580Y-95086666D02*
X175149342Y-95039047D01*
X175149342Y-95039047D02*
X174911247Y-95039047D01*
X174911247Y-95039047D02*
X174816009Y-95086666D01*
X174816009Y-95086666D02*
X174768390Y-95134285D01*
X174768390Y-95134285D02*
X174720771Y-95229523D01*
X174720771Y-95229523D02*
X174720771Y-95419999D01*
X174720771Y-95419999D02*
X174768390Y-95515237D01*
X174768390Y-95515237D02*
X174816009Y-95562856D01*
X174816009Y-95562856D02*
X174911247Y-95610475D01*
X175339819Y-93848570D02*
X174339819Y-93848570D01*
X174339819Y-93848570D02*
X175054104Y-93515237D01*
X175054104Y-93515237D02*
X174339819Y-93181904D01*
X174339819Y-93181904D02*
X175339819Y-93181904D01*
X175339819Y-92705713D02*
X174339819Y-92705713D01*
X174816009Y-92705713D02*
X174816009Y-92134285D01*
X175339819Y-92134285D02*
X174339819Y-92134285D01*
X174673152Y-91753332D02*
X174673152Y-91229523D01*
X174673152Y-91229523D02*
X175339819Y-91753332D01*
X175339819Y-91753332D02*
X175339819Y-91229523D01*
X153860833Y-97864819D02*
X153527500Y-97388628D01*
X153289405Y-97864819D02*
X153289405Y-96864819D01*
X153289405Y-96864819D02*
X153670357Y-96864819D01*
X153670357Y-96864819D02*
X153765595Y-96912438D01*
X153765595Y-96912438D02*
X153813214Y-96960057D01*
X153813214Y-96960057D02*
X153860833Y-97055295D01*
X153860833Y-97055295D02*
X153860833Y-97198152D01*
X153860833Y-97198152D02*
X153813214Y-97293390D01*
X153813214Y-97293390D02*
X153765595Y-97341009D01*
X153765595Y-97341009D02*
X153670357Y-97388628D01*
X153670357Y-97388628D02*
X153289405Y-97388628D01*
X154194167Y-96864819D02*
X154813214Y-96864819D01*
X154813214Y-96864819D02*
X154479881Y-97245771D01*
X154479881Y-97245771D02*
X154622738Y-97245771D01*
X154622738Y-97245771D02*
X154717976Y-97293390D01*
X154717976Y-97293390D02*
X154765595Y-97341009D01*
X154765595Y-97341009D02*
X154813214Y-97436247D01*
X154813214Y-97436247D02*
X154813214Y-97674342D01*
X154813214Y-97674342D02*
X154765595Y-97769580D01*
X154765595Y-97769580D02*
X154717976Y-97817200D01*
X154717976Y-97817200D02*
X154622738Y-97864819D01*
X154622738Y-97864819D02*
X154337024Y-97864819D01*
X154337024Y-97864819D02*
X154241786Y-97817200D01*
X154241786Y-97817200D02*
X154194167Y-97769580D01*
X153432261Y-101164819D02*
X152860833Y-101164819D01*
X153146547Y-101164819D02*
X153146547Y-100164819D01*
X153146547Y-100164819D02*
X153051309Y-100307676D01*
X153051309Y-100307676D02*
X152956071Y-100402914D01*
X152956071Y-100402914D02*
X152860833Y-100450533D01*
X154051309Y-100164819D02*
X154146547Y-100164819D01*
X154146547Y-100164819D02*
X154241785Y-100212438D01*
X154241785Y-100212438D02*
X154289404Y-100260057D01*
X154289404Y-100260057D02*
X154337023Y-100355295D01*
X154337023Y-100355295D02*
X154384642Y-100545771D01*
X154384642Y-100545771D02*
X154384642Y-100783866D01*
X154384642Y-100783866D02*
X154337023Y-100974342D01*
X154337023Y-100974342D02*
X154289404Y-101069580D01*
X154289404Y-101069580D02*
X154241785Y-101117200D01*
X154241785Y-101117200D02*
X154146547Y-101164819D01*
X154146547Y-101164819D02*
X154051309Y-101164819D01*
X154051309Y-101164819D02*
X153956071Y-101117200D01*
X153956071Y-101117200D02*
X153908452Y-101069580D01*
X153908452Y-101069580D02*
X153860833Y-100974342D01*
X153860833Y-100974342D02*
X153813214Y-100783866D01*
X153813214Y-100783866D02*
X153813214Y-100545771D01*
X153813214Y-100545771D02*
X153860833Y-100355295D01*
X153860833Y-100355295D02*
X153908452Y-100260057D01*
X153908452Y-100260057D02*
X153956071Y-100212438D01*
X153956071Y-100212438D02*
X154051309Y-100164819D01*
X154813214Y-101164819D02*
X154813214Y-100164819D01*
X154908452Y-100783866D02*
X155194166Y-101164819D01*
X155194166Y-100498152D02*
X154813214Y-100879104D01*
X159575833Y-97864819D02*
X159242500Y-97388628D01*
X159004405Y-97864819D02*
X159004405Y-96864819D01*
X159004405Y-96864819D02*
X159385357Y-96864819D01*
X159385357Y-96864819D02*
X159480595Y-96912438D01*
X159480595Y-96912438D02*
X159528214Y-96960057D01*
X159528214Y-96960057D02*
X159575833Y-97055295D01*
X159575833Y-97055295D02*
X159575833Y-97198152D01*
X159575833Y-97198152D02*
X159528214Y-97293390D01*
X159528214Y-97293390D02*
X159480595Y-97341009D01*
X159480595Y-97341009D02*
X159385357Y-97388628D01*
X159385357Y-97388628D02*
X159004405Y-97388628D01*
X160432976Y-97198152D02*
X160432976Y-97864819D01*
X160194881Y-96817200D02*
X159956786Y-97531485D01*
X159956786Y-97531485D02*
X160575833Y-97531485D01*
X158813928Y-100498152D02*
X158813928Y-101164819D01*
X158575833Y-100117200D02*
X158337738Y-100831485D01*
X158337738Y-100831485D02*
X158956785Y-100831485D01*
X159337738Y-101069580D02*
X159385357Y-101117200D01*
X159385357Y-101117200D02*
X159337738Y-101164819D01*
X159337738Y-101164819D02*
X159290119Y-101117200D01*
X159290119Y-101117200D02*
X159337738Y-101069580D01*
X159337738Y-101069580D02*
X159337738Y-101164819D01*
X159718690Y-100164819D02*
X160385356Y-100164819D01*
X160385356Y-100164819D02*
X159956785Y-101164819D01*
X160766309Y-101164819D02*
X160766309Y-100164819D01*
X160861547Y-100783866D02*
X161147261Y-101164819D01*
X161147261Y-100498152D02*
X160766309Y-100879104D01*
X134389905Y-78178819D02*
X134389905Y-77178819D01*
X134389905Y-77178819D02*
X134628000Y-77178819D01*
X134628000Y-77178819D02*
X134770857Y-77226438D01*
X134770857Y-77226438D02*
X134866095Y-77321676D01*
X134866095Y-77321676D02*
X134913714Y-77416914D01*
X134913714Y-77416914D02*
X134961333Y-77607390D01*
X134961333Y-77607390D02*
X134961333Y-77750247D01*
X134961333Y-77750247D02*
X134913714Y-77940723D01*
X134913714Y-77940723D02*
X134866095Y-78035961D01*
X134866095Y-78035961D02*
X134770857Y-78131200D01*
X134770857Y-78131200D02*
X134628000Y-78178819D01*
X134628000Y-78178819D02*
X134389905Y-78178819D01*
X135342286Y-77274057D02*
X135389905Y-77226438D01*
X135389905Y-77226438D02*
X135485143Y-77178819D01*
X135485143Y-77178819D02*
X135723238Y-77178819D01*
X135723238Y-77178819D02*
X135818476Y-77226438D01*
X135818476Y-77226438D02*
X135866095Y-77274057D01*
X135866095Y-77274057D02*
X135913714Y-77369295D01*
X135913714Y-77369295D02*
X135913714Y-77464533D01*
X135913714Y-77464533D02*
X135866095Y-77607390D01*
X135866095Y-77607390D02*
X135294667Y-78178819D01*
X135294667Y-78178819D02*
X135913714Y-78178819D01*
X134690642Y-81734819D02*
X134214452Y-81734819D01*
X134214452Y-81734819D02*
X134214452Y-80734819D01*
X135023976Y-81211009D02*
X135357309Y-81211009D01*
X135500166Y-81734819D02*
X135023976Y-81734819D01*
X135023976Y-81734819D02*
X135023976Y-80734819D01*
X135023976Y-80734819D02*
X135500166Y-80734819D01*
X135928738Y-81734819D02*
X135928738Y-80734819D01*
X135928738Y-80734819D02*
X136166833Y-80734819D01*
X136166833Y-80734819D02*
X136309690Y-80782438D01*
X136309690Y-80782438D02*
X136404928Y-80877676D01*
X136404928Y-80877676D02*
X136452547Y-80972914D01*
X136452547Y-80972914D02*
X136500166Y-81163390D01*
X136500166Y-81163390D02*
X136500166Y-81306247D01*
X136500166Y-81306247D02*
X136452547Y-81496723D01*
X136452547Y-81496723D02*
X136404928Y-81591961D01*
X136404928Y-81591961D02*
X136309690Y-81687200D01*
X136309690Y-81687200D02*
X136166833Y-81734819D01*
X136166833Y-81734819D02*
X135928738Y-81734819D01*
X153860833Y-92149819D02*
X153527500Y-91673628D01*
X153289405Y-92149819D02*
X153289405Y-91149819D01*
X153289405Y-91149819D02*
X153670357Y-91149819D01*
X153670357Y-91149819D02*
X153765595Y-91197438D01*
X153765595Y-91197438D02*
X153813214Y-91245057D01*
X153813214Y-91245057D02*
X153860833Y-91340295D01*
X153860833Y-91340295D02*
X153860833Y-91483152D01*
X153860833Y-91483152D02*
X153813214Y-91578390D01*
X153813214Y-91578390D02*
X153765595Y-91626009D01*
X153765595Y-91626009D02*
X153670357Y-91673628D01*
X153670357Y-91673628D02*
X153289405Y-91673628D01*
X154813214Y-92149819D02*
X154241786Y-92149819D01*
X154527500Y-92149819D02*
X154527500Y-91149819D01*
X154527500Y-91149819D02*
X154432262Y-91292676D01*
X154432262Y-91292676D02*
X154337024Y-91387914D01*
X154337024Y-91387914D02*
X154241786Y-91435533D01*
X153432261Y-95449819D02*
X152860833Y-95449819D01*
X153146547Y-95449819D02*
X153146547Y-94449819D01*
X153146547Y-94449819D02*
X153051309Y-94592676D01*
X153051309Y-94592676D02*
X152956071Y-94687914D01*
X152956071Y-94687914D02*
X152860833Y-94735533D01*
X154051309Y-94449819D02*
X154146547Y-94449819D01*
X154146547Y-94449819D02*
X154241785Y-94497438D01*
X154241785Y-94497438D02*
X154289404Y-94545057D01*
X154289404Y-94545057D02*
X154337023Y-94640295D01*
X154337023Y-94640295D02*
X154384642Y-94830771D01*
X154384642Y-94830771D02*
X154384642Y-95068866D01*
X154384642Y-95068866D02*
X154337023Y-95259342D01*
X154337023Y-95259342D02*
X154289404Y-95354580D01*
X154289404Y-95354580D02*
X154241785Y-95402200D01*
X154241785Y-95402200D02*
X154146547Y-95449819D01*
X154146547Y-95449819D02*
X154051309Y-95449819D01*
X154051309Y-95449819D02*
X153956071Y-95402200D01*
X153956071Y-95402200D02*
X153908452Y-95354580D01*
X153908452Y-95354580D02*
X153860833Y-95259342D01*
X153860833Y-95259342D02*
X153813214Y-95068866D01*
X153813214Y-95068866D02*
X153813214Y-94830771D01*
X153813214Y-94830771D02*
X153860833Y-94640295D01*
X153860833Y-94640295D02*
X153908452Y-94545057D01*
X153908452Y-94545057D02*
X153956071Y-94497438D01*
X153956071Y-94497438D02*
X154051309Y-94449819D01*
X154813214Y-95449819D02*
X154813214Y-94449819D01*
X154908452Y-95068866D02*
X155194166Y-95449819D01*
X155194166Y-94783152D02*
X154813214Y-95164104D01*
X169263628Y-83661190D02*
X169739819Y-83661190D01*
X168739819Y-83994523D02*
X169263628Y-83661190D01*
X169263628Y-83661190D02*
X168739819Y-83327857D01*
X169739819Y-82470714D02*
X169739819Y-83042142D01*
X169739819Y-82756428D02*
X168739819Y-82756428D01*
X168739819Y-82756428D02*
X168882676Y-82851666D01*
X168882676Y-82851666D02*
X168977914Y-82946904D01*
X168977914Y-82946904D02*
X169025533Y-83042142D01*
X174339819Y-87470713D02*
X174339819Y-86851666D01*
X174339819Y-86851666D02*
X174720771Y-87184999D01*
X174720771Y-87184999D02*
X174720771Y-87042142D01*
X174720771Y-87042142D02*
X174768390Y-86946904D01*
X174768390Y-86946904D02*
X174816009Y-86899285D01*
X174816009Y-86899285D02*
X174911247Y-86851666D01*
X174911247Y-86851666D02*
X175149342Y-86851666D01*
X175149342Y-86851666D02*
X175244580Y-86899285D01*
X175244580Y-86899285D02*
X175292200Y-86946904D01*
X175292200Y-86946904D02*
X175339819Y-87042142D01*
X175339819Y-87042142D02*
X175339819Y-87327856D01*
X175339819Y-87327856D02*
X175292200Y-87423094D01*
X175292200Y-87423094D02*
X175244580Y-87470713D01*
X174435057Y-86470713D02*
X174387438Y-86423094D01*
X174387438Y-86423094D02*
X174339819Y-86327856D01*
X174339819Y-86327856D02*
X174339819Y-86089761D01*
X174339819Y-86089761D02*
X174387438Y-85994523D01*
X174387438Y-85994523D02*
X174435057Y-85946904D01*
X174435057Y-85946904D02*
X174530295Y-85899285D01*
X174530295Y-85899285D02*
X174625533Y-85899285D01*
X174625533Y-85899285D02*
X174768390Y-85946904D01*
X174768390Y-85946904D02*
X175339819Y-86518332D01*
X175339819Y-86518332D02*
X175339819Y-85899285D01*
X175244580Y-85470713D02*
X175292200Y-85423094D01*
X175292200Y-85423094D02*
X175339819Y-85470713D01*
X175339819Y-85470713D02*
X175292200Y-85518332D01*
X175292200Y-85518332D02*
X175244580Y-85470713D01*
X175244580Y-85470713D02*
X175339819Y-85470713D01*
X174339819Y-85089761D02*
X174339819Y-84423095D01*
X174339819Y-84423095D02*
X175339819Y-84851666D01*
X174339819Y-83613571D02*
X174339819Y-83804047D01*
X174339819Y-83804047D02*
X174387438Y-83899285D01*
X174387438Y-83899285D02*
X174435057Y-83946904D01*
X174435057Y-83946904D02*
X174577914Y-84042142D01*
X174577914Y-84042142D02*
X174768390Y-84089761D01*
X174768390Y-84089761D02*
X175149342Y-84089761D01*
X175149342Y-84089761D02*
X175244580Y-84042142D01*
X175244580Y-84042142D02*
X175292200Y-83994523D01*
X175292200Y-83994523D02*
X175339819Y-83899285D01*
X175339819Y-83899285D02*
X175339819Y-83708809D01*
X175339819Y-83708809D02*
X175292200Y-83613571D01*
X175292200Y-83613571D02*
X175244580Y-83565952D01*
X175244580Y-83565952D02*
X175149342Y-83518333D01*
X175149342Y-83518333D02*
X174911247Y-83518333D01*
X174911247Y-83518333D02*
X174816009Y-83565952D01*
X174816009Y-83565952D02*
X174768390Y-83613571D01*
X174768390Y-83613571D02*
X174720771Y-83708809D01*
X174720771Y-83708809D02*
X174720771Y-83899285D01*
X174720771Y-83899285D02*
X174768390Y-83994523D01*
X174768390Y-83994523D02*
X174816009Y-84042142D01*
X174816009Y-84042142D02*
X174911247Y-84089761D01*
X174768390Y-82946904D02*
X174720771Y-83042142D01*
X174720771Y-83042142D02*
X174673152Y-83089761D01*
X174673152Y-83089761D02*
X174577914Y-83137380D01*
X174577914Y-83137380D02*
X174530295Y-83137380D01*
X174530295Y-83137380D02*
X174435057Y-83089761D01*
X174435057Y-83089761D02*
X174387438Y-83042142D01*
X174387438Y-83042142D02*
X174339819Y-82946904D01*
X174339819Y-82946904D02*
X174339819Y-82756428D01*
X174339819Y-82756428D02*
X174387438Y-82661190D01*
X174387438Y-82661190D02*
X174435057Y-82613571D01*
X174435057Y-82613571D02*
X174530295Y-82565952D01*
X174530295Y-82565952D02*
X174577914Y-82565952D01*
X174577914Y-82565952D02*
X174673152Y-82613571D01*
X174673152Y-82613571D02*
X174720771Y-82661190D01*
X174720771Y-82661190D02*
X174768390Y-82756428D01*
X174768390Y-82756428D02*
X174768390Y-82946904D01*
X174768390Y-82946904D02*
X174816009Y-83042142D01*
X174816009Y-83042142D02*
X174863628Y-83089761D01*
X174863628Y-83089761D02*
X174958866Y-83137380D01*
X174958866Y-83137380D02*
X175149342Y-83137380D01*
X175149342Y-83137380D02*
X175244580Y-83089761D01*
X175244580Y-83089761D02*
X175292200Y-83042142D01*
X175292200Y-83042142D02*
X175339819Y-82946904D01*
X175339819Y-82946904D02*
X175339819Y-82756428D01*
X175339819Y-82756428D02*
X175292200Y-82661190D01*
X175292200Y-82661190D02*
X175244580Y-82613571D01*
X175244580Y-82613571D02*
X175149342Y-82565952D01*
X175149342Y-82565952D02*
X174958866Y-82565952D01*
X174958866Y-82565952D02*
X174863628Y-82613571D01*
X174863628Y-82613571D02*
X174816009Y-82661190D01*
X174816009Y-82661190D02*
X174768390Y-82756428D01*
X175339819Y-81375475D02*
X174339819Y-81375475D01*
X175339819Y-80804047D02*
X174768390Y-81232618D01*
X174339819Y-80804047D02*
X174911247Y-81375475D01*
X175339819Y-80375475D02*
X174339819Y-80375475D01*
X174816009Y-80375475D02*
X174816009Y-79804047D01*
X175339819Y-79804047D02*
X174339819Y-79804047D01*
X174673152Y-79423094D02*
X174673152Y-78899285D01*
X174673152Y-78899285D02*
X175339819Y-79423094D01*
X175339819Y-79423094D02*
X175339819Y-78899285D01*
X166203333Y-98374580D02*
X166155714Y-98422200D01*
X166155714Y-98422200D02*
X166012857Y-98469819D01*
X166012857Y-98469819D02*
X165917619Y-98469819D01*
X165917619Y-98469819D02*
X165774762Y-98422200D01*
X165774762Y-98422200D02*
X165679524Y-98326961D01*
X165679524Y-98326961D02*
X165631905Y-98231723D01*
X165631905Y-98231723D02*
X165584286Y-98041247D01*
X165584286Y-98041247D02*
X165584286Y-97898390D01*
X165584286Y-97898390D02*
X165631905Y-97707914D01*
X165631905Y-97707914D02*
X165679524Y-97612676D01*
X165679524Y-97612676D02*
X165774762Y-97517438D01*
X165774762Y-97517438D02*
X165917619Y-97469819D01*
X165917619Y-97469819D02*
X166012857Y-97469819D01*
X166012857Y-97469819D02*
X166155714Y-97517438D01*
X166155714Y-97517438D02*
X166203333Y-97565057D01*
X167108095Y-97469819D02*
X166631905Y-97469819D01*
X166631905Y-97469819D02*
X166584286Y-97946009D01*
X166584286Y-97946009D02*
X166631905Y-97898390D01*
X166631905Y-97898390D02*
X166727143Y-97850771D01*
X166727143Y-97850771D02*
X166965238Y-97850771D01*
X166965238Y-97850771D02*
X167060476Y-97898390D01*
X167060476Y-97898390D02*
X167108095Y-97946009D01*
X167108095Y-97946009D02*
X167155714Y-98041247D01*
X167155714Y-98041247D02*
X167155714Y-98279342D01*
X167155714Y-98279342D02*
X167108095Y-98374580D01*
X167108095Y-98374580D02*
X167060476Y-98422200D01*
X167060476Y-98422200D02*
X166965238Y-98469819D01*
X166965238Y-98469819D02*
X166727143Y-98469819D01*
X166727143Y-98469819D02*
X166631905Y-98422200D01*
X166631905Y-98422200D02*
X166584286Y-98374580D01*
X164727143Y-100925057D02*
X164774762Y-100877438D01*
X164774762Y-100877438D02*
X164870000Y-100829819D01*
X164870000Y-100829819D02*
X165108095Y-100829819D01*
X165108095Y-100829819D02*
X165203333Y-100877438D01*
X165203333Y-100877438D02*
X165250952Y-100925057D01*
X165250952Y-100925057D02*
X165298571Y-101020295D01*
X165298571Y-101020295D02*
X165298571Y-101115533D01*
X165298571Y-101115533D02*
X165250952Y-101258390D01*
X165250952Y-101258390D02*
X164679524Y-101829819D01*
X164679524Y-101829819D02*
X165298571Y-101829819D01*
X165679524Y-100925057D02*
X165727143Y-100877438D01*
X165727143Y-100877438D02*
X165822381Y-100829819D01*
X165822381Y-100829819D02*
X166060476Y-100829819D01*
X166060476Y-100829819D02*
X166155714Y-100877438D01*
X166155714Y-100877438D02*
X166203333Y-100925057D01*
X166203333Y-100925057D02*
X166250952Y-101020295D01*
X166250952Y-101020295D02*
X166250952Y-101115533D01*
X166250952Y-101115533D02*
X166203333Y-101258390D01*
X166203333Y-101258390D02*
X165631905Y-101829819D01*
X165631905Y-101829819D02*
X166250952Y-101829819D01*
X167108095Y-101163152D02*
X167108095Y-101829819D01*
X166679524Y-101163152D02*
X166679524Y-101686961D01*
X166679524Y-101686961D02*
X166727143Y-101782200D01*
X166727143Y-101782200D02*
X166822381Y-101829819D01*
X166822381Y-101829819D02*
X166965238Y-101829819D01*
X166965238Y-101829819D02*
X167060476Y-101782200D01*
X167060476Y-101782200D02*
X167108095Y-101734580D01*
X167917619Y-101306009D02*
X167584286Y-101306009D01*
X167584286Y-101829819D02*
X167584286Y-100829819D01*
X167584286Y-100829819D02*
X168060476Y-100829819D01*
D11*
%TO.C,U2*%
X141455000Y-70995000D02*
X146835000Y-70995000D01*
X141455000Y-76325000D02*
X146835000Y-76325000D01*
D12*
X138915000Y-71145000D02*
G75*
G03*
X138715000Y-71145000I-100000J0D01*
G01*
X138715000Y-71145000D02*
G75*
G03*
X138915000Y-71145000I100000J0D01*
G01*
D13*
%TO.C,J1*%
X133798000Y-84268000D02*
X135128000Y-84268000D01*
X133798000Y-85598000D02*
X133798000Y-84268000D01*
X133798000Y-86868000D02*
X133798000Y-94548000D01*
X133798000Y-86868000D02*
X136458000Y-86868000D01*
X133798000Y-94548000D02*
X136458000Y-94548000D01*
X136458000Y-86868000D02*
X136458000Y-94548000D01*
D11*
%TO.C,U5*%
X141455000Y-81155000D02*
X146835000Y-81155000D01*
X141455000Y-86485000D02*
X146835000Y-86485000D01*
D12*
X138915000Y-81305000D02*
G75*
G03*
X138715000Y-81305000I-100000J0D01*
G01*
X138715000Y-81305000D02*
G75*
G03*
X138915000Y-81305000I100000J0D01*
G01*
D11*
%TO.C,U1*%
X141764000Y-91206000D02*
X145764000Y-91206000D01*
X141764000Y-96246000D02*
X145764000Y-96246000D01*
D12*
X139419000Y-91231000D02*
G75*
G03*
X139219000Y-91231000I-100000J0D01*
G01*
X139219000Y-91231000D02*
G75*
G03*
X139419000Y-91231000I100000J0D01*
G01*
D11*
%TO.C,U3*%
X153980000Y-87320000D02*
X154085000Y-87320000D01*
X153980000Y-87320000D02*
X153980000Y-87215000D01*
X160980000Y-87320000D02*
X160875000Y-87320000D01*
X160980000Y-87320000D02*
X160980000Y-87215000D01*
X153980000Y-80320000D02*
X153980000Y-80425000D01*
X153980000Y-80320000D02*
X154085000Y-80320000D01*
X160980000Y-80320000D02*
X160980000Y-80425000D01*
X160980000Y-80320000D02*
X160875000Y-80320000D01*
D12*
X154780000Y-89660000D02*
G75*
G03*
X154580000Y-89660000I-100000J0D01*
G01*
X154580000Y-89660000D02*
G75*
G03*
X154780000Y-89660000I100000J0D01*
G01*
D13*
%TO.C,J4*%
X133544000Y-105724000D02*
X133544000Y-104394000D01*
X134874000Y-105724000D02*
X133544000Y-105724000D01*
X136144000Y-105724000D02*
X156524000Y-105724000D01*
X136144000Y-105724000D02*
X136144000Y-103064000D01*
X156524000Y-105724000D02*
X156524000Y-103064000D01*
X136144000Y-103064000D02*
X156524000Y-103064000D01*
%TO.C,D1*%
X133443000Y-97328000D02*
X133443000Y-99248000D01*
X133443000Y-99248000D02*
X136128000Y-99248000D01*
X136128000Y-97328000D02*
X133443000Y-97328000D01*
%TO.C,C4*%
X166108748Y-93880000D02*
X166631252Y-93880000D01*
X166108748Y-95350000D02*
X166631252Y-95350000D01*
%TO.C,C3*%
X166108748Y-88800000D02*
X166631252Y-88800000D01*
X166108748Y-90270000D02*
X166631252Y-90270000D01*
%TO.C,C2*%
X166108748Y-83720000D02*
X166631252Y-83720000D01*
X166108748Y-85190000D02*
X166631252Y-85190000D01*
%TO.C,R7*%
X144094564Y-100430000D02*
X143640436Y-100430000D01*
X144094564Y-98960000D02*
X143640436Y-98960000D01*
%TO.C,J2*%
X163516000Y-105724000D02*
X163516000Y-104394000D01*
X164846000Y-105724000D02*
X163516000Y-105724000D01*
X166116000Y-105724000D02*
X173796000Y-105724000D01*
X166116000Y-105724000D02*
X166116000Y-103064000D01*
X173796000Y-105724000D02*
X173796000Y-103064000D01*
X166116000Y-103064000D02*
X173796000Y-103064000D01*
%TO.C,R6*%
X159285000Y-73609564D02*
X159285000Y-73155436D01*
X160755000Y-73609564D02*
X160755000Y-73155436D01*
%TO.C,R2*%
X159515436Y-92610000D02*
X159969564Y-92610000D01*
X159515436Y-94080000D02*
X159969564Y-94080000D01*
%TO.C,R5*%
X154659000Y-73178936D02*
X154659000Y-73633064D01*
X153189000Y-73178936D02*
X153189000Y-73633064D01*
%TO.C,J3*%
X165802000Y-76275000D02*
X173542000Y-76275000D01*
X165802000Y-76275000D02*
X165802000Y-73675000D01*
X173542000Y-76275000D02*
X173542000Y-71075000D01*
X165802000Y-73675000D02*
X168402000Y-73675000D01*
X168402000Y-73675000D02*
X168402000Y-71075000D01*
X165802000Y-72405000D02*
X165802000Y-71075000D01*
X165802000Y-71075000D02*
X167132000Y-71075000D01*
X168402000Y-71075000D02*
X173542000Y-71075000D01*
%TO.C,C1*%
X166108748Y-78640000D02*
X166631252Y-78640000D01*
X166108748Y-80110000D02*
X166631252Y-80110000D01*
%TO.C,BT1*%
X133798000Y-70918000D02*
X135128000Y-70918000D01*
X133798000Y-72248000D02*
X133798000Y-70918000D01*
X133798000Y-73518000D02*
X133798000Y-76118000D01*
X133798000Y-73518000D02*
X136458000Y-73518000D01*
X133798000Y-76118000D02*
X136458000Y-76118000D01*
X136458000Y-73518000D02*
X136458000Y-76118000D01*
%TO.C,Y2*%
X170285000Y-98470000D02*
X173885000Y-98470000D01*
X173885000Y-98470000D02*
X173885000Y-91220000D01*
X170285000Y-91220000D02*
X170285000Y-98470000D01*
%TO.C,R3*%
X153800436Y-98325000D02*
X154254564Y-98325000D01*
X153800436Y-99795000D02*
X154254564Y-99795000D01*
%TO.C,R4*%
X159515436Y-98325000D02*
X159969564Y-98325000D01*
X159515436Y-99795000D02*
X159969564Y-99795000D01*
%TO.C,D2*%
X133521500Y-78542000D02*
X133521500Y-80462000D01*
X133521500Y-80462000D02*
X136206500Y-80462000D01*
X136206500Y-78542000D02*
X133521500Y-78542000D01*
%TO.C,R1*%
X153800436Y-92610000D02*
X154254564Y-92610000D01*
X153800436Y-94080000D02*
X154254564Y-94080000D01*
%TO.C,Y1*%
X170285000Y-87735000D02*
X173885000Y-87735000D01*
X173885000Y-87735000D02*
X173885000Y-80485000D01*
X170285000Y-80485000D02*
X170285000Y-87735000D01*
%TO.C,C5*%
X166108748Y-98960000D02*
X166631252Y-98960000D01*
X166108748Y-100430000D02*
X166631252Y-100430000D01*
%TD*%
M02*
