%TF.GenerationSoftware,KiCad,Pcbnew,7.0.10*%
%TF.CreationDate,2024-02-27T03:30:27+03:00*%
%TF.ProjectId,Arduino_Datalogger,41726475-696e-46f5-9f44-6174616c6f67,1.0*%
%TF.SameCoordinates,Original*%
%TF.FileFunction,Drillmap*%
%TF.FilePolarity,Positive*%
%FSLAX45Y45*%
G04 Gerber Fmt 4.5, Leading zero omitted, Abs format (unit mm)*
G04 Created by KiCad (PCBNEW 7.0.10) date 2024-02-27 03:30:27*
%MOMM*%
%LPD*%
G01*
G04 APERTURE LIST*
%ADD10C,0.100000*%
%ADD11C,0.200000*%
G04 APERTURE END LIST*
D10*
X13157200Y-10490200D02*
G75*
G03*
X13462000Y-10795000I0J-304800D01*
G01*
X17576800Y-10490200D02*
X17576800Y-7188200D01*
X13157200Y-7188200D02*
X13157200Y-10490200D01*
X17576800Y-7188200D02*
G75*
G03*
X17272000Y-6883400I0J304800D01*
G01*
X17272000Y-6883400D02*
X13462000Y-6883400D01*
X13462000Y-10795000D02*
X17272000Y-10795000D01*
X17272000Y-10795000D02*
G75*
G03*
X17576800Y-10490200I304800J0D01*
G01*
X13462000Y-6883400D02*
G75*
G03*
X13157200Y-7188200I-304800J0D01*
G01*
D11*
D10*
X14270300Y-9186640D02*
X14310300Y-9226640D01*
X14310300Y-9186640D02*
X14270300Y-9226640D01*
X14441970Y-9543100D02*
X14481970Y-9583100D01*
X14481970Y-9543100D02*
X14441970Y-9583100D01*
X14442930Y-9426480D02*
X14482930Y-9466480D01*
X14482930Y-9426480D02*
X14442930Y-9466480D01*
X14501890Y-9066910D02*
X14541890Y-9106910D01*
X14541890Y-9066910D02*
X14501890Y-9106910D01*
X14764570Y-8655110D02*
X14804570Y-8695110D01*
X14804570Y-8655110D02*
X14764570Y-8695110D01*
X14905020Y-8424440D02*
X14945020Y-8464440D01*
X14945020Y-8424440D02*
X14905020Y-8464440D01*
X15175600Y-8343760D02*
X15215600Y-8383760D01*
X15215600Y-8343760D02*
X15175600Y-8383760D01*
X15221450Y-8731550D02*
X15261450Y-8771550D01*
X15261450Y-8731550D02*
X15221450Y-8771550D01*
X15291500Y-9647030D02*
X15331500Y-9687030D01*
X15331500Y-9647030D02*
X15291500Y-9687030D01*
X15358160Y-8857670D02*
X15398160Y-8897670D01*
X15398160Y-8857670D02*
X15358160Y-8897670D01*
X15445180Y-8402000D02*
X15485180Y-8442000D01*
X15485180Y-8402000D02*
X15445180Y-8442000D01*
X15478530Y-8915080D02*
X15518530Y-8955080D01*
X15518530Y-8915080D02*
X15478530Y-8955080D01*
X15490190Y-8632930D02*
X15530190Y-8672930D01*
X15530190Y-8632930D02*
X15490190Y-8672930D01*
X15922900Y-8482000D02*
X15962900Y-8522000D01*
X15962900Y-8482000D02*
X15922900Y-8522000D01*
X15977800Y-8640130D02*
X16017800Y-8680130D01*
X16017800Y-8640130D02*
X15977800Y-8680130D01*
X15984510Y-8402000D02*
X16024510Y-8442000D01*
X16024510Y-8402000D02*
X15984510Y-8442000D01*
X15986040Y-7578180D02*
X16026040Y-7618180D01*
X16026040Y-7578180D02*
X15986040Y-7618180D01*
X16131540Y-8783060D02*
X16171540Y-8823060D01*
X16171540Y-8783060D02*
X16131540Y-8823060D01*
X16145000Y-7990090D02*
X16185000Y-8030090D01*
X16185000Y-7990090D02*
X16145000Y-8030090D01*
X16243430Y-8792840D02*
X16283430Y-8832840D01*
X16283430Y-8792840D02*
X16243430Y-8832840D01*
X17005280Y-8038500D02*
X17045280Y-8078500D01*
X17045280Y-8038500D02*
X17005280Y-8078500D01*
X17006800Y-8591220D02*
X17046800Y-8631220D01*
X17046800Y-8591220D02*
X17006800Y-8631220D01*
X13537400Y-10439400D02*
G75*
G03*
X13437400Y-10439400I-50000J0D01*
G01*
X13437400Y-10439400D02*
G75*
G03*
X13537400Y-10439400I50000J0D01*
G01*
X13562800Y-7224800D02*
G75*
G03*
X13462800Y-7224800I-50000J0D01*
G01*
X13462800Y-7224800D02*
G75*
G03*
X13562800Y-7224800I50000J0D01*
G01*
X13562800Y-7478800D02*
G75*
G03*
X13462800Y-7478800I-50000J0D01*
G01*
X13462800Y-7478800D02*
G75*
G03*
X13562800Y-7478800I50000J0D01*
G01*
X13562800Y-8559800D02*
G75*
G03*
X13462800Y-8559800I-50000J0D01*
G01*
X13462800Y-8559800D02*
G75*
G03*
X13562800Y-8559800I50000J0D01*
G01*
X13562800Y-8813800D02*
G75*
G03*
X13462800Y-8813800I-50000J0D01*
G01*
X13462800Y-8813800D02*
G75*
G03*
X13562800Y-8813800I50000J0D01*
G01*
X13562800Y-9067800D02*
G75*
G03*
X13462800Y-9067800I-50000J0D01*
G01*
X13462800Y-9067800D02*
G75*
G03*
X13562800Y-9067800I50000J0D01*
G01*
X13562800Y-9321800D02*
G75*
G03*
X13462800Y-9321800I-50000J0D01*
G01*
X13462800Y-9321800D02*
G75*
G03*
X13562800Y-9321800I50000J0D01*
G01*
X13791400Y-10439400D02*
G75*
G03*
X13691400Y-10439400I-50000J0D01*
G01*
X13691400Y-10439400D02*
G75*
G03*
X13791400Y-10439400I50000J0D01*
G01*
X14045400Y-10439400D02*
G75*
G03*
X13945400Y-10439400I-50000J0D01*
G01*
X13945400Y-10439400D02*
G75*
G03*
X14045400Y-10439400I50000J0D01*
G01*
X14299400Y-10439400D02*
G75*
G03*
X14199400Y-10439400I-50000J0D01*
G01*
X14199400Y-10439400D02*
G75*
G03*
X14299400Y-10439400I50000J0D01*
G01*
X14553400Y-10439400D02*
G75*
G03*
X14453400Y-10439400I-50000J0D01*
G01*
X14453400Y-10439400D02*
G75*
G03*
X14553400Y-10439400I50000J0D01*
G01*
X14807400Y-10439400D02*
G75*
G03*
X14707400Y-10439400I-50000J0D01*
G01*
X14707400Y-10439400D02*
G75*
G03*
X14807400Y-10439400I50000J0D01*
G01*
X15061400Y-10439400D02*
G75*
G03*
X14961400Y-10439400I-50000J0D01*
G01*
X14961400Y-10439400D02*
G75*
G03*
X15061400Y-10439400I50000J0D01*
G01*
X15315400Y-10439400D02*
G75*
G03*
X15215400Y-10439400I-50000J0D01*
G01*
X15215400Y-10439400D02*
G75*
G03*
X15315400Y-10439400I50000J0D01*
G01*
X15569400Y-10439400D02*
G75*
G03*
X15469400Y-10439400I-50000J0D01*
G01*
X15469400Y-10439400D02*
G75*
G03*
X15569400Y-10439400I50000J0D01*
G01*
X16534600Y-10439400D02*
G75*
G03*
X16434600Y-10439400I-50000J0D01*
G01*
X16434600Y-10439400D02*
G75*
G03*
X16534600Y-10439400I50000J0D01*
G01*
X16763200Y-7240500D02*
G75*
G03*
X16663200Y-7240500I-50000J0D01*
G01*
X16663200Y-7240500D02*
G75*
G03*
X16763200Y-7240500I50000J0D01*
G01*
X16763200Y-7494500D02*
G75*
G03*
X16663200Y-7494500I-50000J0D01*
G01*
X16663200Y-7494500D02*
G75*
G03*
X16763200Y-7494500I50000J0D01*
G01*
X16788600Y-10439400D02*
G75*
G03*
X16688600Y-10439400I-50000J0D01*
G01*
X16688600Y-10439400D02*
G75*
G03*
X16788600Y-10439400I50000J0D01*
G01*
X17017200Y-7240500D02*
G75*
G03*
X16917200Y-7240500I-50000J0D01*
G01*
X16917200Y-7240500D02*
G75*
G03*
X17017200Y-7240500I50000J0D01*
G01*
X17017200Y-7494500D02*
G75*
G03*
X16917200Y-7494500I-50000J0D01*
G01*
X16917200Y-7494500D02*
G75*
G03*
X17017200Y-7494500I50000J0D01*
G01*
X17042600Y-10439400D02*
G75*
G03*
X16942600Y-10439400I-50000J0D01*
G01*
X16942600Y-10439400D02*
G75*
G03*
X17042600Y-10439400I50000J0D01*
G01*
X17271200Y-7240500D02*
G75*
G03*
X17171200Y-7240500I-50000J0D01*
G01*
X17171200Y-7240500D02*
G75*
G03*
X17271200Y-7240500I50000J0D01*
G01*
X17271200Y-7494500D02*
G75*
G03*
X17171200Y-7494500I-50000J0D01*
G01*
X17171200Y-7494500D02*
G75*
G03*
X17271200Y-7494500I50000J0D01*
G01*
X17296600Y-10439400D02*
G75*
G03*
X17196600Y-10439400I-50000J0D01*
G01*
X17196600Y-10439400D02*
G75*
G03*
X17296600Y-10439400I50000J0D01*
G01*
D11*
X13108177Y-11416284D02*
X13108177Y-11216284D01*
X13108177Y-11216284D02*
X13155796Y-11216284D01*
X13155796Y-11216284D02*
X13184367Y-11225808D01*
X13184367Y-11225808D02*
X13203415Y-11244855D01*
X13203415Y-11244855D02*
X13212939Y-11263903D01*
X13212939Y-11263903D02*
X13222462Y-11301998D01*
X13222462Y-11301998D02*
X13222462Y-11330569D01*
X13222462Y-11330569D02*
X13212939Y-11368665D01*
X13212939Y-11368665D02*
X13203415Y-11387712D01*
X13203415Y-11387712D02*
X13184367Y-11406760D01*
X13184367Y-11406760D02*
X13155796Y-11416284D01*
X13155796Y-11416284D02*
X13108177Y-11416284D01*
X13308177Y-11416284D02*
X13308177Y-11282950D01*
X13308177Y-11321046D02*
X13317701Y-11301998D01*
X13317701Y-11301998D02*
X13327224Y-11292474D01*
X13327224Y-11292474D02*
X13346272Y-11282950D01*
X13346272Y-11282950D02*
X13365320Y-11282950D01*
X13431986Y-11416284D02*
X13431986Y-11282950D01*
X13431986Y-11216284D02*
X13422462Y-11225808D01*
X13422462Y-11225808D02*
X13431986Y-11235331D01*
X13431986Y-11235331D02*
X13441510Y-11225808D01*
X13441510Y-11225808D02*
X13431986Y-11216284D01*
X13431986Y-11216284D02*
X13431986Y-11235331D01*
X13555796Y-11416284D02*
X13536748Y-11406760D01*
X13536748Y-11406760D02*
X13527224Y-11387712D01*
X13527224Y-11387712D02*
X13527224Y-11216284D01*
X13660558Y-11416284D02*
X13641510Y-11406760D01*
X13641510Y-11406760D02*
X13631986Y-11387712D01*
X13631986Y-11387712D02*
X13631986Y-11216284D01*
X13889129Y-11416284D02*
X13889129Y-11216284D01*
X13889129Y-11216284D02*
X13955796Y-11359141D01*
X13955796Y-11359141D02*
X14022462Y-11216284D01*
X14022462Y-11216284D02*
X14022462Y-11416284D01*
X14203415Y-11416284D02*
X14203415Y-11311522D01*
X14203415Y-11311522D02*
X14193891Y-11292474D01*
X14193891Y-11292474D02*
X14174843Y-11282950D01*
X14174843Y-11282950D02*
X14136748Y-11282950D01*
X14136748Y-11282950D02*
X14117701Y-11292474D01*
X14203415Y-11406760D02*
X14184367Y-11416284D01*
X14184367Y-11416284D02*
X14136748Y-11416284D01*
X14136748Y-11416284D02*
X14117701Y-11406760D01*
X14117701Y-11406760D02*
X14108177Y-11387712D01*
X14108177Y-11387712D02*
X14108177Y-11368665D01*
X14108177Y-11368665D02*
X14117701Y-11349617D01*
X14117701Y-11349617D02*
X14136748Y-11340093D01*
X14136748Y-11340093D02*
X14184367Y-11340093D01*
X14184367Y-11340093D02*
X14203415Y-11330569D01*
X14298653Y-11282950D02*
X14298653Y-11482950D01*
X14298653Y-11292474D02*
X14317701Y-11282950D01*
X14317701Y-11282950D02*
X14355796Y-11282950D01*
X14355796Y-11282950D02*
X14374843Y-11292474D01*
X14374843Y-11292474D02*
X14384367Y-11301998D01*
X14384367Y-11301998D02*
X14393891Y-11321046D01*
X14393891Y-11321046D02*
X14393891Y-11378188D01*
X14393891Y-11378188D02*
X14384367Y-11397236D01*
X14384367Y-11397236D02*
X14374843Y-11406760D01*
X14374843Y-11406760D02*
X14355796Y-11416284D01*
X14355796Y-11416284D02*
X14317701Y-11416284D01*
X14317701Y-11416284D02*
X14298653Y-11406760D01*
X14479605Y-11397236D02*
X14489129Y-11406760D01*
X14489129Y-11406760D02*
X14479605Y-11416284D01*
X14479605Y-11416284D02*
X14470082Y-11406760D01*
X14470082Y-11406760D02*
X14479605Y-11397236D01*
X14479605Y-11397236D02*
X14479605Y-11416284D01*
X14479605Y-11292474D02*
X14489129Y-11301998D01*
X14489129Y-11301998D02*
X14479605Y-11311522D01*
X14479605Y-11311522D02*
X14470082Y-11301998D01*
X14470082Y-11301998D02*
X14479605Y-11292474D01*
X14479605Y-11292474D02*
X14479605Y-11311522D01*
D10*
X12807400Y-11724800D02*
X12847400Y-11764800D01*
X12847400Y-11724800D02*
X12807400Y-11764800D01*
D11*
X13146272Y-11636284D02*
X13165320Y-11636284D01*
X13165320Y-11636284D02*
X13184367Y-11645808D01*
X13184367Y-11645808D02*
X13193891Y-11655331D01*
X13193891Y-11655331D02*
X13203415Y-11674379D01*
X13203415Y-11674379D02*
X13212939Y-11712474D01*
X13212939Y-11712474D02*
X13212939Y-11760093D01*
X13212939Y-11760093D02*
X13203415Y-11798188D01*
X13203415Y-11798188D02*
X13193891Y-11817236D01*
X13193891Y-11817236D02*
X13184367Y-11826760D01*
X13184367Y-11826760D02*
X13165320Y-11836284D01*
X13165320Y-11836284D02*
X13146272Y-11836284D01*
X13146272Y-11836284D02*
X13127224Y-11826760D01*
X13127224Y-11826760D02*
X13117701Y-11817236D01*
X13117701Y-11817236D02*
X13108177Y-11798188D01*
X13108177Y-11798188D02*
X13098653Y-11760093D01*
X13098653Y-11760093D02*
X13098653Y-11712474D01*
X13098653Y-11712474D02*
X13108177Y-11674379D01*
X13108177Y-11674379D02*
X13117701Y-11655331D01*
X13117701Y-11655331D02*
X13127224Y-11645808D01*
X13127224Y-11645808D02*
X13146272Y-11636284D01*
X13298653Y-11817236D02*
X13308177Y-11826760D01*
X13308177Y-11826760D02*
X13298653Y-11836284D01*
X13298653Y-11836284D02*
X13289129Y-11826760D01*
X13289129Y-11826760D02*
X13298653Y-11817236D01*
X13298653Y-11817236D02*
X13298653Y-11836284D01*
X13479605Y-11702950D02*
X13479605Y-11836284D01*
X13431986Y-11626760D02*
X13384367Y-11769617D01*
X13384367Y-11769617D02*
X13508177Y-11769617D01*
X13622462Y-11636284D02*
X13641510Y-11636284D01*
X13641510Y-11636284D02*
X13660558Y-11645808D01*
X13660558Y-11645808D02*
X13670082Y-11655331D01*
X13670082Y-11655331D02*
X13679605Y-11674379D01*
X13679605Y-11674379D02*
X13689129Y-11712474D01*
X13689129Y-11712474D02*
X13689129Y-11760093D01*
X13689129Y-11760093D02*
X13679605Y-11798188D01*
X13679605Y-11798188D02*
X13670082Y-11817236D01*
X13670082Y-11817236D02*
X13660558Y-11826760D01*
X13660558Y-11826760D02*
X13641510Y-11836284D01*
X13641510Y-11836284D02*
X13622462Y-11836284D01*
X13622462Y-11836284D02*
X13603415Y-11826760D01*
X13603415Y-11826760D02*
X13593891Y-11817236D01*
X13593891Y-11817236D02*
X13584367Y-11798188D01*
X13584367Y-11798188D02*
X13574843Y-11760093D01*
X13574843Y-11760093D02*
X13574843Y-11712474D01*
X13574843Y-11712474D02*
X13584367Y-11674379D01*
X13584367Y-11674379D02*
X13593891Y-11655331D01*
X13593891Y-11655331D02*
X13603415Y-11645808D01*
X13603415Y-11645808D02*
X13622462Y-11636284D01*
X13812939Y-11636284D02*
X13831986Y-11636284D01*
X13831986Y-11636284D02*
X13851034Y-11645808D01*
X13851034Y-11645808D02*
X13860558Y-11655331D01*
X13860558Y-11655331D02*
X13870082Y-11674379D01*
X13870082Y-11674379D02*
X13879605Y-11712474D01*
X13879605Y-11712474D02*
X13879605Y-11760093D01*
X13879605Y-11760093D02*
X13870082Y-11798188D01*
X13870082Y-11798188D02*
X13860558Y-11817236D01*
X13860558Y-11817236D02*
X13851034Y-11826760D01*
X13851034Y-11826760D02*
X13831986Y-11836284D01*
X13831986Y-11836284D02*
X13812939Y-11836284D01*
X13812939Y-11836284D02*
X13793891Y-11826760D01*
X13793891Y-11826760D02*
X13784367Y-11817236D01*
X13784367Y-11817236D02*
X13774843Y-11798188D01*
X13774843Y-11798188D02*
X13765320Y-11760093D01*
X13765320Y-11760093D02*
X13765320Y-11712474D01*
X13765320Y-11712474D02*
X13774843Y-11674379D01*
X13774843Y-11674379D02*
X13784367Y-11655331D01*
X13784367Y-11655331D02*
X13793891Y-11645808D01*
X13793891Y-11645808D02*
X13812939Y-11636284D01*
X13965320Y-11836284D02*
X13965320Y-11702950D01*
X13965320Y-11721998D02*
X13974843Y-11712474D01*
X13974843Y-11712474D02*
X13993891Y-11702950D01*
X13993891Y-11702950D02*
X14022463Y-11702950D01*
X14022463Y-11702950D02*
X14041510Y-11712474D01*
X14041510Y-11712474D02*
X14051034Y-11731522D01*
X14051034Y-11731522D02*
X14051034Y-11836284D01*
X14051034Y-11731522D02*
X14060558Y-11712474D01*
X14060558Y-11712474D02*
X14079605Y-11702950D01*
X14079605Y-11702950D02*
X14108177Y-11702950D01*
X14108177Y-11702950D02*
X14127224Y-11712474D01*
X14127224Y-11712474D02*
X14136748Y-11731522D01*
X14136748Y-11731522D02*
X14136748Y-11836284D01*
X14231986Y-11836284D02*
X14231986Y-11702950D01*
X14231986Y-11721998D02*
X14241510Y-11712474D01*
X14241510Y-11712474D02*
X14260558Y-11702950D01*
X14260558Y-11702950D02*
X14289129Y-11702950D01*
X14289129Y-11702950D02*
X14308177Y-11712474D01*
X14308177Y-11712474D02*
X14317701Y-11731522D01*
X14317701Y-11731522D02*
X14317701Y-11836284D01*
X14317701Y-11731522D02*
X14327224Y-11712474D01*
X14327224Y-11712474D02*
X14346272Y-11702950D01*
X14346272Y-11702950D02*
X14374843Y-11702950D01*
X14374843Y-11702950D02*
X14393891Y-11712474D01*
X14393891Y-11712474D02*
X14403415Y-11731522D01*
X14403415Y-11731522D02*
X14403415Y-11836284D01*
X14793891Y-11626760D02*
X14622463Y-11883903D01*
X15051034Y-11636284D02*
X15070082Y-11636284D01*
X15070082Y-11636284D02*
X15089129Y-11645808D01*
X15089129Y-11645808D02*
X15098653Y-11655331D01*
X15098653Y-11655331D02*
X15108177Y-11674379D01*
X15108177Y-11674379D02*
X15117701Y-11712474D01*
X15117701Y-11712474D02*
X15117701Y-11760093D01*
X15117701Y-11760093D02*
X15108177Y-11798188D01*
X15108177Y-11798188D02*
X15098653Y-11817236D01*
X15098653Y-11817236D02*
X15089129Y-11826760D01*
X15089129Y-11826760D02*
X15070082Y-11836284D01*
X15070082Y-11836284D02*
X15051034Y-11836284D01*
X15051034Y-11836284D02*
X15031986Y-11826760D01*
X15031986Y-11826760D02*
X15022463Y-11817236D01*
X15022463Y-11817236D02*
X15012939Y-11798188D01*
X15012939Y-11798188D02*
X15003415Y-11760093D01*
X15003415Y-11760093D02*
X15003415Y-11712474D01*
X15003415Y-11712474D02*
X15012939Y-11674379D01*
X15012939Y-11674379D02*
X15022463Y-11655331D01*
X15022463Y-11655331D02*
X15031986Y-11645808D01*
X15031986Y-11645808D02*
X15051034Y-11636284D01*
X15203415Y-11817236D02*
X15212939Y-11826760D01*
X15212939Y-11826760D02*
X15203415Y-11836284D01*
X15203415Y-11836284D02*
X15193891Y-11826760D01*
X15193891Y-11826760D02*
X15203415Y-11817236D01*
X15203415Y-11817236D02*
X15203415Y-11836284D01*
X15336748Y-11636284D02*
X15355796Y-11636284D01*
X15355796Y-11636284D02*
X15374844Y-11645808D01*
X15374844Y-11645808D02*
X15384367Y-11655331D01*
X15384367Y-11655331D02*
X15393891Y-11674379D01*
X15393891Y-11674379D02*
X15403415Y-11712474D01*
X15403415Y-11712474D02*
X15403415Y-11760093D01*
X15403415Y-11760093D02*
X15393891Y-11798188D01*
X15393891Y-11798188D02*
X15384367Y-11817236D01*
X15384367Y-11817236D02*
X15374844Y-11826760D01*
X15374844Y-11826760D02*
X15355796Y-11836284D01*
X15355796Y-11836284D02*
X15336748Y-11836284D01*
X15336748Y-11836284D02*
X15317701Y-11826760D01*
X15317701Y-11826760D02*
X15308177Y-11817236D01*
X15308177Y-11817236D02*
X15298653Y-11798188D01*
X15298653Y-11798188D02*
X15289129Y-11760093D01*
X15289129Y-11760093D02*
X15289129Y-11712474D01*
X15289129Y-11712474D02*
X15298653Y-11674379D01*
X15298653Y-11674379D02*
X15308177Y-11655331D01*
X15308177Y-11655331D02*
X15317701Y-11645808D01*
X15317701Y-11645808D02*
X15336748Y-11636284D01*
X15593891Y-11836284D02*
X15479606Y-11836284D01*
X15536748Y-11836284D02*
X15536748Y-11636284D01*
X15536748Y-11636284D02*
X15517701Y-11664855D01*
X15517701Y-11664855D02*
X15498653Y-11683903D01*
X15498653Y-11683903D02*
X15479606Y-11693427D01*
X15774844Y-11636284D02*
X15679606Y-11636284D01*
X15679606Y-11636284D02*
X15670082Y-11731522D01*
X15670082Y-11731522D02*
X15679606Y-11721998D01*
X15679606Y-11721998D02*
X15698653Y-11712474D01*
X15698653Y-11712474D02*
X15746272Y-11712474D01*
X15746272Y-11712474D02*
X15765320Y-11721998D01*
X15765320Y-11721998D02*
X15774844Y-11731522D01*
X15774844Y-11731522D02*
X15784367Y-11750569D01*
X15784367Y-11750569D02*
X15784367Y-11798188D01*
X15784367Y-11798188D02*
X15774844Y-11817236D01*
X15774844Y-11817236D02*
X15765320Y-11826760D01*
X15765320Y-11826760D02*
X15746272Y-11836284D01*
X15746272Y-11836284D02*
X15698653Y-11836284D01*
X15698653Y-11836284D02*
X15679606Y-11826760D01*
X15679606Y-11826760D02*
X15670082Y-11817236D01*
X15851034Y-11636284D02*
X15984367Y-11636284D01*
X15984367Y-11636284D02*
X15898653Y-11836284D01*
X16051034Y-11636284D02*
X16051034Y-11674379D01*
X16127225Y-11636284D02*
X16127225Y-11674379D01*
X16422463Y-11912474D02*
X16412939Y-11902950D01*
X16412939Y-11902950D02*
X16393891Y-11874379D01*
X16393891Y-11874379D02*
X16384368Y-11855331D01*
X16384368Y-11855331D02*
X16374844Y-11826760D01*
X16374844Y-11826760D02*
X16365320Y-11779141D01*
X16365320Y-11779141D02*
X16365320Y-11741046D01*
X16365320Y-11741046D02*
X16374844Y-11693427D01*
X16374844Y-11693427D02*
X16384368Y-11664855D01*
X16384368Y-11664855D02*
X16393891Y-11645808D01*
X16393891Y-11645808D02*
X16412939Y-11617236D01*
X16412939Y-11617236D02*
X16422463Y-11607712D01*
X16489129Y-11655331D02*
X16498653Y-11645808D01*
X16498653Y-11645808D02*
X16517701Y-11636284D01*
X16517701Y-11636284D02*
X16565320Y-11636284D01*
X16565320Y-11636284D02*
X16584368Y-11645808D01*
X16584368Y-11645808D02*
X16593891Y-11655331D01*
X16593891Y-11655331D02*
X16603415Y-11674379D01*
X16603415Y-11674379D02*
X16603415Y-11693427D01*
X16603415Y-11693427D02*
X16593891Y-11721998D01*
X16593891Y-11721998D02*
X16479606Y-11836284D01*
X16479606Y-11836284D02*
X16603415Y-11836284D01*
X16679606Y-11655331D02*
X16689129Y-11645808D01*
X16689129Y-11645808D02*
X16708177Y-11636284D01*
X16708177Y-11636284D02*
X16755796Y-11636284D01*
X16755796Y-11636284D02*
X16774844Y-11645808D01*
X16774844Y-11645808D02*
X16784368Y-11655331D01*
X16784368Y-11655331D02*
X16793891Y-11674379D01*
X16793891Y-11674379D02*
X16793891Y-11693427D01*
X16793891Y-11693427D02*
X16784368Y-11721998D01*
X16784368Y-11721998D02*
X16670082Y-11836284D01*
X16670082Y-11836284D02*
X16793891Y-11836284D01*
X17031987Y-11836284D02*
X17031987Y-11636284D01*
X17117701Y-11836284D02*
X17117701Y-11731522D01*
X17117701Y-11731522D02*
X17108177Y-11712474D01*
X17108177Y-11712474D02*
X17089130Y-11702950D01*
X17089130Y-11702950D02*
X17060558Y-11702950D01*
X17060558Y-11702950D02*
X17041511Y-11712474D01*
X17041511Y-11712474D02*
X17031987Y-11721998D01*
X17241511Y-11836284D02*
X17222463Y-11826760D01*
X17222463Y-11826760D02*
X17212939Y-11817236D01*
X17212939Y-11817236D02*
X17203415Y-11798188D01*
X17203415Y-11798188D02*
X17203415Y-11741046D01*
X17203415Y-11741046D02*
X17212939Y-11721998D01*
X17212939Y-11721998D02*
X17222463Y-11712474D01*
X17222463Y-11712474D02*
X17241511Y-11702950D01*
X17241511Y-11702950D02*
X17270082Y-11702950D01*
X17270082Y-11702950D02*
X17289130Y-11712474D01*
X17289130Y-11712474D02*
X17298653Y-11721998D01*
X17298653Y-11721998D02*
X17308177Y-11741046D01*
X17308177Y-11741046D02*
X17308177Y-11798188D01*
X17308177Y-11798188D02*
X17298653Y-11817236D01*
X17298653Y-11817236D02*
X17289130Y-11826760D01*
X17289130Y-11826760D02*
X17270082Y-11836284D01*
X17270082Y-11836284D02*
X17241511Y-11836284D01*
X17422463Y-11836284D02*
X17403415Y-11826760D01*
X17403415Y-11826760D02*
X17393892Y-11807712D01*
X17393892Y-11807712D02*
X17393892Y-11636284D01*
X17574844Y-11826760D02*
X17555796Y-11836284D01*
X17555796Y-11836284D02*
X17517701Y-11836284D01*
X17517701Y-11836284D02*
X17498653Y-11826760D01*
X17498653Y-11826760D02*
X17489130Y-11807712D01*
X17489130Y-11807712D02*
X17489130Y-11731522D01*
X17489130Y-11731522D02*
X17498653Y-11712474D01*
X17498653Y-11712474D02*
X17517701Y-11702950D01*
X17517701Y-11702950D02*
X17555796Y-11702950D01*
X17555796Y-11702950D02*
X17574844Y-11712474D01*
X17574844Y-11712474D02*
X17584368Y-11731522D01*
X17584368Y-11731522D02*
X17584368Y-11750569D01*
X17584368Y-11750569D02*
X17489130Y-11769617D01*
X17660558Y-11826760D02*
X17679606Y-11836284D01*
X17679606Y-11836284D02*
X17717701Y-11836284D01*
X17717701Y-11836284D02*
X17736749Y-11826760D01*
X17736749Y-11826760D02*
X17746273Y-11807712D01*
X17746273Y-11807712D02*
X17746273Y-11798188D01*
X17746273Y-11798188D02*
X17736749Y-11779141D01*
X17736749Y-11779141D02*
X17717701Y-11769617D01*
X17717701Y-11769617D02*
X17689130Y-11769617D01*
X17689130Y-11769617D02*
X17670082Y-11760093D01*
X17670082Y-11760093D02*
X17660558Y-11741046D01*
X17660558Y-11741046D02*
X17660558Y-11731522D01*
X17660558Y-11731522D02*
X17670082Y-11712474D01*
X17670082Y-11712474D02*
X17689130Y-11702950D01*
X17689130Y-11702950D02*
X17717701Y-11702950D01*
X17717701Y-11702950D02*
X17736749Y-11712474D01*
X17812939Y-11912474D02*
X17822463Y-11902950D01*
X17822463Y-11902950D02*
X17841511Y-11874379D01*
X17841511Y-11874379D02*
X17851034Y-11855331D01*
X17851034Y-11855331D02*
X17860558Y-11826760D01*
X17860558Y-11826760D02*
X17870082Y-11779141D01*
X17870082Y-11779141D02*
X17870082Y-11741046D01*
X17870082Y-11741046D02*
X17860558Y-11693427D01*
X17860558Y-11693427D02*
X17851034Y-11664855D01*
X17851034Y-11664855D02*
X17841511Y-11645808D01*
X17841511Y-11645808D02*
X17822463Y-11617236D01*
X17822463Y-11617236D02*
X17812939Y-11607712D01*
D10*
X12847400Y-12008800D02*
G75*
G03*
X12747400Y-12008800I-50000J0D01*
G01*
X12747400Y-12008800D02*
G75*
G03*
X12847400Y-12008800I50000J0D01*
G01*
D11*
X13212939Y-12100284D02*
X13098653Y-12100284D01*
X13155796Y-12100284D02*
X13155796Y-11900284D01*
X13155796Y-11900284D02*
X13136748Y-11928855D01*
X13136748Y-11928855D02*
X13117701Y-11947903D01*
X13117701Y-11947903D02*
X13098653Y-11957427D01*
X13298653Y-12081236D02*
X13308177Y-12090760D01*
X13308177Y-12090760D02*
X13298653Y-12100284D01*
X13298653Y-12100284D02*
X13289129Y-12090760D01*
X13289129Y-12090760D02*
X13298653Y-12081236D01*
X13298653Y-12081236D02*
X13298653Y-12100284D01*
X13431986Y-11900284D02*
X13451034Y-11900284D01*
X13451034Y-11900284D02*
X13470082Y-11909808D01*
X13470082Y-11909808D02*
X13479605Y-11919331D01*
X13479605Y-11919331D02*
X13489129Y-11938379D01*
X13489129Y-11938379D02*
X13498653Y-11976474D01*
X13498653Y-11976474D02*
X13498653Y-12024093D01*
X13498653Y-12024093D02*
X13489129Y-12062188D01*
X13489129Y-12062188D02*
X13479605Y-12081236D01*
X13479605Y-12081236D02*
X13470082Y-12090760D01*
X13470082Y-12090760D02*
X13451034Y-12100284D01*
X13451034Y-12100284D02*
X13431986Y-12100284D01*
X13431986Y-12100284D02*
X13412939Y-12090760D01*
X13412939Y-12090760D02*
X13403415Y-12081236D01*
X13403415Y-12081236D02*
X13393891Y-12062188D01*
X13393891Y-12062188D02*
X13384367Y-12024093D01*
X13384367Y-12024093D02*
X13384367Y-11976474D01*
X13384367Y-11976474D02*
X13393891Y-11938379D01*
X13393891Y-11938379D02*
X13403415Y-11919331D01*
X13403415Y-11919331D02*
X13412939Y-11909808D01*
X13412939Y-11909808D02*
X13431986Y-11900284D01*
X13622462Y-11900284D02*
X13641510Y-11900284D01*
X13641510Y-11900284D02*
X13660558Y-11909808D01*
X13660558Y-11909808D02*
X13670082Y-11919331D01*
X13670082Y-11919331D02*
X13679605Y-11938379D01*
X13679605Y-11938379D02*
X13689129Y-11976474D01*
X13689129Y-11976474D02*
X13689129Y-12024093D01*
X13689129Y-12024093D02*
X13679605Y-12062188D01*
X13679605Y-12062188D02*
X13670082Y-12081236D01*
X13670082Y-12081236D02*
X13660558Y-12090760D01*
X13660558Y-12090760D02*
X13641510Y-12100284D01*
X13641510Y-12100284D02*
X13622462Y-12100284D01*
X13622462Y-12100284D02*
X13603415Y-12090760D01*
X13603415Y-12090760D02*
X13593891Y-12081236D01*
X13593891Y-12081236D02*
X13584367Y-12062188D01*
X13584367Y-12062188D02*
X13574843Y-12024093D01*
X13574843Y-12024093D02*
X13574843Y-11976474D01*
X13574843Y-11976474D02*
X13584367Y-11938379D01*
X13584367Y-11938379D02*
X13593891Y-11919331D01*
X13593891Y-11919331D02*
X13603415Y-11909808D01*
X13603415Y-11909808D02*
X13622462Y-11900284D01*
X13812939Y-11900284D02*
X13831986Y-11900284D01*
X13831986Y-11900284D02*
X13851034Y-11909808D01*
X13851034Y-11909808D02*
X13860558Y-11919331D01*
X13860558Y-11919331D02*
X13870082Y-11938379D01*
X13870082Y-11938379D02*
X13879605Y-11976474D01*
X13879605Y-11976474D02*
X13879605Y-12024093D01*
X13879605Y-12024093D02*
X13870082Y-12062188D01*
X13870082Y-12062188D02*
X13860558Y-12081236D01*
X13860558Y-12081236D02*
X13851034Y-12090760D01*
X13851034Y-12090760D02*
X13831986Y-12100284D01*
X13831986Y-12100284D02*
X13812939Y-12100284D01*
X13812939Y-12100284D02*
X13793891Y-12090760D01*
X13793891Y-12090760D02*
X13784367Y-12081236D01*
X13784367Y-12081236D02*
X13774843Y-12062188D01*
X13774843Y-12062188D02*
X13765320Y-12024093D01*
X13765320Y-12024093D02*
X13765320Y-11976474D01*
X13765320Y-11976474D02*
X13774843Y-11938379D01*
X13774843Y-11938379D02*
X13784367Y-11919331D01*
X13784367Y-11919331D02*
X13793891Y-11909808D01*
X13793891Y-11909808D02*
X13812939Y-11900284D01*
X13965320Y-12100284D02*
X13965320Y-11966950D01*
X13965320Y-11985998D02*
X13974843Y-11976474D01*
X13974843Y-11976474D02*
X13993891Y-11966950D01*
X13993891Y-11966950D02*
X14022463Y-11966950D01*
X14022463Y-11966950D02*
X14041510Y-11976474D01*
X14041510Y-11976474D02*
X14051034Y-11995522D01*
X14051034Y-11995522D02*
X14051034Y-12100284D01*
X14051034Y-11995522D02*
X14060558Y-11976474D01*
X14060558Y-11976474D02*
X14079605Y-11966950D01*
X14079605Y-11966950D02*
X14108177Y-11966950D01*
X14108177Y-11966950D02*
X14127224Y-11976474D01*
X14127224Y-11976474D02*
X14136748Y-11995522D01*
X14136748Y-11995522D02*
X14136748Y-12100284D01*
X14231986Y-12100284D02*
X14231986Y-11966950D01*
X14231986Y-11985998D02*
X14241510Y-11976474D01*
X14241510Y-11976474D02*
X14260558Y-11966950D01*
X14260558Y-11966950D02*
X14289129Y-11966950D01*
X14289129Y-11966950D02*
X14308177Y-11976474D01*
X14308177Y-11976474D02*
X14317701Y-11995522D01*
X14317701Y-11995522D02*
X14317701Y-12100284D01*
X14317701Y-11995522D02*
X14327224Y-11976474D01*
X14327224Y-11976474D02*
X14346272Y-11966950D01*
X14346272Y-11966950D02*
X14374843Y-11966950D01*
X14374843Y-11966950D02*
X14393891Y-11976474D01*
X14393891Y-11976474D02*
X14403415Y-11995522D01*
X14403415Y-11995522D02*
X14403415Y-12100284D01*
X14793891Y-11890760D02*
X14622463Y-12147903D01*
X15051034Y-11900284D02*
X15070082Y-11900284D01*
X15070082Y-11900284D02*
X15089129Y-11909808D01*
X15089129Y-11909808D02*
X15098653Y-11919331D01*
X15098653Y-11919331D02*
X15108177Y-11938379D01*
X15108177Y-11938379D02*
X15117701Y-11976474D01*
X15117701Y-11976474D02*
X15117701Y-12024093D01*
X15117701Y-12024093D02*
X15108177Y-12062188D01*
X15108177Y-12062188D02*
X15098653Y-12081236D01*
X15098653Y-12081236D02*
X15089129Y-12090760D01*
X15089129Y-12090760D02*
X15070082Y-12100284D01*
X15070082Y-12100284D02*
X15051034Y-12100284D01*
X15051034Y-12100284D02*
X15031986Y-12090760D01*
X15031986Y-12090760D02*
X15022463Y-12081236D01*
X15022463Y-12081236D02*
X15012939Y-12062188D01*
X15012939Y-12062188D02*
X15003415Y-12024093D01*
X15003415Y-12024093D02*
X15003415Y-11976474D01*
X15003415Y-11976474D02*
X15012939Y-11938379D01*
X15012939Y-11938379D02*
X15022463Y-11919331D01*
X15022463Y-11919331D02*
X15031986Y-11909808D01*
X15031986Y-11909808D02*
X15051034Y-11900284D01*
X15203415Y-12081236D02*
X15212939Y-12090760D01*
X15212939Y-12090760D02*
X15203415Y-12100284D01*
X15203415Y-12100284D02*
X15193891Y-12090760D01*
X15193891Y-12090760D02*
X15203415Y-12081236D01*
X15203415Y-12081236D02*
X15203415Y-12100284D01*
X15336748Y-11900284D02*
X15355796Y-11900284D01*
X15355796Y-11900284D02*
X15374844Y-11909808D01*
X15374844Y-11909808D02*
X15384367Y-11919331D01*
X15384367Y-11919331D02*
X15393891Y-11938379D01*
X15393891Y-11938379D02*
X15403415Y-11976474D01*
X15403415Y-11976474D02*
X15403415Y-12024093D01*
X15403415Y-12024093D02*
X15393891Y-12062188D01*
X15393891Y-12062188D02*
X15384367Y-12081236D01*
X15384367Y-12081236D02*
X15374844Y-12090760D01*
X15374844Y-12090760D02*
X15355796Y-12100284D01*
X15355796Y-12100284D02*
X15336748Y-12100284D01*
X15336748Y-12100284D02*
X15317701Y-12090760D01*
X15317701Y-12090760D02*
X15308177Y-12081236D01*
X15308177Y-12081236D02*
X15298653Y-12062188D01*
X15298653Y-12062188D02*
X15289129Y-12024093D01*
X15289129Y-12024093D02*
X15289129Y-11976474D01*
X15289129Y-11976474D02*
X15298653Y-11938379D01*
X15298653Y-11938379D02*
X15308177Y-11919331D01*
X15308177Y-11919331D02*
X15317701Y-11909808D01*
X15317701Y-11909808D02*
X15336748Y-11900284D01*
X15470082Y-11900284D02*
X15593891Y-11900284D01*
X15593891Y-11900284D02*
X15527225Y-11976474D01*
X15527225Y-11976474D02*
X15555796Y-11976474D01*
X15555796Y-11976474D02*
X15574844Y-11985998D01*
X15574844Y-11985998D02*
X15584367Y-11995522D01*
X15584367Y-11995522D02*
X15593891Y-12014569D01*
X15593891Y-12014569D02*
X15593891Y-12062188D01*
X15593891Y-12062188D02*
X15584367Y-12081236D01*
X15584367Y-12081236D02*
X15574844Y-12090760D01*
X15574844Y-12090760D02*
X15555796Y-12100284D01*
X15555796Y-12100284D02*
X15498653Y-12100284D01*
X15498653Y-12100284D02*
X15479606Y-12090760D01*
X15479606Y-12090760D02*
X15470082Y-12081236D01*
X15689129Y-12100284D02*
X15727225Y-12100284D01*
X15727225Y-12100284D02*
X15746272Y-12090760D01*
X15746272Y-12090760D02*
X15755796Y-12081236D01*
X15755796Y-12081236D02*
X15774844Y-12052665D01*
X15774844Y-12052665D02*
X15784367Y-12014569D01*
X15784367Y-12014569D02*
X15784367Y-11938379D01*
X15784367Y-11938379D02*
X15774844Y-11919331D01*
X15774844Y-11919331D02*
X15765320Y-11909808D01*
X15765320Y-11909808D02*
X15746272Y-11900284D01*
X15746272Y-11900284D02*
X15708177Y-11900284D01*
X15708177Y-11900284D02*
X15689129Y-11909808D01*
X15689129Y-11909808D02*
X15679606Y-11919331D01*
X15679606Y-11919331D02*
X15670082Y-11938379D01*
X15670082Y-11938379D02*
X15670082Y-11985998D01*
X15670082Y-11985998D02*
X15679606Y-12005046D01*
X15679606Y-12005046D02*
X15689129Y-12014569D01*
X15689129Y-12014569D02*
X15708177Y-12024093D01*
X15708177Y-12024093D02*
X15746272Y-12024093D01*
X15746272Y-12024093D02*
X15765320Y-12014569D01*
X15765320Y-12014569D02*
X15774844Y-12005046D01*
X15774844Y-12005046D02*
X15784367Y-11985998D01*
X15955796Y-11966950D02*
X15955796Y-12100284D01*
X15908177Y-11890760D02*
X15860558Y-12033617D01*
X15860558Y-12033617D02*
X15984367Y-12033617D01*
X16051034Y-11900284D02*
X16051034Y-11938379D01*
X16127225Y-11900284D02*
X16127225Y-11938379D01*
X16422463Y-12176474D02*
X16412939Y-12166950D01*
X16412939Y-12166950D02*
X16393891Y-12138379D01*
X16393891Y-12138379D02*
X16384368Y-12119331D01*
X16384368Y-12119331D02*
X16374844Y-12090760D01*
X16374844Y-12090760D02*
X16365320Y-12043141D01*
X16365320Y-12043141D02*
X16365320Y-12005046D01*
X16365320Y-12005046D02*
X16374844Y-11957427D01*
X16374844Y-11957427D02*
X16384368Y-11928855D01*
X16384368Y-11928855D02*
X16393891Y-11909808D01*
X16393891Y-11909808D02*
X16412939Y-11881236D01*
X16412939Y-11881236D02*
X16422463Y-11871712D01*
X16489129Y-11919331D02*
X16498653Y-11909808D01*
X16498653Y-11909808D02*
X16517701Y-11900284D01*
X16517701Y-11900284D02*
X16565320Y-11900284D01*
X16565320Y-11900284D02*
X16584368Y-11909808D01*
X16584368Y-11909808D02*
X16593891Y-11919331D01*
X16593891Y-11919331D02*
X16603415Y-11938379D01*
X16603415Y-11938379D02*
X16603415Y-11957427D01*
X16603415Y-11957427D02*
X16593891Y-11985998D01*
X16593891Y-11985998D02*
X16479606Y-12100284D01*
X16479606Y-12100284D02*
X16603415Y-12100284D01*
X16784368Y-11900284D02*
X16689129Y-11900284D01*
X16689129Y-11900284D02*
X16679606Y-11995522D01*
X16679606Y-11995522D02*
X16689129Y-11985998D01*
X16689129Y-11985998D02*
X16708177Y-11976474D01*
X16708177Y-11976474D02*
X16755796Y-11976474D01*
X16755796Y-11976474D02*
X16774844Y-11985998D01*
X16774844Y-11985998D02*
X16784368Y-11995522D01*
X16784368Y-11995522D02*
X16793891Y-12014569D01*
X16793891Y-12014569D02*
X16793891Y-12062188D01*
X16793891Y-12062188D02*
X16784368Y-12081236D01*
X16784368Y-12081236D02*
X16774844Y-12090760D01*
X16774844Y-12090760D02*
X16755796Y-12100284D01*
X16755796Y-12100284D02*
X16708177Y-12100284D01*
X16708177Y-12100284D02*
X16689129Y-12090760D01*
X16689129Y-12090760D02*
X16679606Y-12081236D01*
X17031987Y-12100284D02*
X17031987Y-11900284D01*
X17117701Y-12100284D02*
X17117701Y-11995522D01*
X17117701Y-11995522D02*
X17108177Y-11976474D01*
X17108177Y-11976474D02*
X17089130Y-11966950D01*
X17089130Y-11966950D02*
X17060558Y-11966950D01*
X17060558Y-11966950D02*
X17041511Y-11976474D01*
X17041511Y-11976474D02*
X17031987Y-11985998D01*
X17241511Y-12100284D02*
X17222463Y-12090760D01*
X17222463Y-12090760D02*
X17212939Y-12081236D01*
X17212939Y-12081236D02*
X17203415Y-12062188D01*
X17203415Y-12062188D02*
X17203415Y-12005046D01*
X17203415Y-12005046D02*
X17212939Y-11985998D01*
X17212939Y-11985998D02*
X17222463Y-11976474D01*
X17222463Y-11976474D02*
X17241511Y-11966950D01*
X17241511Y-11966950D02*
X17270082Y-11966950D01*
X17270082Y-11966950D02*
X17289130Y-11976474D01*
X17289130Y-11976474D02*
X17298653Y-11985998D01*
X17298653Y-11985998D02*
X17308177Y-12005046D01*
X17308177Y-12005046D02*
X17308177Y-12062188D01*
X17308177Y-12062188D02*
X17298653Y-12081236D01*
X17298653Y-12081236D02*
X17289130Y-12090760D01*
X17289130Y-12090760D02*
X17270082Y-12100284D01*
X17270082Y-12100284D02*
X17241511Y-12100284D01*
X17422463Y-12100284D02*
X17403415Y-12090760D01*
X17403415Y-12090760D02*
X17393892Y-12071712D01*
X17393892Y-12071712D02*
X17393892Y-11900284D01*
X17574844Y-12090760D02*
X17555796Y-12100284D01*
X17555796Y-12100284D02*
X17517701Y-12100284D01*
X17517701Y-12100284D02*
X17498653Y-12090760D01*
X17498653Y-12090760D02*
X17489130Y-12071712D01*
X17489130Y-12071712D02*
X17489130Y-11995522D01*
X17489130Y-11995522D02*
X17498653Y-11976474D01*
X17498653Y-11976474D02*
X17517701Y-11966950D01*
X17517701Y-11966950D02*
X17555796Y-11966950D01*
X17555796Y-11966950D02*
X17574844Y-11976474D01*
X17574844Y-11976474D02*
X17584368Y-11995522D01*
X17584368Y-11995522D02*
X17584368Y-12014569D01*
X17584368Y-12014569D02*
X17489130Y-12033617D01*
X17660558Y-12090760D02*
X17679606Y-12100284D01*
X17679606Y-12100284D02*
X17717701Y-12100284D01*
X17717701Y-12100284D02*
X17736749Y-12090760D01*
X17736749Y-12090760D02*
X17746273Y-12071712D01*
X17746273Y-12071712D02*
X17746273Y-12062188D01*
X17746273Y-12062188D02*
X17736749Y-12043141D01*
X17736749Y-12043141D02*
X17717701Y-12033617D01*
X17717701Y-12033617D02*
X17689130Y-12033617D01*
X17689130Y-12033617D02*
X17670082Y-12024093D01*
X17670082Y-12024093D02*
X17660558Y-12005046D01*
X17660558Y-12005046D02*
X17660558Y-11995522D01*
X17660558Y-11995522D02*
X17670082Y-11976474D01*
X17670082Y-11976474D02*
X17689130Y-11966950D01*
X17689130Y-11966950D02*
X17717701Y-11966950D01*
X17717701Y-11966950D02*
X17736749Y-11976474D01*
X17812939Y-12176474D02*
X17822463Y-12166950D01*
X17822463Y-12166950D02*
X17841511Y-12138379D01*
X17841511Y-12138379D02*
X17851034Y-12119331D01*
X17851034Y-12119331D02*
X17860558Y-12090760D01*
X17860558Y-12090760D02*
X17870082Y-12043141D01*
X17870082Y-12043141D02*
X17870082Y-12005046D01*
X17870082Y-12005046D02*
X17860558Y-11957427D01*
X17860558Y-11957427D02*
X17851034Y-11928855D01*
X17851034Y-11928855D02*
X17841511Y-11909808D01*
X17841511Y-11909808D02*
X17822463Y-11881236D01*
X17822463Y-11881236D02*
X17812939Y-11871712D01*
M02*
