%TF.GenerationSoftware,KiCad,Pcbnew,7.0.10*%
%TF.CreationDate,2024-02-27T03:30:34+03:00*%
%TF.ProjectId,Arduino_Datalogger,41726475-696e-46f5-9f44-6174616c6f67,1.0*%
%TF.SameCoordinates,Original*%
%TF.FileFunction,Paste,Top*%
%TF.FilePolarity,Positive*%
%FSLAX46Y46*%
G04 Gerber Fmt 4.6, Leading zero omitted, Abs format (unit mm)*
G04 Created by KiCad (PCBNEW 7.0.10) date 2024-02-27 03:30:34*
%MOMM*%
%LPD*%
G01*
G04 APERTURE LIST*
G04 Aperture macros list*
%AMRoundRect*
0 Rectangle with rounded corners*
0 $1 Rounding radius*
0 $2 $3 $4 $5 $6 $7 $8 $9 X,Y pos of 4 corners*
0 Add a 4 corners polygon primitive as box body*
4,1,4,$2,$3,$4,$5,$6,$7,$8,$9,$2,$3,0*
0 Add four circle primitives for the rounded corners*
1,1,$1+$1,$2,$3*
1,1,$1+$1,$4,$5*
1,1,$1+$1,$6,$7*
1,1,$1+$1,$8,$9*
0 Add four rect primitives between the rounded corners*
20,1,$1+$1,$2,$3,$4,$5,0*
20,1,$1+$1,$4,$5,$6,$7,0*
20,1,$1+$1,$6,$7,$8,$9,0*
20,1,$1+$1,$8,$9,$2,$3,0*%
G04 Aperture macros list end*
%ADD10RoundRect,0.048800X-0.796200X-0.256200X0.796200X-0.256200X0.796200X0.256200X-0.796200X0.256200X0*%
%ADD11RoundRect,0.041300X-0.943700X-0.253700X0.943700X-0.253700X0.943700X0.253700X-0.943700X0.253700X0*%
%ADD12RoundRect,0.038500X0.236500X-0.696500X0.236500X0.696500X-0.236500X0.696500X-0.236500X-0.696500X0*%
%ADD13RoundRect,0.099000X0.636000X-0.176000X0.636000X0.176000X-0.636000X0.176000X-0.636000X-0.176000X0*%
%ADD14RoundRect,0.243750X-0.243750X-0.456250X0.243750X-0.456250X0.243750X0.456250X-0.243750X0.456250X0*%
%ADD15RoundRect,0.250000X-0.250000X-0.475000X0.250000X-0.475000X0.250000X0.475000X-0.250000X0.475000X0*%
%ADD16RoundRect,0.250000X0.262500X0.450000X-0.262500X0.450000X-0.262500X-0.450000X0.262500X-0.450000X0*%
%ADD17RoundRect,0.250000X0.450000X-0.262500X0.450000X0.262500X-0.450000X0.262500X-0.450000X-0.262500X0*%
%ADD18RoundRect,0.250000X-0.262500X-0.450000X0.262500X-0.450000X0.262500X0.450000X-0.262500X0.450000X0*%
%ADD19RoundRect,0.250000X-0.450000X0.262500X-0.450000X-0.262500X0.450000X-0.262500X0.450000X0.262500X0*%
%ADD20R,2.400000X3.500000*%
G04 APERTURE END LIST*
D10*
%TO.C,U2*%
X140505000Y-71755000D03*
X140505000Y-73025000D03*
X140505000Y-74295000D03*
X140505000Y-75565000D03*
X147785000Y-75565000D03*
X147785000Y-74295000D03*
X147785000Y-73025000D03*
X147785000Y-71755000D03*
%TD*%
%TO.C,U5*%
X140505000Y-81915000D03*
X140505000Y-83185000D03*
X140505000Y-84455000D03*
X140505000Y-85725000D03*
X147785000Y-85725000D03*
X147785000Y-84455000D03*
X147785000Y-83185000D03*
X147785000Y-81915000D03*
%TD*%
D11*
%TO.C,U1*%
X141289000Y-91821000D03*
X141289000Y-93091000D03*
X141289000Y-94361000D03*
X141289000Y-95631000D03*
X146239000Y-95631000D03*
X146239000Y-94361000D03*
X146239000Y-93091000D03*
X146239000Y-91821000D03*
%TD*%
D12*
%TO.C,U3*%
X154680000Y-87990000D03*
X155480000Y-87990000D03*
X156280000Y-87990000D03*
X157080000Y-87990000D03*
X157880000Y-87990000D03*
X158680000Y-87990000D03*
X159480000Y-87990000D03*
X160280000Y-87990000D03*
D13*
X161650000Y-86620000D03*
X161650000Y-85820000D03*
X161650000Y-85020000D03*
X161650000Y-84220000D03*
X161650000Y-83420000D03*
X161650000Y-82620000D03*
X161650000Y-81820000D03*
X161650000Y-81020000D03*
D12*
X160280000Y-79650000D03*
X159480000Y-79650000D03*
X158680000Y-79650000D03*
X157880000Y-79650000D03*
X157080000Y-79650000D03*
X156280000Y-79650000D03*
X155480000Y-79650000D03*
X154680000Y-79650000D03*
D13*
X153310000Y-81020000D03*
X153310000Y-81820000D03*
X153310000Y-82620000D03*
X153310000Y-83420000D03*
X153310000Y-84220000D03*
X153310000Y-85020000D03*
X153310000Y-85820000D03*
X153310000Y-86620000D03*
%TD*%
D14*
%TO.C,D1*%
X134190500Y-98288000D03*
X136065500Y-98288000D03*
%TD*%
D15*
%TO.C,C4*%
X165420000Y-94615000D03*
X167320000Y-94615000D03*
%TD*%
%TO.C,C3*%
X165420000Y-89535000D03*
X167320000Y-89535000D03*
%TD*%
%TO.C,C2*%
X165420000Y-84455000D03*
X167320000Y-84455000D03*
%TD*%
D16*
%TO.C,R7*%
X144780000Y-99695000D03*
X142955000Y-99695000D03*
%TD*%
D17*
%TO.C,R6*%
X160020000Y-74295000D03*
X160020000Y-72470000D03*
%TD*%
D18*
%TO.C,R2*%
X158830000Y-93345000D03*
X160655000Y-93345000D03*
%TD*%
D19*
%TO.C,R5*%
X153924000Y-72493500D03*
X153924000Y-74318500D03*
%TD*%
D15*
%TO.C,C1*%
X165420000Y-79375000D03*
X167320000Y-79375000D03*
%TD*%
D20*
%TO.C,Y2*%
X172085000Y-96520000D03*
X172085000Y-91320000D03*
%TD*%
D18*
%TO.C,R3*%
X153115000Y-99060000D03*
X154940000Y-99060000D03*
%TD*%
%TO.C,R4*%
X158830000Y-99060000D03*
X160655000Y-99060000D03*
%TD*%
D14*
%TO.C,D2*%
X134269000Y-79502000D03*
X136144000Y-79502000D03*
%TD*%
D18*
%TO.C,R1*%
X153115000Y-93345000D03*
X154940000Y-93345000D03*
%TD*%
D20*
%TO.C,Y1*%
X172085000Y-85785000D03*
X172085000Y-80585000D03*
%TD*%
D15*
%TO.C,C5*%
X165420000Y-99695000D03*
X167320000Y-99695000D03*
%TD*%
M02*
